<svg width="711" height="490" viewBox="0 0 711 490" fill="none" xmlns="http://www.w3.org/2000/svg">
<path d="M270.434 233.557H0.50177M257.389 247H77.2669L43.6508 274.385H0.50177" stroke="white"/>
<path d="M269.932 233.557H0M256.887 220.114H76.7651L43.149 192.729H0" stroke="white"/>
<path d="M451.559 233.558H709.973M464.048 247.001H636.484L668.666 274.386H709.973" stroke="white"/>
<path d="M452.039 233.558H710.454M464.528 220.115H636.964L669.146 192.73H710.454" stroke="white"/>
<path d="M2.00696 0.25H223.757L312.078 145.997M293.504 157.794L210.869 23.0825H2.00696" stroke="white" stroke-width="0.5"/>
<path d="M710.453 0.25H488.703L400.382 145.997M418.956 157.794L501.591 23.0825H710.453" stroke="white" stroke-width="0.5"/>
<path d="M710.453 481.915H488.703L400.382 336.167M418.956 324.37L501.591 459.082H710.453" stroke="white" stroke-width="0.4"/>
<path d="M2.00696 488.939H217.298L303.047 343.191M285.014 331.395L204.786 466.106H2.00696" stroke="white" stroke-width="0.5"/>
</svg>
