<svg width="200" height="217" viewBox="0 0 200 217" fill="none" xmlns="http://www.w3.org/2000/svg">
<path d="M101.244 19.7953C110.257 16.6733 120.262 18.4056 127.669 24.3706L178.54 65.3405C186.305 71.5937 190.019 81.5306 188.236 91.2788L175.906 158.688C174.079 168.673 166.787 176.821 156.992 179.823L98.1978 197.84C89.8368 200.402 80.7423 198.87 73.7092 193.713L21.46 155.406C13.0556 149.244 8.91456 138.895 10.7777 128.709L23.0761 61.4735C24.8387 51.8376 31.6998 43.8832 41.0394 40.6484L101.244 19.7953Z" stroke="white" stroke-width="2"/>
<path d="M85.6414 29.9941C93.6865 25.4837 103.522 25.4259 111.62 29.8428L161.654 57.1328C170.15 61.7666 175.422 70.6026 175.422 80.1924V139.83C175.422 149.653 169.894 158.663 161.076 163.196L113.573 187.614C106.052 191.48 97.12 191.573 89.5193 187.862L38.6961 163.053C29.6057 158.615 23.8563 149.458 23.8563 139.438V79.9775L23.8602 79.5332C24.0182 70.225 29.1378 61.6718 37.3504 57.0674L85.6414 29.9941Z" fill="#212121" stroke="white" stroke-width="2"/>
<path d="M126.188 133.975C127.754 136.763 130.746 142.536 131.827 147.708C132.227 149.618 130.63 151.211 128.653 151.219L71.5803 151.428C69.2653 151.437 67.5484 149.313 68.0055 147.075C74.9154 113.234 70.0867 80.4093 67.9351 68.8709C67.518 66.6343 69.2456 64.5127 71.5516 64.5045L127.135 64.3008C129.618 64.2918 131.361 66.7114 130.534 69.0204L126.049 81.5547C125.542 82.9705 124.185 83.9173 122.663 83.9173H94.6272C92.6441 83.9173 91.0367 85.5026 91.0367 87.458V94.7437C91.0367 96.6994 92.6441 98.2847 94.6272 98.2847H113.283C115 98.2847 116.476 99.4829 116.807 101.144L118.004 107.164C118.096 107.626 118.094 108.101 117.998 108.562L116.83 114.138C116.485 115.783 115.016 116.963 113.313 116.963H94.385C92.4019 116.963 90.7944 118.548 90.7944 120.504L90.7947 128.317C90.7947 130.253 92.3715 131.83 94.3347 131.858L123.223 132.26C124.456 132.277 125.59 132.911 126.188 133.975Z" fill="white"/>
</svg>
