<svg width="301" height="214" viewBox="0 0 301 214" fill="none" xmlns="http://www.w3.org/2000/svg">
<rect x="0.25" y="0.25" width="300.5" height="213.5" rx="18.75" stroke="white" stroke-width="0.5"/>
<rect x="11.25" y="8.25" width="278.5" height="197.5" rx="18.75" fill="white" fill-opacity="0.1" stroke="white" stroke-width="0.5"/>
<path d="M51 144V131" stroke="white" stroke-opacity="0.17" stroke-width="0.8" stroke-linecap="round"/>
<path d="M51 128V115M120.665 128V115" stroke="white" stroke-opacity="0.17" stroke-width="0.8" stroke-linecap="round"/>
<path d="M51 112V99M120.665 112V99" stroke="white" stroke-opacity="0.17" stroke-width="0.8" stroke-linecap="round"/>
<path d="M51 96V83M120.665 96V83M187.824 88L187.824 83" stroke="white" stroke-opacity="0.17" stroke-width="0.8" stroke-linecap="round"/>
<path d="M51 80V67M120.665 80V67M187.824 80V67" stroke="white" stroke-opacity="0.17" stroke-width="0.8" stroke-linecap="round"/>
<path d="M51 64V51M120.665 64V51M187.824 64V51" stroke="white" stroke-opacity="0.17" stroke-width="0.8" stroke-linecap="round"/>
<path d="M51 48V35M120.665 48V35M187.824 48V35M262 48V35" stroke="white" stroke-opacity="0.17" stroke-width="0.8" stroke-linecap="round"/>
<path d="M81.6717 132.271C66.2241 136.391 51 154 51 154V170.5H262V56C262 56 246.878 95.5931 227.627 102.561C208.442 109.505 177.946 89.1845 158.88 96.3529C139.813 103.521 144.673 134.95 128.737 140.697C112.8 146.444 97.1192 128.152 81.6717 132.271Z" fill="url(#paint0_linear_369_105)" fill-opacity="0.19"/>
<path d="M51 154C51 154 66.2241 136.391 81.6717 132.271C97.1192 128.152 112.8 146.444 128.737 140.697C144.673 134.95 139.813 103.521 158.88 96.3529C177.946 89.1845 208.442 109.505 227.627 102.561C246.878 95.5931 262 56 262 56" stroke="white" stroke-linecap="round"/>
<path d="M45.9538 182.08C45.7484 182.08 45.5551 182.056 45.3738 182.008C45.1951 181.96 45.0764 181.924 45.0178 181.9L45.0698 181.192C45.1524 181.221 45.2471 181.259 45.3538 181.304C45.4631 181.347 45.5978 181.368 45.7578 181.368C46.0191 181.368 46.1978 181.296 46.2938 181.152C46.3924 181.008 46.4418 180.765 46.4418 180.424V176.216H47.1818V180.636C47.1818 180.943 47.1471 181.204 47.0778 181.42C47.0084 181.636 46.8844 181.8 46.7058 181.912C46.5298 182.024 46.2791 182.08 45.9538 182.08ZM49.8072 182.08C49.5378 182.08 49.3005 182.033 49.0952 181.94C48.8925 181.844 48.7325 181.707 48.6152 181.528C48.5005 181.349 48.4432 181.133 48.4432 180.88C48.4432 180.421 48.6032 180.08 48.9232 179.856C49.2432 179.632 49.7565 179.512 50.4632 179.496L51.1992 179.476V179.152C51.1992 178.899 51.1232 178.699 50.9712 178.552C50.8192 178.403 50.5845 178.328 50.2672 178.328C50.0298 178.331 49.8205 178.387 49.6392 178.496C49.4578 178.605 49.3418 178.784 49.2912 179.032H48.6392C48.6552 178.763 48.7298 178.536 48.8632 178.352C48.9992 178.165 49.1898 178.024 49.4352 177.928C49.6805 177.832 49.9698 177.784 50.3032 177.784C50.6632 177.784 50.9618 177.835 51.1992 177.936C51.4392 178.037 51.6178 178.187 51.7352 178.384C51.8552 178.581 51.9152 178.824 51.9152 179.112V182H51.2832L51.2272 181.224C51.0698 181.547 50.8672 181.771 50.6192 181.896C50.3738 182.019 50.1032 182.08 49.8072 182.08ZM50.0272 181.548C50.1685 181.548 50.3072 181.523 50.4432 181.472C50.5818 181.421 50.7072 181.353 50.8192 181.268C50.9338 181.18 51.0258 181.083 51.0952 180.976C51.1645 180.867 51.1992 180.755 51.1992 180.64V179.932L50.5872 179.944C50.2698 179.949 50.0058 179.981 49.7952 180.04C49.5845 180.099 49.4258 180.191 49.3192 180.316C49.2125 180.441 49.1592 180.605 49.1592 180.808C49.1592 181.04 49.2405 181.221 49.4032 181.352C49.5658 181.483 49.7738 181.548 50.0272 181.548ZM53.309 182V177.864H54.025V178.464C54.0917 178.349 54.1837 178.241 54.301 178.14C54.421 178.039 54.565 177.957 54.733 177.896C54.9037 177.835 55.0997 177.804 55.321 177.804C55.5824 177.804 55.8224 177.856 56.041 177.96C56.2624 178.064 56.4384 178.227 56.569 178.448C56.7024 178.667 56.769 178.949 56.769 179.296V182H56.029V179.368C56.029 179.045 55.9437 178.807 55.773 178.652C55.605 178.495 55.3864 178.416 55.117 178.416C54.9304 178.416 54.7557 178.447 54.593 178.508C54.4304 178.567 54.2984 178.657 54.197 178.78C54.0957 178.9 54.045 179.052 54.045 179.236V182H53.309Z" fill="white"/>
<path d="M29.242 157.088C28.61 157.088 28.1086 156.84 27.738 156.344C27.3673 155.845 27.182 155.108 27.182 154.132C27.182 153.473 27.2673 152.921 27.438 152.476C27.6086 152.031 27.8486 151.696 28.158 151.472C28.4673 151.248 28.8313 151.136 29.25 151.136C29.8766 151.136 30.3753 151.388 30.746 151.892C31.1193 152.393 31.306 153.136 31.306 154.12C31.306 155.099 31.1206 155.839 30.75 156.34C30.3793 156.839 29.8766 157.088 29.242 157.088ZM29.25 156.448C29.6633 156.448 29.9753 156.267 30.186 155.904C30.3993 155.539 30.506 154.945 30.506 154.124C30.506 153.287 30.398 152.684 30.182 152.316C29.9686 151.945 29.6566 151.76 29.246 151.76C28.838 151.76 28.5233 151.947 28.302 152.32C28.0833 152.691 27.974 153.292 27.974 154.124C27.974 154.943 28.0833 155.535 28.302 155.9C28.5206 156.265 28.8366 156.448 29.25 156.448ZM34.6484 157.08C34.0377 157.08 33.5311 156.949 33.1284 156.688C32.7284 156.424 32.4897 156.035 32.4124 155.52L33.1884 155.472C33.2737 155.797 33.4444 156.041 33.7004 156.204C33.9564 156.367 34.2711 156.448 34.6444 156.448C34.8684 156.448 35.0777 156.409 35.2724 156.332C35.4697 156.255 35.6284 156.147 35.7484 156.008C35.8711 155.869 35.9324 155.705 35.9324 155.516C35.9324 155.263 35.8564 155.06 35.7044 154.908C35.5551 154.756 35.3164 154.636 34.9884 154.548L33.9924 154.288C33.5631 154.179 33.2231 154.007 32.9724 153.772C32.7217 153.537 32.5951 153.223 32.5924 152.828C32.5897 152.495 32.6764 152.201 32.8524 151.948C33.0311 151.695 33.2764 151.497 33.5884 151.356C33.9031 151.215 34.2657 151.144 34.6764 151.144C35.0711 151.144 35.4111 151.22 35.6964 151.372C35.9844 151.521 36.2071 151.72 36.3644 151.968C36.5244 152.216 36.6097 152.487 36.6204 152.78L35.8684 152.82C35.8097 152.476 35.6831 152.216 35.4884 152.04C35.2964 151.861 35.0257 151.772 34.6764 151.772C34.5111 151.772 34.3511 151.793 34.1964 151.836C34.0444 151.876 33.9071 151.937 33.7844 152.02C33.6644 152.103 33.5684 152.205 33.4964 152.328C33.4244 152.451 33.3884 152.593 33.3884 152.756C33.3884 152.964 33.4617 153.129 33.6084 153.252C33.7551 153.372 34.0191 153.491 34.4004 153.608L35.3604 153.88C35.8511 154.016 36.2004 154.228 36.4084 154.516C36.6191 154.801 36.7244 155.132 36.7244 155.508C36.7244 155.815 36.6377 156.087 36.4644 156.324C36.2911 156.559 36.0471 156.744 35.7324 156.88C35.4204 157.013 35.0591 157.08 34.6484 157.08ZM34.2884 157.836V156.804H34.9724V157.836H34.2884ZM34.3364 151.384V150.352H35.0204V151.384H34.3364Z" fill="white"/>
<path d="M24.9809 120.08C24.3702 120.08 23.8636 119.949 23.4609 119.688C23.0609 119.424 22.8222 119.035 22.7449 118.52L23.5209 118.472C23.6062 118.797 23.7769 119.041 24.0329 119.204C24.2889 119.367 24.6036 119.448 24.9769 119.448C25.2009 119.448 25.4102 119.409 25.6049 119.332C25.8022 119.255 25.9609 119.147 26.0809 119.008C26.2036 118.869 26.2649 118.705 26.2649 118.516C26.2649 118.263 26.1889 118.06 26.0369 117.908C25.8876 117.756 25.6489 117.636 25.3209 117.548L24.3249 117.288C23.8956 117.179 23.5556 117.007 23.3049 116.772C23.0542 116.537 22.9276 116.223 22.9249 115.828C22.9222 115.495 23.0089 115.201 23.1849 114.948C23.3636 114.695 23.6089 114.497 23.9209 114.356C24.2356 114.215 24.5982 114.144 25.0089 114.144C25.4036 114.144 25.7436 114.22 26.0289 114.372C26.3169 114.521 26.5396 114.72 26.6969 114.968C26.8569 115.216 26.9422 115.487 26.9529 115.78L26.2009 115.82C26.1422 115.476 26.0156 115.216 25.8209 115.04C25.6289 114.861 25.3582 114.772 25.0089 114.772C24.8436 114.772 24.6836 114.793 24.5289 114.836C24.3769 114.876 24.2396 114.937 24.1169 115.02C23.9969 115.103 23.9009 115.205 23.8289 115.328C23.7569 115.451 23.7209 115.593 23.7209 115.756C23.7209 115.964 23.7942 116.129 23.9409 116.252C24.0876 116.372 24.3516 116.491 24.7329 116.608L25.6929 116.88C26.1836 117.016 26.5329 117.228 26.7409 117.516C26.9516 117.801 27.0569 118.132 27.0569 118.508C27.0569 118.815 26.9702 119.087 26.7969 119.324C26.6236 119.559 26.3796 119.744 26.0649 119.88C25.7529 120.013 25.3916 120.08 24.9809 120.08ZM24.6209 120.836V119.804H25.3049V120.836H24.6209ZM24.6689 114.384V113.352H25.3529V114.384H24.6689ZM30.4105 120.088C30.0532 120.088 29.7225 120.025 29.4185 119.9C29.1145 119.775 28.8532 119.6 28.6345 119.376C28.4185 119.152 28.2599 118.895 28.1585 118.604L28.7985 118.336C28.8945 118.555 29.0145 118.749 29.1585 118.92C29.3052 119.091 29.4785 119.224 29.6785 119.32C29.8785 119.416 30.1052 119.464 30.3585 119.464C30.7692 119.464 31.0985 119.345 31.3465 119.108C31.5972 118.868 31.7225 118.543 31.7225 118.132C31.7225 117.876 31.6639 117.653 31.5465 117.464C31.4292 117.272 31.2705 117.123 31.0705 117.016C30.8732 116.909 30.6545 116.856 30.4145 116.856C30.2572 116.856 30.1105 116.871 29.9745 116.9C29.8385 116.927 29.7039 116.98 29.5705 117.06C29.4372 117.14 29.2972 117.261 29.1505 117.424C29.1345 117.432 29.1225 117.436 29.1145 117.436C29.1065 117.433 29.0932 117.428 29.0745 117.42L28.4505 117.224L28.7105 114.216H32.1625L32.1425 114.856H29.3425L29.1945 116.724C29.3865 116.545 29.5959 116.419 29.8225 116.344C30.0519 116.267 30.2999 116.228 30.5665 116.228C30.9159 116.228 31.2372 116.3 31.5305 116.444C31.8265 116.585 32.0639 116.796 32.2425 117.076C32.4212 117.353 32.5105 117.697 32.5105 118.108C32.5105 118.508 32.4239 118.856 32.2505 119.152C32.0772 119.448 31.8332 119.679 31.5185 119.844C31.2039 120.007 30.8345 120.088 30.4105 120.088ZM35.5835 120.088C34.9515 120.088 34.4502 119.84 34.0795 119.344C33.7089 118.845 33.5235 118.108 33.5235 117.132C33.5235 116.473 33.6089 115.921 33.7795 115.476C33.9502 115.031 34.1902 114.696 34.4995 114.472C34.8089 114.248 35.1729 114.136 35.5915 114.136C36.2182 114.136 36.7169 114.388 37.0875 114.892C37.4609 115.393 37.6475 116.136 37.6475 117.12C37.6475 118.099 37.4622 118.839 37.0915 119.34C36.7209 119.839 36.2182 120.088 35.5835 120.088ZM35.5915 119.448C36.0049 119.448 36.3169 119.267 36.5275 118.904C36.7409 118.539 36.8475 117.945 36.8475 117.124C36.8475 116.287 36.7395 115.684 36.5235 115.316C36.3102 114.945 35.9982 114.76 35.5875 114.76C35.1795 114.76 34.8649 114.947 34.6435 115.32C34.4249 115.691 34.3155 116.292 34.3155 117.124C34.3155 117.943 34.4249 118.535 34.6435 118.9C34.8622 119.265 35.1782 119.448 35.5915 119.448ZM39.042 120V114.216H39.81V117.208L42.402 114.216H43.286L41.354 116.488L43.454 120H42.618L40.814 117.028L39.81 118.176V120H39.042Z" fill="white"/>
<path d="M22.8687 84.08C22.2581 84.08 21.7514 83.9493 21.3487 83.688C20.9487 83.424 20.7101 83.0347 20.6327 82.52L21.4087 82.472C21.4941 82.7973 21.6647 83.0413 21.9207 83.204C22.1767 83.3667 22.4914 83.448 22.8647 83.448C23.0887 83.448 23.2981 83.4093 23.4927 83.332C23.6901 83.2547 23.8487 83.1467 23.9687 83.008C24.0914 82.8693 24.1527 82.7053 24.1527 82.516C24.1527 82.2627 24.0767 82.06 23.9247 81.908C23.7754 81.756 23.5367 81.636 23.2087 81.548L22.2127 81.288C21.7834 81.1787 21.4434 81.0067 21.1927 80.772C20.9421 80.5373 20.8154 80.2227 20.8127 79.828C20.8101 79.4947 20.8967 79.2013 21.0727 78.948C21.2514 78.6947 21.4967 78.4973 21.8087 78.356C22.1234 78.2147 22.4861 78.144 22.8967 78.144C23.2914 78.144 23.6314 78.22 23.9167 78.372C24.2047 78.5213 24.4274 78.72 24.5847 78.968C24.7447 79.216 24.8301 79.4867 24.8407 79.78L24.0887 79.82C24.0301 79.476 23.9034 79.216 23.7087 79.04C23.5167 78.8613 23.2461 78.772 22.8967 78.772C22.7314 78.772 22.5714 78.7933 22.4167 78.836C22.2647 78.876 22.1274 78.9373 22.0047 79.02C21.8847 79.1027 21.7887 79.2053 21.7167 79.328C21.6447 79.4507 21.6087 79.5933 21.6087 79.756C21.6087 79.964 21.6821 80.1293 21.8287 80.252C21.9754 80.372 22.2394 80.4907 22.6207 80.608L23.5807 80.88C24.0714 81.016 24.4207 81.228 24.6287 81.516C24.8394 81.8013 24.9447 82.132 24.9447 82.508C24.9447 82.8147 24.8581 83.0867 24.6847 83.324C24.5114 83.5587 24.2674 83.744 23.9527 83.88C23.6407 84.0133 23.2794 84.08 22.8687 84.08ZM22.5087 84.836V83.804H23.1927V84.836H22.5087ZM22.5567 78.384V77.352H23.2407V78.384H22.5567ZM27.1503 84V79.396H26.0343V78.912C26.381 78.912 26.6503 78.8867 26.8423 78.836C27.0343 78.7853 27.1703 78.708 27.2503 78.604C27.333 78.5 27.3783 78.3707 27.3863 78.216H27.9143V84H27.1503ZM31.6042 84.088C30.9722 84.088 30.4708 83.84 30.1002 83.344C29.7295 82.8453 29.5442 82.108 29.5442 81.132C29.5442 80.4733 29.6295 79.9213 29.8002 79.476C29.9708 79.0307 30.2108 78.696 30.5202 78.472C30.8295 78.248 31.1935 78.136 31.6122 78.136C32.2388 78.136 32.7375 78.388 33.1082 78.892C33.4815 79.3933 33.6682 80.136 33.6682 81.12C33.6682 82.0987 33.4828 82.8387 33.1122 83.34C32.7415 83.8387 32.2388 84.088 31.6042 84.088ZM31.6122 83.448C32.0255 83.448 32.3375 83.2667 32.5482 82.904C32.7615 82.5387 32.8682 81.9453 32.8682 81.124C32.8682 80.2867 32.7602 79.684 32.5442 79.316C32.3308 78.9453 32.0188 78.76 31.6082 78.76C31.2002 78.76 30.8855 78.9467 30.6642 79.32C30.4455 79.6907 30.3362 80.292 30.3362 81.124C30.3362 81.9427 30.4455 82.5347 30.6642 82.9C30.8828 83.2653 31.1988 83.448 31.6122 83.448ZM36.6957 84.088C36.0637 84.088 35.5624 83.84 35.1917 83.344C34.8211 82.8453 34.6357 82.108 34.6357 81.132C34.6357 80.4733 34.7211 79.9213 34.8917 79.476C35.0624 79.0307 35.3024 78.696 35.6117 78.472C35.9211 78.248 36.2851 78.136 36.7037 78.136C37.3304 78.136 37.8291 78.388 38.1997 78.892C38.5731 79.3933 38.7597 80.136 38.7597 81.12C38.7597 82.0987 38.5744 82.8387 38.2037 83.34C37.8331 83.8387 37.3304 84.088 36.6957 84.088ZM36.7037 83.448C37.1171 83.448 37.4291 83.2667 37.6397 82.904C37.8531 82.5387 37.9597 81.9453 37.9597 81.124C37.9597 80.2867 37.8517 79.684 37.6357 79.316C37.4224 78.9453 37.1104 78.76 36.6997 78.76C36.2917 78.76 35.9771 78.9467 35.7557 79.32C35.5371 79.6907 35.4277 80.292 35.4277 81.124C35.4277 81.9427 35.5371 82.5347 35.7557 82.9C35.9744 83.2653 36.2904 83.448 36.7037 83.448ZM40.1542 84V78.216H40.9222V81.208L43.5142 78.216H44.3982L42.4662 80.488L44.5662 84H43.7302L41.9262 81.028L40.9222 82.176V84H40.1542Z" fill="white"/>
<path d="M22.732 49.08C22.1213 49.08 21.6147 48.9493 21.212 48.688C20.812 48.424 20.5733 48.0347 20.496 47.52L21.272 47.472C21.3573 47.7973 21.528 48.0413 21.784 48.204C22.04 48.3667 22.3547 48.448 22.728 48.448C22.952 48.448 23.1613 48.4093 23.356 48.332C23.5533 48.2547 23.712 48.1467 23.832 48.008C23.9547 47.8693 24.016 47.7053 24.016 47.516C24.016 47.2627 23.94 47.06 23.788 46.908C23.6387 46.756 23.4 46.636 23.072 46.548L22.076 46.288C21.6467 46.1787 21.3067 46.0067 21.056 45.772C20.8053 45.5373 20.6787 45.2227 20.676 44.828C20.6733 44.4947 20.76 44.2013 20.936 43.948C21.1147 43.6947 21.36 43.4973 21.672 43.356C21.9867 43.2147 22.3493 43.144 22.76 43.144C23.1547 43.144 23.4947 43.22 23.78 43.372C24.068 43.5213 24.2907 43.72 24.448 43.968C24.608 44.216 24.6933 44.4867 24.704 44.78L23.952 44.82C23.8933 44.476 23.7667 44.216 23.572 44.04C23.38 43.8613 23.1093 43.772 22.76 43.772C22.5947 43.772 22.4347 43.7933 22.28 43.836C22.128 43.876 21.9907 43.9373 21.868 44.02C21.748 44.1027 21.652 44.2053 21.58 44.328C21.508 44.4507 21.472 44.5933 21.472 44.756C21.472 44.964 21.5453 45.1293 21.692 45.252C21.8387 45.372 22.1027 45.4907 22.484 45.608L23.444 45.88C23.9347 46.016 24.284 46.228 24.492 46.516C24.7027 46.8013 24.808 47.132 24.808 47.508C24.808 47.8147 24.7213 48.0867 24.548 48.324C24.3747 48.5587 24.1307 48.744 23.816 48.88C23.504 49.0133 23.1427 49.08 22.732 49.08ZM22.372 49.836V48.804H23.056V49.836H22.372ZM22.42 43.384V42.352H23.104V43.384H22.42ZM27.0136 49V44.396H25.8976V43.912C26.2443 43.912 26.5136 43.8867 26.7056 43.836C26.8976 43.7853 27.0336 43.708 27.1136 43.604C27.1963 43.5 27.2416 43.3707 27.2496 43.216H27.7776V49H27.0136ZM31.6594 49.088C31.3021 49.088 30.9714 49.0253 30.6674 48.9C30.3634 48.7747 30.1021 48.6 29.8834 48.376C29.6674 48.152 29.5088 47.8947 29.4074 47.604L30.0474 47.336C30.1434 47.5547 30.2634 47.7493 30.4074 47.92C30.5541 48.0907 30.7274 48.224 30.9274 48.32C31.1274 48.416 31.3541 48.464 31.6074 48.464C32.0181 48.464 32.3474 48.3453 32.5954 48.108C32.8461 47.868 32.9714 47.5427 32.9714 47.132C32.9714 46.876 32.9128 46.6533 32.7954 46.464C32.6781 46.272 32.5194 46.1227 32.3194 46.016C32.1221 45.9093 31.9034 45.856 31.6634 45.856C31.5061 45.856 31.3594 45.8707 31.2234 45.9C31.0874 45.9267 30.9528 45.98 30.8194 46.06C30.6861 46.14 30.5461 46.2613 30.3994 46.424C30.3834 46.432 30.3714 46.436 30.3634 46.436C30.3554 46.4333 30.3421 46.428 30.3234 46.42L29.6994 46.224L29.9594 43.216H33.4114L33.3914 43.856H30.5914L30.4434 45.724C30.6354 45.5453 30.8448 45.4187 31.0714 45.344C31.3008 45.2667 31.5488 45.228 31.8154 45.228C32.1648 45.228 32.4861 45.3 32.7794 45.444C33.0754 45.5853 33.3128 45.796 33.4914 46.076C33.6701 46.3533 33.7594 46.6973 33.7594 47.108C33.7594 47.508 33.6728 47.856 33.4994 48.152C33.3261 48.448 33.0821 48.6787 32.7674 48.844C32.4528 49.0067 32.0834 49.088 31.6594 49.088ZM36.8324 49.088C36.2004 49.088 35.6991 48.84 35.3284 48.344C34.9578 47.8453 34.7724 47.108 34.7724 46.132C34.7724 45.4733 34.8578 44.9213 35.0284 44.476C35.1991 44.0307 35.4391 43.696 35.7484 43.472C36.0578 43.248 36.4218 43.136 36.8404 43.136C37.4671 43.136 37.9658 43.388 38.3364 43.892C38.7098 44.3933 38.8964 45.136 38.8964 46.12C38.8964 47.0987 38.7111 47.8387 38.3404 48.34C37.9698 48.8387 37.4671 49.088 36.8324 49.088ZM36.8404 48.448C37.2538 48.448 37.5658 48.2667 37.7764 47.904C37.9898 47.5387 38.0964 46.9453 38.0964 46.124C38.0964 45.2867 37.9884 44.684 37.7724 44.316C37.5591 43.9453 37.2471 43.76 36.8364 43.76C36.4284 43.76 36.1138 43.9467 35.8924 44.32C35.6738 44.6907 35.5644 45.292 35.5644 46.124C35.5644 46.9427 35.6738 47.5347 35.8924 47.9C36.1111 48.2653 36.4271 48.448 36.8404 48.448ZM40.2909 49V43.216H41.0589V46.208L43.6509 43.216H44.5349L42.6029 45.488L44.7029 49H43.8669L42.0629 46.028L41.0589 47.176V49H40.2909Z" fill="white"/>
<path d="M114.59 183V177.216H118.194L118.19 177.864H115.35V179.776H117.902V180.416H115.35V183H114.59ZM120.51 183.08C120.241 183.08 120.004 183.033 119.798 182.94C119.596 182.844 119.436 182.707 119.318 182.528C119.204 182.349 119.146 182.133 119.146 181.88C119.146 181.421 119.306 181.08 119.626 180.856C119.946 180.632 120.46 180.512 121.166 180.496L121.902 180.476V180.152C121.902 179.899 121.826 179.699 121.674 179.552C121.522 179.403 121.288 179.328 120.97 179.328C120.733 179.331 120.524 179.387 120.342 179.496C120.161 179.605 120.045 179.784 119.994 180.032H119.342C119.358 179.763 119.433 179.536 119.566 179.352C119.702 179.165 119.893 179.024 120.138 178.928C120.384 178.832 120.673 178.784 121.006 178.784C121.366 178.784 121.665 178.835 121.902 178.936C122.142 179.037 122.321 179.187 122.438 179.384C122.558 179.581 122.618 179.824 122.618 180.112V183H121.986L121.93 182.224C121.773 182.547 121.57 182.771 121.322 182.896C121.077 183.019 120.806 183.08 120.51 183.08ZM120.73 182.548C120.872 182.548 121.01 182.523 121.146 182.472C121.285 182.421 121.41 182.353 121.522 182.268C121.637 182.18 121.729 182.083 121.798 181.976C121.868 181.867 121.902 181.755 121.902 181.64V180.932L121.29 180.944C120.973 180.949 120.709 180.981 120.498 181.04C120.288 181.099 120.129 181.191 120.022 181.316C119.916 181.441 119.862 181.605 119.862 181.808C119.862 182.04 119.944 182.221 120.106 182.352C120.269 182.483 120.477 182.548 120.73 182.548ZM126.056 183.08C125.813 183.08 125.608 183.048 125.44 182.984C125.275 182.92 125.139 182.839 125.032 182.74C124.925 182.639 124.843 182.536 124.784 182.432C124.725 182.325 124.683 182.232 124.656 182.152L124.576 183H124.012V177.056H124.756V179.52C124.791 179.451 124.843 179.375 124.912 179.292C124.984 179.209 125.076 179.129 125.188 179.052C125.3 178.975 125.432 178.911 125.584 178.86C125.739 178.809 125.915 178.784 126.112 178.784C126.629 178.784 127.04 178.964 127.344 179.324C127.651 179.684 127.804 180.215 127.804 180.916C127.804 181.351 127.739 181.731 127.608 182.056C127.477 182.379 127.283 182.631 127.024 182.812C126.765 182.991 126.443 183.08 126.056 183.08ZM125.924 182.512C126.26 182.512 126.533 182.383 126.744 182.124C126.955 181.863 127.06 181.448 127.06 180.88C127.06 180.397 126.961 180.024 126.764 179.76C126.569 179.493 126.284 179.36 125.908 179.36C125.633 179.36 125.412 179.42 125.244 179.54C125.079 179.657 124.956 179.829 124.876 180.056C124.799 180.283 124.759 180.557 124.756 180.88C124.756 181.459 124.845 181.876 125.024 182.132C125.205 182.385 125.505 182.512 125.924 182.512Z" fill="white"/>
<path d="M181.219 184V178.216H182.243L183.987 182.992L185.755 178.216H186.775V184H186.011V179.324L184.335 184H183.643L181.979 179.368V184H181.219ZM189.53 184.08C189.26 184.08 189.023 184.033 188.818 183.94C188.615 183.844 188.455 183.707 188.338 183.528C188.223 183.349 188.166 183.133 188.166 182.88C188.166 182.421 188.326 182.08 188.646 181.856C188.966 181.632 189.479 181.512 190.186 181.496L190.922 181.476V181.152C190.922 180.899 190.846 180.699 190.694 180.552C190.542 180.403 190.307 180.328 189.99 180.328C189.752 180.331 189.543 180.387 189.362 180.496C189.18 180.605 189.064 180.784 189.014 181.032H188.362C188.378 180.763 188.452 180.536 188.586 180.352C188.722 180.165 188.912 180.024 189.158 179.928C189.403 179.832 189.692 179.784 190.026 179.784C190.386 179.784 190.684 179.835 190.922 179.936C191.162 180.037 191.34 180.187 191.458 180.384C191.578 180.581 191.638 180.824 191.638 181.112V184H191.006L190.95 183.224C190.792 183.547 190.59 183.771 190.342 183.896C190.096 184.019 189.826 184.08 189.53 184.08ZM189.75 183.548C189.891 183.548 190.03 183.523 190.166 183.472C190.304 183.421 190.43 183.353 190.542 183.268C190.656 183.18 190.748 183.083 190.818 182.976C190.887 182.867 190.922 182.755 190.922 182.64V181.932L190.31 181.944C189.992 181.949 189.728 181.981 189.518 182.04C189.307 182.099 189.148 182.191 189.042 182.316C188.935 182.441 188.882 182.605 188.882 182.808C188.882 183.04 188.963 183.221 189.126 183.352C189.288 183.483 189.496 183.548 189.75 183.548ZM193.032 184V179.864H193.736V180.66C193.805 180.463 193.902 180.3 194.028 180.172C194.153 180.041 194.296 179.944 194.456 179.88C194.618 179.816 194.786 179.784 194.96 179.784C195.021 179.784 195.081 179.788 195.14 179.796C195.198 179.804 195.244 179.817 195.276 179.836V180.552C195.236 180.533 195.184 180.521 195.12 180.516C195.058 180.508 195.006 180.504 194.964 180.504C194.798 180.493 194.644 180.504 194.5 180.536C194.356 180.565 194.229 180.617 194.12 180.692C194.01 180.767 193.924 180.865 193.86 180.988C193.798 181.108 193.768 181.255 193.768 181.428V184H193.032Z" fill="white"/>
<path d="M255.307 184L257.399 178.216H258.235L260.327 184H259.571L259.003 182.416H256.631L256.059 184H255.307ZM256.827 181.736H258.799L257.815 178.94L256.827 181.736ZM261.507 185.288V179.864H262.243L262.251 180.584C262.299 180.499 262.36 180.409 262.435 180.316C262.512 180.223 262.605 180.136 262.715 180.056C262.827 179.976 262.956 179.911 263.103 179.86C263.252 179.809 263.421 179.784 263.611 179.784C263.941 179.784 264.232 179.86 264.483 180.012C264.736 180.161 264.933 180.391 265.075 180.7C265.216 181.009 265.287 181.401 265.287 181.876C265.287 182.351 265.217 182.752 265.079 183.08C264.943 183.405 264.745 183.653 264.487 183.824C264.228 183.995 263.916 184.08 263.551 184.08C263.367 184.08 263.203 184.053 263.059 184C262.917 183.949 262.793 183.883 262.687 183.8C262.583 183.715 262.495 183.624 262.423 183.528C262.353 183.432 262.296 183.34 262.251 183.252V185.288H261.507ZM263.411 183.504C263.752 183.504 264.031 183.375 264.247 183.116C264.463 182.855 264.571 182.449 264.571 181.9C264.571 181.428 264.472 181.053 264.275 180.776C264.077 180.499 263.789 180.36 263.411 180.36C263.027 180.36 262.736 180.503 262.539 180.788C262.341 181.071 262.243 181.441 262.243 181.9C262.243 182.196 262.287 182.465 262.375 182.708C262.463 182.951 262.593 183.144 262.767 183.288C262.94 183.432 263.155 183.504 263.411 183.504ZM266.512 184V179.864H267.216V180.66C267.285 180.463 267.383 180.3 267.508 180.172C267.633 180.041 267.776 179.944 267.936 179.88C268.099 179.816 268.267 179.784 268.44 179.784C268.501 179.784 268.561 179.788 268.62 179.796C268.679 179.804 268.724 179.817 268.756 179.836V180.552C268.716 180.533 268.664 180.521 268.6 180.516C268.539 180.508 268.487 180.504 268.444 180.504C268.279 180.493 268.124 180.504 267.98 180.536C267.836 180.565 267.709 180.617 267.6 180.692C267.491 180.767 267.404 180.865 267.34 180.988C267.279 181.108 267.248 181.255 267.248 181.428V184H266.512Z" fill="white"/>
<defs>
<linearGradient id="paint0_linear_369_105" x1="156.5" y1="56" x2="156.5" y2="170.5" gradientUnits="userSpaceOnUse">
<stop stop-color="#E3DEDE"/>
<stop offset="1" stop-color="#7D7A7A" stop-opacity="0.2"/>
</linearGradient>
</defs>
</svg>
