<svg version="1.2" xmlns="http://www.w3.org/2000/svg" viewBox="0 0 328 427" width="328" height="427">
	<defs>
		<linearGradient id="g1" x2="1" gradientUnits="userSpaceOnUse" gradientTransform="matrix(-23.651,-422.086,309.16,-17.324,-730.44,439.817)">
			<stop offset="0" stop-color="#4e88cf"/>
			<stop offset=".455" stop-color="#4480c9"/>
			<stop offset="1" stop-color="#2c64ae"/>
		</linearGradient>
		<linearGradient id="g2" x2="1" gradientUnits="userSpaceOnUse" gradientTransform="matrix(0,52.206,-57.015,0,-394.433,49.995)">
			<stop offset="0" stop-color="#5692d7"/>
			<stop offset="1" stop-color="#000000"/>
		</linearGradient>
		<linearGradient id="g3" x2="1" gradientUnits="userSpaceOnUse" gradientTransform="matrix(3.456,-216.265,202.449,3.235,-612.299,379.217)">
			<stop offset="0" stop-color="#538dd4"/>
			<stop offset=".556" stop-color="#427dc5"/>
			<stop offset="1" stop-color="#9cc8f9"/>
		</linearGradient>
		<linearGradient id="g4" x2="1" gradientUnits="userSpaceOnUse" gradientTransform="matrix(3.934,56.309,-137.888,9.634,-459.424,349)">
			<stop offset="0" stop-color="#ffffff"/>
			<stop offset="1" stop-color="#2c64ae"/>
		</linearGradient>
		<linearGradient id="g5" x2="1" gradientUnits="userSpaceOnUse" gradientTransform="matrix(-101.565,-87.688,34.516,-39.978,-488.148,243.937)">
			<stop offset="0" stop-color="#ffffff"/>
			<stop offset="1" stop-color="#2c64ae"/>
		</linearGradient>
		<linearGradient id="g6" x2="1" gradientUnits="userSpaceOnUse" gradientTransform="matrix(11.262,-304.066,217.318,8.049,-660,454.801)">
			<stop offset="0" stop-color="#4e88cf"/>
			<stop offset=".455" stop-color="#4480c9"/>
			<stop offset="1" stop-color="#2c64ae"/>
		</linearGradient>
		<linearGradient id="g7" x2="1" gradientUnits="userSpaceOnUse" gradientTransform="matrix(0,452.381,-337.313,0,-292.234,84.896)">
			<stop offset="0" stop-color="#5692d7"/>
			<stop offset="1" stop-color="#000000"/>
		</linearGradient>
		<linearGradient id="g8" x2="1" gradientUnits="userSpaceOnUse" gradientTransform="matrix(-128.805,169.435,-43.558,-33.113,-383.413,171.77)">
			<stop offset="0" stop-color="#000715"/>
			<stop offset="1" stop-color="#b6dbff"/>
		</linearGradient>
		<linearGradient id="g9" x2="1" gradientUnits="userSpaceOnUse" gradientTransform="matrix(110.108,-218.13,448.671,226.48,-633.114,487.584)">
			<stop offset="0" stop-color="#ffffff"/>
			<stop offset="1" stop-color="#2c64ae"/>
		</linearGradient>
		<linearGradient id="g10" x2="1" gradientUnits="userSpaceOnUse" gradientTransform="matrix(-132.841,-210.44,402.202,-253.89,-415.046,508.963)">
			<stop offset="0" stop-color="#ffffff"/>
			<stop offset="1" stop-color="#2c64ae"/>
		</linearGradient>
		<linearGradient id="g11" x2="1" gradientUnits="userSpaceOnUse" gradientTransform="matrix(-142.785,-27.636,79.474,-410.617,-353.607,351.736)">
			<stop offset="0" stop-color="#ffffff"/>
			<stop offset="1" stop-color="#2c64ae"/>
		</linearGradient>
		<linearGradient id="g12" x2="1" gradientUnits="userSpaceOnUse" gradientTransform="matrix(-73.789,-194.153,283.183,-107.625,-518.231,447.151)">
			<stop offset="0" stop-color="#7db1ed"/>
			<stop offset="1" stop-color="#000000"/>
		</linearGradient>
		<linearGradient id="g13" x2="1" gradientUnits="userSpaceOnUse" gradientTransform="matrix(-133.198,-38.389,46.495,-161.323,-502.278,395.847)">
			<stop offset="0" stop-color="#7db1ed"/>
			<stop offset="1" stop-color="#000000"/>
		</linearGradient>
		<linearGradient id="g14" x2="1" gradientUnits="userSpaceOnUse" gradientTransform="matrix(1.677,-137.947,239.639,2.914,-602.868,308.519)">
			<stop offset="0" stop-color="#ffffff"/>
			<stop offset="1" stop-color="#2c64ae"/>
		</linearGradient>
		<linearGradient id="g15" x2="1" gradientUnits="userSpaceOnUse" gradientTransform="matrix(-5.273,-65.623,85.912,-6.904,-600.365,259.79)">
			<stop offset="0" stop-color="#7db1ed"/>
			<stop offset="1" stop-color="#000000"/>
		</linearGradient>
		<linearGradient id="g16" x2="1" gradientUnits="userSpaceOnUse" gradientTransform="matrix(31.072,173.459,-125.788,22.533,-373.109,143.697)">
			<stop offset="0" stop-color="#000715"/>
			<stop offset="1" stop-color="#2c64ae"/>
		</linearGradient>
		<linearGradient id="g17" x2="1" gradientUnits="userSpaceOnUse" gradientTransform="matrix(-169.101,-46.679,38.386,-139.059,-315.181,246.551)">
			<stop offset="0" stop-color="#7db1ed"/>
			<stop offset="1" stop-color="#000000"/>
		</linearGradient>
		<linearGradient id="g18" x2="1" gradientUnits="userSpaceOnUse" gradientTransform="matrix(5.362,12.512,-15.143,6.49,-493.459,374.302)">
			<stop offset="0" stop-color="#000715"/>
			<stop offset="1" stop-color="#2c64ae"/>
		</linearGradient>
		<linearGradient id="g19" x2="1" gradientUnits="userSpaceOnUse" gradientTransform="matrix(8.077,-67.47,36.863,4.413,-615.239,230.769)">
			<stop offset="0" stop-color="#4e88cf"/>
			<stop offset=".455" stop-color="#4480c9"/>
			<stop offset="1" stop-color="#2c64ae"/>
		</linearGradient>
		<linearGradient id="g20" x2="1" gradientUnits="userSpaceOnUse" gradientTransform="matrix(114.11,-153.161,10.593,7.892,-676.237,262.008)">
			<stop offset="0" stop-color="#000715"/>
			<stop offset="1" stop-color="#2c64ae"/>
		</linearGradient>
		<linearGradient id="g21" x2="1" gradientUnits="userSpaceOnUse" gradientTransform="matrix(113.562,-152.425,15.133,11.275,-653.657,277.561)">
			<stop offset="0" stop-color="#000715"/>
			<stop offset="1" stop-color="#2c64ae"/>
		</linearGradient>
		<linearGradient id="g22" x2="1" gradientUnits="userSpaceOnUse" gradientTransform="matrix(116.617,-156.526,32.279,24.049,-631.338,299.316)">
			<stop offset="0" stop-color="#000715"/>
			<stop offset="1" stop-color="#2c64ae"/>
		</linearGradient>
		<linearGradient id="g23" x2="1" gradientUnits="userSpaceOnUse" gradientTransform="matrix(66.146,137.804,-120.53,57.854,-439.05,-22.909)">
			<stop offset="0" stop-color="#000715"/>
			<stop offset="1" stop-color="#336eb7"/>
		</linearGradient>
		<linearGradient id="g24" x2="1" gradientUnits="userSpaceOnUse" gradientTransform="matrix(-2.941,-207.835,170.607,-2.414,-572.714,461.765)">
			<stop offset="0" stop-color="#7db1ed"/>
			<stop offset="1" stop-color="#000000"/>
		</linearGradient>
		<linearGradient id="g25" x2="1" gradientUnits="userSpaceOnUse" gradientTransform="matrix(-97.821,111.24,-54.125,-47.596,-344.626,190.358)">
			<stop offset="0" stop-color="#ffffff"/>
			<stop offset="1" stop-color="#2c64ae"/>
		</linearGradient>
		<linearGradient id="g26" x2="1" gradientUnits="userSpaceOnUse" gradientTransform="matrix(91.731,-88.126,62.126,64.667,-477.111,319.282)">
			<stop offset="0" stop-color="#ffffff"/>
			<stop offset="1" stop-color="#2c64ae"/>
		</linearGradient>
		<linearGradient id="g27" x2="1" gradientUnits="userSpaceOnUse" gradientTransform="matrix(0,-105.114,138.007,0,-549.525,458.935)">
			<stop offset="0" stop-color="#5e98dd"/>
			<stop offset="1" stop-color="#5e98dd"/>
		</linearGradient>
		<linearGradient id="g28" x2="1" gradientUnits="userSpaceOnUse" gradientTransform="matrix(-92.242,397.827,-319.989,-74.194,1078.606,60.196)">
			<stop offset=".085" stop-color="#0f346c"/>
			<stop offset=".511" stop-color="#3a74be"/>
			<stop offset="1" stop-color="#5692d7"/>
		</linearGradient>
		<linearGradient id="g29" x2="1" gradientUnits="userSpaceOnUse" gradientTransform="matrix(.785,-246.437,398.12,1.268,803.883,237.641)">
			<stop offset="0" stop-color="#72aae9"/>
			<stop offset="1" stop-color="#21559b"/>
		</linearGradient>
		<linearGradient id="g30" x2="1" gradientUnits="userSpaceOnUse" gradientTransform="matrix(-17.133,187.53,-179.501,-16.4,842.115,223.899)">
			<stop offset=".085" stop-color="#0f346c"/>
			<stop offset=".511" stop-color="#3a74be"/>
			<stop offset="1" stop-color="#5692d7"/>
		</linearGradient>
		<linearGradient id="g31" x2="1" gradientUnits="userSpaceOnUse" gradientTransform="matrix(-109.909,184.134,-133.517,-79.696,1089.021,146.486)">
			<stop offset="0" stop-color="#3973bd"/>
			<stop offset="1" stop-color="#3973bd"/>
		</linearGradient>
		<linearGradient id="g32" x2="1" gradientUnits="userSpaceOnUse" gradientTransform="matrix(221.286,8.495,-7.326,190.831,822.539,87.116)">
			<stop offset="0" stop-color="#3973bd"/>
			<stop offset="1" stop-color="#3973bd"/>
		</linearGradient>
		<linearGradient id="g33" x2="1" gradientUnits="userSpaceOnUse" gradientTransform="matrix(-13.876,83.634,-105.532,-17.509,908.348,207.977)">
			<stop offset="0" stop-color="#000208"/>
			<stop offset="1" stop-color="#89bbf2"/>
		</linearGradient>
		<linearGradient id="g34" x2="1" gradientUnits="userSpaceOnUse" gradientTransform="matrix(-19.453,-218.935,413.663,-36.755,838.45,323.997)">
			<stop offset="0" stop-color="#7fb3ee"/>
			<stop offset="1" stop-color="#000000"/>
		</linearGradient>
		<linearGradient id="g35" x2="1" gradientUnits="userSpaceOnUse" gradientTransform="matrix(-11.959,79.443,-105.606,-15.898,844.15,313.419)">
			<stop offset="0" stop-color="#000208"/>
			<stop offset="1" stop-color="#89bbf2"/>
		</linearGradient>
		<linearGradient id="g36" x2="1" gradientUnits="userSpaceOnUse" gradientTransform="matrix(21.657,250.898,-359.749,31.053,879.943,-5.801)">
			<stop offset="0" stop-color="#000000"/>
			<stop offset="1" stop-color="#7fb3ee"/>
		</linearGradient>
		<linearGradient id="g37" x2="1" gradientUnits="userSpaceOnUse" gradientTransform="matrix(3.982,46.127,-448.962,38.754,772.094,222.696)">
			<stop offset="0" stop-color="#000000"/>
			<stop offset="1" stop-color="#7fb3ee"/>
		</linearGradient>
		<linearGradient id="g38" x2="1" gradientUnits="userSpaceOnUse" gradientTransform="matrix(-30.838,-180.121,388.362,-66.49,820.749,269.991)">
			<stop offset=".017" stop-color="#72aae9"/>
			<stop offset="1" stop-color="#000000"/>
		</linearGradient>
		<linearGradient id="g39" x2="1" gradientUnits="userSpaceOnUse" gradientTransform="matrix(12.834,148.68,-301.466,26.022,872.543,20.868)">
			<stop offset="0" stop-color="#000000"/>
			<stop offset="1" stop-color="#7fb3ee"/>
		</linearGradient>
		<linearGradient id="g40" x2="1" gradientUnits="userSpaceOnUse" gradientTransform="matrix(-74.284,-16.962,55.504,-243.07,726.064,301.397)">
			<stop offset="0" stop-color="#f8ffff"/>
			<stop offset=".994" stop-color="#f8ffff"/>
		</linearGradient>
		<linearGradient id="g41" x2="1" gradientUnits="userSpaceOnUse" gradientTransform="matrix(266.723,-180.683,63.203,93.299,639.616,281.718)">
			<stop offset="0" stop-color="#7fb3ee"/>
			<stop offset="1" stop-color="#000000"/>
		</linearGradient>
		<linearGradient id="g42" x2="1" gradientUnits="userSpaceOnUse" gradientTransform="matrix(1.349,58.391,-83.588,1.931,864.889,312.018)">
			<stop offset="0" stop-color="#f8ffff"/>
			<stop offset=".994" stop-color="#f8ffff"/>
		</linearGradient>
		<linearGradient id="g43" x2="1" gradientUnits="userSpaceOnUse" gradientTransform="matrix(5.436,102.197,-106.802,5.681,812.673,241.791)">
			<stop offset="0" stop-color="#f8ffff"/>
			<stop offset=".994" stop-color="#f8ffff"/>
		</linearGradient>
		<linearGradient id="g44" x2="1" gradientUnits="userSpaceOnUse" gradientTransform="matrix(2.186,25.328,-220.335,19.019,807.425,62.437)">
			<stop offset="0" stop-color="#000000"/>
			<stop offset="1" stop-color="#7fb3ee"/>
		</linearGradient>
		<linearGradient id="g45" x2="1" gradientUnits="userSpaceOnUse" gradientTransform="matrix(-101.601,60.208,-49.09,-82.839,894.683,193.667)">
			<stop offset="0" stop-color="#000000"/>
			<stop offset="1" stop-color="#7fb3ee"/>
		</linearGradient>
		<linearGradient id="g46" x2="1" gradientUnits="userSpaceOnUse" gradientTransform="matrix(-225.485,413.831,-307.502,-167.549,144.788,128.002)">
			<stop offset="0" stop-color="#19498b"/>
			<stop offset=".601" stop-color="#2c64ae"/>
			<stop offset=".825" stop-color="#427dc5"/>
			<stop offset="1" stop-color="#5e98dd"/>
		</linearGradient>
		<linearGradient id="g47" x2="1" gradientUnits="userSpaceOnUse" gradientTransform="matrix(59.176,296.967,-286.121,57.015,-26.699,83.949)">
			<stop offset="0" stop-color="#5793d8"/>
			<stop offset="1" stop-color="#000000"/>
		</linearGradient>
		<linearGradient id="g48" x2="1" gradientUnits="userSpaceOnUse" gradientTransform="matrix(26.297,120.415,-198.463,43.342,-99.711,76.072)">
			<stop offset="0" stop-color="#74abea"/>
			<stop offset="1" stop-color="#000000"/>
		</linearGradient>
		<linearGradient id="g49" x2="1" gradientUnits="userSpaceOnUse" gradientTransform="matrix(17.884,38.322,-26.096,12.178,-122.98,67.058)">
			<stop offset="0" stop-color="#5793d8"/>
			<stop offset="1" stop-color="#000000"/>
		</linearGradient>
		<linearGradient id="g50" x2="1" gradientUnits="userSpaceOnUse" gradientTransform="matrix(-123.336,160.054,-97.726,-75.306,22.834,93.489)">
			<stop offset="0" stop-color="#74abea"/>
			<stop offset="1" stop-color="#000000"/>
		</linearGradient>
		<radialGradient id="g51" cx="0" cy="0" r="1" gradientUnits="userSpaceOnUse" gradientTransform="matrix(19.233,16.414,-16.414,19.233,-167.06,338.572)">
			<stop offset=".011" stop-color="#7db1ed"/>
			<stop offset="1" stop-color="#000000"/>
		</radialGradient>
		<linearGradient id="g52" x2="1" gradientUnits="userSpaceOnUse" gradientTransform="matrix(37.231,239.261,-213.364,33.201,677.326,122.533)">
			<stop offset="0" stop-color="#5692d7"/>
			<stop offset=".583" stop-color="#8ebef4"/>
			<stop offset="1" stop-color="#71a9e8"/>
		</linearGradient>
		<linearGradient id="g53" x2="1" gradientUnits="userSpaceOnUse" gradientTransform="matrix(338.093,338.093,-480.613,480.613,423.648,-52.186)">
			<stop offset="0" stop-color="#5793d8"/>
			<stop offset="1" stop-color="#6ba4e4"/>
		</linearGradient>
		<linearGradient id="g54" x2="1" gradientUnits="userSpaceOnUse" gradientTransform="matrix(118.926,118.926,-48.423,48.423,548.548,21.232)">
			<stop offset="0" stop-color="#5793d8"/>
			<stop offset="1" stop-color="#6ba4e4"/>
		</linearGradient>
		<linearGradient id="g55" x2="1" gradientUnits="userSpaceOnUse" gradientTransform="matrix(-1.75,-123.637,88.126,-1.247,331.469,255.974)">
			<stop offset="0" stop-color="#a8d1fb"/>
			<stop offset="1" stop-color="#000000"/>
		</linearGradient>
		<linearGradient id="g56" x2="1" gradientUnits="userSpaceOnUse" gradientTransform="matrix(-76.62,-232.538,335.673,-110.602,459.501,428.002)">
			<stop offset="0" stop-color="#6ba4e4"/>
			<stop offset="1" stop-color="#000000"/>
		</linearGradient>
		<linearGradient id="g57" x2="1" gradientUnits="userSpaceOnUse" gradientTransform="matrix(160.553,0,0,193.502,397.081,117.409)">
			<stop offset="0" stop-color="#5793d8"/>
			<stop offset="1" stop-color="#6ba4e4"/>
		</linearGradient>
		<linearGradient id="g58" x2="1" gradientUnits="userSpaceOnUse" gradientTransform="matrix(35.35,0,0,111.041,369.98,178.999)">
			<stop offset="0" stop-color="#5793d8"/>
			<stop offset="1" stop-color="#6ba4e4"/>
		</linearGradient>
		<linearGradient id="g59" x2="1" gradientUnits="userSpaceOnUse" gradientTransform="matrix(195.78,-155.174,11.599,14.634,287.293,182.801)">
			<stop offset="0" stop-color="#92c2f5"/>
			<stop offset="1" stop-color="#000000"/>
		</linearGradient>
		<linearGradient id="g60" x2="1" gradientUnits="userSpaceOnUse" gradientTransform="matrix(17.632,0,0,54.73,374.746,282.099)">
			<stop offset="0" stop-color="#5793d8"/>
			<stop offset="1" stop-color="#6ba4e4"/>
		</linearGradient>
		<linearGradient id="g61" x2="1" gradientUnits="userSpaceOnUse" gradientTransform="matrix(43.57,-56.493,28.37,21.88,468.068,404.732)">
			<stop offset="0" stop-color="#92c2f5"/>
			<stop offset="1" stop-color="#000000"/>
		</linearGradient>
		<linearGradient id="g62" x2="1" gradientUnits="userSpaceOnUse" gradientTransform="matrix(-19.638,105.185,-94.444,-17.633,613.243,224.258)">
			<stop offset="0" stop-color="#92c2f5"/>
			<stop offset="1" stop-color="#000000"/>
		</linearGradient>
		<linearGradient id="g63" x2="1" gradientUnits="userSpaceOnUse" gradientTransform="matrix(52.393,52.393,-85.191,85.191,497.98,65.54)">
			<stop offset="0" stop-color="#5793d8"/>
			<stop offset="1" stop-color="#6ba4e4"/>
		</linearGradient>
		<linearGradient id="g64" x2="1" gradientUnits="userSpaceOnUse" gradientTransform="matrix(71.452,133.216,-130.135,69.8,586.575,9.865)">
			<stop offset="0" stop-color="#92c2f5"/>
			<stop offset="1" stop-color="#000000"/>
		</linearGradient>
		<linearGradient id="g65" x2="1" gradientUnits="userSpaceOnUse" gradientTransform="matrix(-6.524,-43.889,70.281,-10.447,502.139,363.573)">
			<stop offset="0" stop-color="#5793d8"/>
			<stop offset="1" stop-color="#6ba4e4"/>
		</linearGradient>
		<linearGradient id="g66" x2="1" gradientUnits="userSpaceOnUse" gradientTransform="matrix(-5.308,-35.711,66.007,-9.812,499.222,356.105)">
			<stop offset="0" stop-color="#5793d8"/>
			<stop offset="1" stop-color="#6ba4e4"/>
		</linearGradient>
		<linearGradient id="g67" x2="1" gradientUnits="userSpaceOnUse" gradientTransform="matrix(167.501,242.654,-303.067,209.204,-741.57,-115.725)">
			<stop offset="0" stop-color="#82b5ee"/>
			<stop offset="1" stop-color="#000000"/>
		</linearGradient>
		<linearGradient id="g68" x2="1" gradientUnits="userSpaceOnUse" gradientTransform="matrix(303.892,-296.41,214.24,219.648,-1159.186,215.336)">
			<stop offset="0" stop-color="#d5eeff"/>
			<stop offset="1" stop-color="#72aae9"/>
		</linearGradient>
		<linearGradient id="g69" x2="1" gradientUnits="userSpaceOnUse" gradientTransform="matrix(303.887,-296.405,214.24,219.648,-1159.183,215.332)">
			<stop offset="0" stop-color="#d5eeff"/>
			<stop offset="1" stop-color="#72aae9"/>
		</linearGradient>
		<linearGradient id="g70" x2="1" gradientUnits="userSpaceOnUse" gradientTransform="matrix(0,212.741,-162.002,0,-611.416,129.997)">
			<stop offset=".085" stop-color="#5a95da"/>
			<stop offset=".511" stop-color="#679fe1"/>
			<stop offset=".804" stop-color="#6ba4e4"/>
			<stop offset="1" stop-color="#78aeeb"/>
		</linearGradient>
		<linearGradient id="g71" x2="1" gradientUnits="userSpaceOnUse" gradientTransform="matrix(2.559,120.255,-113.585,2.417,-756.017,248.895)">
			<stop offset=".24" stop-color="#00050f"/>
			<stop offset="1" stop-color="#9cc8f9"/>
		</linearGradient>
		<linearGradient id="g72" x2="1" gradientUnits="userSpaceOnUse" gradientTransform="matrix(0,249.313,-233.665,0,-687.816,139.262)">
			<stop offset="0" stop-color="#5793d8"/>
			<stop offset="1" stop-color="#538dd4"/>
		</linearGradient>
		<linearGradient id="g73" x2="1" gradientUnits="userSpaceOnUse" gradientTransform="matrix(0,-246.116,166.269,0,-991.316,363.782)">
			<stop offset=".085" stop-color="#5a95da"/>
			<stop offset=".511" stop-color="#679fe1"/>
			<stop offset=".804" stop-color="#6ba4e4"/>
			<stop offset="1" stop-color="#78aeeb"/>
		</linearGradient>
		<linearGradient id="g74" x2="1" gradientUnits="userSpaceOnUse" gradientTransform="matrix(-11.222,-71.202,72.687,-11.456,-956.866,208.748)">
			<stop offset="0" stop-color="#000000"/>
			<stop offset="1" stop-color="#6ca5e6"/>
		</linearGradient>
		<linearGradient id="g75" x2="1" gradientUnits="userSpaceOnUse" gradientTransform="matrix(-112.717,127.93,-65.663,-57.855,-732.3,103.308)">
			<stop offset="0" stop-color="#000000"/>
			<stop offset="1" stop-color="#649ee1"/>
		</linearGradient>
		<linearGradient id="g76" x2="1" gradientUnits="userSpaceOnUse" gradientTransform="matrix(-132.242,-49.119,50.137,-134.983,-689.139,180.394)">
			<stop offset="0" stop-color="#5793d8"/>
			<stop offset="1" stop-color="#538dd4"/>
		</linearGradient>
		<linearGradient id="g77" x2="1" gradientUnits="userSpaceOnUse" gradientTransform="matrix(62.075,-69.389,80.19,71.737,-978.648,198.747)">
			<stop offset=".24" stop-color="#00050f"/>
			<stop offset=".983" stop-color="#508ad2"/>
		</linearGradient>
		<linearGradient id="g78" x2="1" gradientUnits="userSpaceOnUse" gradientTransform="matrix(162.814,-448.266,149.693,54.37,-1114.525,576.402)">
			<stop offset="0" stop-color="#5793d8"/>
			<stop offset="1" stop-color="#538dd4"/>
		</linearGradient>
		<linearGradient id="g79" x2="1" gradientUnits="userSpaceOnUse" gradientTransform="matrix(151.863,-418.115,134.243,48.758,-1003.055,486.35)">
			<stop offset=".24" stop-color="#00050f"/>
			<stop offset=".983" stop-color="#508ad2"/>
		</linearGradient>
		<linearGradient id="g80" x2="1" gradientUnits="userSpaceOnUse" gradientTransform="matrix(142.96,0,0,75.731,-886.177,105.707)">
			<stop offset=".24" stop-color="#00050f"/>
			<stop offset="1" stop-color="#9cc8f9"/>
		</linearGradient>
		<linearGradient id="g81" x2="1" gradientUnits="userSpaceOnUse" gradientTransform="matrix(34.062,143.613,-138.043,32.741,-814.084,196.886)">
			<stop offset="0" stop-color="#000000"/>
			<stop offset=".994" stop-color="#336eb7"/>
		</linearGradient>
		<linearGradient id="g82" x2="1" gradientUnits="userSpaceOnUse" gradientTransform="matrix(-3.41,-129.973,18.352,-0.482,-1214.237,383.68)">
			<stop offset=".24" stop-color="#00050f"/>
			<stop offset=".983" stop-color="#508ad2"/>
		</linearGradient>
		<linearGradient id="g83" x2="1" gradientUnits="userSpaceOnUse" gradientTransform="matrix(154.386,-41.921,8.466,31.178,-968.355,102.81)">
			<stop offset=".24" stop-color="#00050f"/>
			<stop offset="1" stop-color="#9cc8f9"/>
		</linearGradient>
		<linearGradient id="g84" x2="1" gradientUnits="userSpaceOnUse" gradientTransform="matrix(.459,88.214,-75.081,.391,-760.929,272.645)">
			<stop offset="0" stop-color="#5793d8"/>
			<stop offset="1" stop-color="#538dd4"/>
		</linearGradient>
		<linearGradient id="g85" x2="1" gradientUnits="userSpaceOnUse" gradientTransform="matrix(95.07,-92.73,25.66,26.308,-907.581,192.362)">
			<stop offset=".24" stop-color="#00050f"/>
			<stop offset="1" stop-color="#9cc8f9"/>
		</linearGradient>
		<linearGradient id="g86" x2="1" gradientUnits="userSpaceOnUse" gradientTransform="matrix(-174.074,-21.284,55.351,-452.69,-699.391,358.694)">
			<stop offset=".24" stop-color="#00050f"/>
			<stop offset="1" stop-color="#9cc8f9"/>
		</linearGradient>
		<linearGradient id="g87" x2="1" gradientUnits="userSpaceOnUse" gradientTransform="matrix(-93.259,43.965,-133.815,-283.85,-779.853,314.69)">
			<stop offset=".24" stop-color="#00050f"/>
			<stop offset="1" stop-color="#9cc8f9"/>
		</linearGradient>
		<linearGradient id="g88" x2="1" gradientUnits="userSpaceOnUse" gradientTransform="matrix(-126.567,115.132,-27.184,-29.884,-751.053,156.623)">
			<stop offset=".24" stop-color="#00050f"/>
			<stop offset="1" stop-color="#9cc8f9"/>
		</linearGradient>
		<linearGradient id="g89" x2="1" gradientUnits="userSpaceOnUse" gradientTransform="matrix(-126.161,114.763,-23.3,-25.614,-755.611,150.567)">
			<stop offset=".24" stop-color="#00050f"/>
			<stop offset="1" stop-color="#9cc8f9"/>
		</linearGradient>
		<linearGradient id="g90" x2="1" gradientUnits="userSpaceOnUse" gradientTransform="matrix(65.333,-43.612,46.625,69.846,-805.662,71.612)">
			<stop offset="0" stop-color="#82b5ee"/>
			<stop offset="1" stop-color="#000000"/>
		</linearGradient>
		<linearGradient id="g91" x2="1" gradientUnits="userSpaceOnUse" gradientTransform="matrix(-12.445,39.113,-21.3,-6.777,-667.153,136.411)">
			<stop offset=".24" stop-color="#00050f"/>
			<stop offset="1" stop-color="#9cc8f9"/>
		</linearGradient>
		<linearGradient id="g92" x2="1" gradientUnits="userSpaceOnUse" gradientTransform="matrix(-140.841,-310.491,282.063,-127.946,-1065.401,466.405)">
			<stop offset=".24" stop-color="#00050f"/>
			<stop offset="1" stop-color="#9cc8f9"/>
		</linearGradient>
		<linearGradient id="g93" x2="1" gradientUnits="userSpaceOnUse" gradientTransform="matrix(83.387,58.861,-170.984,242.227,-757.151,121.799)">
			<stop offset=".24" stop-color="#00050f"/>
			<stop offset=".983" stop-color="#508ad2"/>
		</linearGradient>
		<linearGradient id="g94" x2="1" gradientUnits="userSpaceOnUse" gradientTransform="matrix(-120.658,115.559,-63.53,-66.333,-636.013,307.305)">
			<stop offset="0" stop-color="#82b5ee"/>
			<stop offset="1" stop-color="#000000"/>
		</linearGradient>
		<linearGradient id="g95" x2="1" gradientUnits="userSpaceOnUse" gradientTransform="matrix(246.807,-173.467,734.12,1044.5,-913.361,174.532)">
			<stop offset="0" stop-color="#82b5ee"/>
			<stop offset="1" stop-color="#000000"/>
		</linearGradient>
		<linearGradient id="g96" x2="1" gradientUnits="userSpaceOnUse" gradientTransform="matrix(19.903,121.819,-9.553,1.561,-517.757,135.481)">
			<stop offset=".24" stop-color="#00050f"/>
			<stop offset="1" stop-color="#9cc8f9"/>
		</linearGradient>
		<linearGradient id="g97" x2="1" gradientUnits="userSpaceOnUse" gradientTransform="matrix(-64.55,63.267,-32.857,-33.523,-838.369,219.873)">
			<stop offset=".24" stop-color="#00050f"/>
			<stop offset="1" stop-color="#9cc8f9"/>
		</linearGradient>
		<linearGradient id="g98" x2="1" gradientUnits="userSpaceOnUse" gradientTransform="matrix(8.997,71.499,-87.924,11.063,-692.61,320.371)">
			<stop offset=".24" stop-color="#00050f"/>
			<stop offset=".983" stop-color="#508ad2"/>
		</linearGradient>
		<linearGradient id="g99" x2="1" gradientUnits="userSpaceOnUse" gradientTransform="matrix(5.87,46.655,-79.651,10.022,-772.82,170.974)">
			<stop offset="0" stop-color="#82b5ee"/>
			<stop offset="1" stop-color="#000000"/>
		</linearGradient>
		<linearGradient id="g100" x2="1" gradientUnits="userSpaceOnUse" gradientTransform="matrix(-7.986,94.897,-73.733,-6.205,-795.281,219.751)">
			<stop offset="0" stop-color="#5793d8"/>
			<stop offset="1" stop-color="#538dd4"/>
		</linearGradient>
		<linearGradient id="g101" x2="1" gradientUnits="userSpaceOnUse" gradientTransform="matrix(32.029,65.374,-97.342,47.691,-715.045,105.822)">
			<stop offset=".24" stop-color="#00050f"/>
			<stop offset="1" stop-color="#9cc8f9"/>
		</linearGradient>
		<linearGradient id="g102" x2="1" gradientUnits="userSpaceOnUse" gradientTransform="matrix(45.65,-13.939,1.595,5.222,-763.496,151.603)">
			<stop offset="0" stop-color="#82b5ee"/>
			<stop offset="1" stop-color="#000000"/>
		</linearGradient>
		<linearGradient id="g103" x2="1" gradientUnits="userSpaceOnUse" gradientTransform="matrix(10.743,303.957,-222.104,7.85,383.943,81.247)">
			<stop offset="0" stop-color="#538dd4"/>
			<stop offset=".463" stop-color="#194889"/>
			<stop offset=".799" stop-color="#639de0"/>
			<stop offset="1" stop-color="#9bc7f7"/>
		</linearGradient>
		<linearGradient id="g104" x2="1" gradientUnits="userSpaceOnUse" gradientTransform="matrix(10.743,303.956,-222.1,7.85,383.944,81.245)">
			<stop offset="0" stop-color="#538dd4"/>
			<stop offset=".463" stop-color="#194889"/>
			<stop offset=".799" stop-color="#639de0"/>
			<stop offset="1" stop-color="#9bc7f7"/>
		</linearGradient>
		<linearGradient id="g105" x2="1" gradientUnits="userSpaceOnUse" gradientTransform="matrix(10.743,303.956,-222.1,7.85,383.944,81.245)">
			<stop offset="0" stop-color="#538dd4"/>
			<stop offset=".463" stop-color="#194889"/>
			<stop offset=".799" stop-color="#639de0"/>
			<stop offset="1" stop-color="#9bc7f7"/>
		</linearGradient>
		<linearGradient id="g106" x2="1" gradientUnits="userSpaceOnUse" gradientTransform="matrix(6.441,87.597,-64.134,4.716,381.779,47.248)">
			<stop offset="0" stop-color="#5692d7"/>
			<stop offset=".985" stop-color="#000000"/>
		</linearGradient>
		<linearGradient id="g107" x2="1" gradientUnits="userSpaceOnUse" gradientTransform="matrix(1.247,160,-103.391,.806,391.775,72.458)">
			<stop offset=".017" stop-color="#72aae9"/>
			<stop offset="1" stop-color="#000000"/>
		</linearGradient>
		<linearGradient id="g108" x2="1" gradientUnits="userSpaceOnUse" gradientTransform="matrix(248.811,-179.697,409.66,567.221,-170.137,312.417)">
			<stop offset="0" stop-color="#ffffff"/>
			<stop offset="1" stop-color="#326db6"/>
		</linearGradient>
		<linearGradient id="g109" x2="1" gradientUnits="userSpaceOnUse" gradientTransform="matrix(-83.072,-189.098,206.227,-90.597,67.743,497.28)">
			<stop offset="0" stop-color="#ffffff"/>
			<stop offset="1" stop-color="#326db6"/>
		</linearGradient>
		<linearGradient id="g110" x2="1" gradientUnits="userSpaceOnUse" gradientTransform="matrix(75.673,0,0,39.047,184.148,193.969)">
			<stop offset="0" stop-color="#000000"/>
			<stop offset="1" stop-color="#6ea6e6"/>
		</linearGradient>
		<linearGradient id="g111" x2="1" gradientUnits="userSpaceOnUse" gradientTransform="matrix(121.331,-113.242,179.384,192.197,18.268,274.171)">
			<stop offset="0" stop-color="#000000"/>
			<stop offset="1" stop-color="#6ea6e6"/>
		</linearGradient>
		<linearGradient id="g112" x2="1" gradientUnits="userSpaceOnUse" gradientTransform="matrix(-42.887,89.347,-143.633,-68.944,320.717,128.761)">
			<stop offset="0" stop-color="#000000"/>
			<stop offset=".992" stop-color="#ffffff"/>
		</linearGradient>
		<linearGradient id="g113" x2="1" gradientUnits="userSpaceOnUse" gradientTransform="matrix(92.873,165.845,-37.068,20.758,220.608,138.195)">
			<stop offset="0" stop-color="#b9dcff"/>
			<stop offset=".986" stop-color="#b9dcff"/>
		</linearGradient>
		<linearGradient id="g114" x2="1" gradientUnits="userSpaceOnUse" gradientTransform="matrix(15.154,0,0,36.012,167.389,361.469)">
			<stop offset=".017" stop-color="#72aae9"/>
			<stop offset="1" stop-color="#000000"/>
		</linearGradient>
		<linearGradient id="g115" x2="1" gradientUnits="userSpaceOnUse" gradientTransform="matrix(-98.165,-260.197,215.542,-81.318,177.567,327.253)">
			<stop offset=".125" stop-color="#5a95da"/>
			<stop offset="1" stop-color="#000000"/>
		</linearGradient>
		<radialGradient id="g116" cx="0" cy="0" r="1" gradientUnits="userSpaceOnUse" gradientTransform="matrix(18.68,0,0,18.68,180.109,230.701)">
			<stop offset="0" stop-color="#7fb3ee"/>
			<stop offset="1" stop-color="#000000"/>
		</radialGradient>
		<radialGradient id="g117" cx="0" cy="0" r="1" gradientUnits="userSpaceOnUse" gradientTransform="matrix(7.724,0,0,7.724,180.109,230.701)">
			<stop offset=".587" stop-color="#8cbdf3"/>
			<stop offset="1" stop-color="#000000"/>
		</radialGradient>
		<radialGradient id="g118" cx="0" cy="0" r="1" gradientUnits="userSpaceOnUse" gradientTransform="matrix(4.091,0,0,4.091,180.109,230.701)">
			<stop offset=".838" stop-color="#ffffff"/>
			<stop offset="1" stop-color="#000000"/>
		</radialGradient>
		<radialGradient id="g119" cx="0" cy="0" r="1" gradientUnits="userSpaceOnUse" gradientTransform="matrix(10.031,-1.336,1.336,10.031,171.232,162.545)">
			<stop offset="0" stop-color="#7fb3ee"/>
			<stop offset="1" stop-color="#000000"/>
		</radialGradient>
		<radialGradient id="g120" cx="0" cy="0" r="1" gradientUnits="userSpaceOnUse" gradientTransform="matrix(4.148,-0.552,.552,4.148,171.232,162.545)">
			<stop offset=".587" stop-color="#8cbdf3"/>
			<stop offset="1" stop-color="#000000"/>
		</radialGradient>
		<radialGradient id="g121" cx="0" cy="0" r="1" gradientUnits="userSpaceOnUse" gradientTransform="matrix(2.197,-0.293,.293,2.197,171.232,162.545)">
			<stop offset=".838" stop-color="#ffffff"/>
			<stop offset="1" stop-color="#000000"/>
		</radialGradient>
	</defs>
	<style>
		.s0 { fill: url(#g1) } 
		.s1 { mix-blend-mode: color-dodge;fill: url(#g2) } 
		.s2 { fill: url(#g3) } 
		.s3 { mix-blend-mode: multiply;fill: url(#g4) } 
		.s4 { mix-blend-mode: multiply;fill: url(#g5) } 
		.s5 { fill: url(#g6) } 
		.s6 { mix-blend-mode: color-dodge;fill: url(#g7) } 
		.s7 { mix-blend-mode: screen;fill: url(#g8) } 
		.s8 { fill: #cae8ff } 
		.s9 { mix-blend-mode: multiply;fill: url(#g9) } 
		.s10 { mix-blend-mode: multiply;fill: url(#g10) } 
		.s11 { mix-blend-mode: multiply;fill: url(#g11) } 
		.s12 { opacity: .35;mix-blend-mode: color-dodge;fill: #7db1ed } 
		.s13 { mix-blend-mode: screen;fill: url(#g12) } 
		.s14 { fill: #f8ffff } 
		.s15 { mix-blend-mode: screen;fill: url(#g13) } 
		.s16 { mix-blend-mode: multiply;fill: url(#g14) } 
		.s17 { mix-blend-mode: screen;fill: url(#g15) } 
		.s18 { mix-blend-mode: screen;fill: url(#g16) } 
		.s19 { mix-blend-mode: screen;fill: url(#g17) } 
		.s20 { mix-blend-mode: screen;fill: url(#g18) } 
		.s21 { fill: url(#g19) } 
		.s22 { fill: #ddf4ff } 
		.s23 { fill: url(#g20) } 
		.s24 { fill: url(#g21) } 
		.s25 { fill: url(#g22) } 
		.s26 { fill: #ffffff } 
		.s27 { mix-blend-mode: screen;fill: url(#g23) } 
		.s28 { mix-blend-mode: screen;fill: url(#g24) } 
		.s29 { mix-blend-mode: multiply;fill: url(#g25) } 
		.s30 { mix-blend-mode: multiply;fill: url(#g26) } 
		.s31 { mix-blend-mode: screen;fill: url(#g27) } 
		.s32 { fill: url(#g28) } 
		.s33 { fill: url(#g29) } 
		.s34 { fill: url(#g30) } 
		.s35 { mix-blend-mode: multiply;fill: url(#g31) } 
		.s36 { mix-blend-mode: color-dodge;fill: url(#g32) } 
		.s37 { mix-blend-mode: screen;fill: url(#g33) } 
		.s38 { opacity: .5;mix-blend-mode: multiply;fill: #3973bd } 
		.s39 { opacity: .84;mix-blend-mode: soft-light;fill: #f8ffff } 
		.s40 { mix-blend-mode: screen;fill: url(#g34) } 
		.s41 { mix-blend-mode: screen;fill: url(#g35) } 
		.s42 { mix-blend-mode: multiply;fill: #3973bd } 
		.s43 { mix-blend-mode: color-dodge;fill: #91c0f5 } 
		.s44 { mix-blend-mode: screen;fill: url(#g36) } 
		.s45 { mix-blend-mode: screen;fill: url(#g37) } 
		.s46 { mix-blend-mode: screen;fill: url(#g38) } 
		.s47 { mix-blend-mode: screen;fill: url(#g39) } 
		.s48 { mix-blend-mode: overlay;fill: url(#g40) } 
		.s49 { mix-blend-mode: screen;fill: url(#g41) } 
		.s50 { mix-blend-mode: overlay;fill: url(#g42) } 
		.s51 { mix-blend-mode: overlay;fill: url(#g43) } 
		.s52 { mix-blend-mode: screen;fill: url(#g44) } 
		.s53 { mix-blend-mode: screen;fill: url(#g45) } 
		.s54 { fill: url(#g46) } 
		.s55 { opacity: .5;mix-blend-mode: soft-light;fill: #c0e1ff } 
		.s56 { opacity: .5;mix-blend-mode: multiply;fill: #2c64ae } 
		.s57 { mix-blend-mode: multiply;fill: #7db1ed } 
		.s58 { mix-blend-mode: screen;fill: url(#g47) } 
		.s59 { mix-blend-mode: screen;fill: url(#g48) } 
		.s60 { opacity: .49;mix-blend-mode: color-dodge;fill: #7db1ed } 
		.s61 { opacity: .92;mix-blend-mode: multiply;fill: #2c64ae } 
		.s62 { opacity: .58;mix-blend-mode: soft-light;fill: #7db1ed } 
		.s63 { opacity: .69;fill: #76acea } 
		.s64 { mix-blend-mode: screen;fill: url(#g49) } 
		.s65 { mix-blend-mode: overlay;fill: #7db1ed } 
		.s66 { mix-blend-mode: screen;fill: url(#g50) } 
		.s67 { opacity: .2;mix-blend-mode: overlay;fill: #7db1ed } 
		.s68 { fill: #c0e1ff } 
		.s69 { mix-blend-mode: screen;fill: url(#g51) } 
		.s70 { fill: url(#g52) } 
		.s71 { opacity: .81;mix-blend-mode: multiply;fill: #a2cdfb } 
		.s72 { opacity: .5;mix-blend-mode: screen;fill: url(#g53) } 
		.s73 { opacity: .5;mix-blend-mode: multiply;fill: #427ec7 } 
		.s74 { opacity: .5;mix-blend-mode: screen;fill: url(#g54) } 
		.s75 { mix-blend-mode: screen;fill: url(#g55) } 
		.s76 { mix-blend-mode: screen;fill: url(#g56) } 
		.s77 { opacity: .5;mix-blend-mode: screen;fill: url(#g57) } 
		.s78 { opacity: .5;mix-blend-mode: screen;fill: url(#g58) } 
		.s79 { mix-blend-mode: screen;fill: url(#g59) } 
		.s80 { opacity: .5;mix-blend-mode: screen;fill: url(#g60) } 
		.s81 { mix-blend-mode: screen;fill: url(#g61) } 
		.s82 { mix-blend-mode: screen;fill: url(#g62) } 
		.s83 { opacity: .5;mix-blend-mode: screen;fill: url(#g63) } 
		.s84 { mix-blend-mode: screen;fill: url(#g64) } 
		.s85 { opacity: .72;mix-blend-mode: multiply;fill: #6ca5e6 } 
		.s86 { opacity: .5;mix-blend-mode: screen;fill: url(#g65) } 
		.s87 { opacity: .5;mix-blend-mode: screen;fill: url(#g66) } 
		.s88 { fill: #faffff } 
		.s89 { mix-blend-mode: screen;fill: url(#g67) } 
		.s90 { fill: url(#g68) } 
		.s91 { fill: url(#g69) } 
		.s92 { fill: url(#g70) } 
		.s93 { mix-blend-mode: screen;fill: url(#g71) } 
		.s94 { mix-blend-mode: multiply;fill: url(#g72) } 
		.s95 { fill: #5793d8 } 
		.s96 { fill: url(#g73) } 
		.s97 { mix-blend-mode: screen;fill: url(#g74) } 
		.s98 { fill: url(#g75) } 
		.s99 { fill: url(#g76) } 
		.s100 { fill: url(#g77) } 
		.s101 { fill: url(#g78) } 
		.s102 { fill: url(#g79) } 
		.s103 { mix-blend-mode: screen;fill: url(#g80) } 
		.s104 { fill: url(#g81) } 
		.s105 { mix-blend-mode: screen;fill: url(#g82) } 
		.s106 { mix-blend-mode: screen;fill: url(#g83) } 
		.s107 { mix-blend-mode: multiply;fill: url(#g84) } 
		.s108 { mix-blend-mode: screen;fill: url(#g85) } 
		.s109 { mix-blend-mode: screen;fill: url(#g86) } 
		.s110 { mix-blend-mode: screen;fill: url(#g87) } 
		.s111 { mix-blend-mode: screen;fill: url(#g88) } 
		.s112 { mix-blend-mode: screen;fill: url(#g89) } 
		.s113 { mix-blend-mode: screen;fill: url(#g90) } 
		.s114 { mix-blend-mode: screen;fill: url(#g91) } 
		.s115 { mix-blend-mode: screen;fill: url(#g92) } 
		.s116 { mix-blend-mode: screen;fill: url(#g93) } 
		.s117 { mix-blend-mode: screen;fill: url(#g94) } 
		.s118 { mix-blend-mode: screen;fill: url(#g95) } 
		.s119 { mix-blend-mode: screen;fill: url(#g96) } 
		.s120 { mix-blend-mode: screen;fill: url(#g97) } 
		.s121 { mix-blend-mode: screen;fill: url(#g98) } 
		.s122 { mix-blend-mode: screen;fill: url(#g99) } 
		.s123 { opacity: .5;mix-blend-mode: multiply;fill: url(#g100) } 
		.s124 { mix-blend-mode: screen;fill: url(#g101) } 
		.s125 { mix-blend-mode: screen;fill: url(#g102) } 
		.s126 { fill: url(#g103) } 
		.s127 { fill: url(#g104) } 
		.s128 { fill: url(#g105) } 
		.s129 { mix-blend-mode: screen;fill: url(#g106) } 
		.s130 { mix-blend-mode: multiply;fill: #6ca5e6 } 
		.s131 { mix-blend-mode: screen;fill: url(#g107) } 
		.s132 { mix-blend-mode: soft-light;fill: #6fa7e7 } 
		.s133 { mix-blend-mode: soft-light;fill: #ffffff } 
		.s134 { opacity: .55;mix-blend-mode: multiply;fill: url(#g108) } 
		.s135 { opacity: .55;mix-blend-mode: multiply;fill: url(#g109) } 
		.s136 { mix-blend-mode: screen;fill: url(#g110) } 
		.s137 { opacity: .5;mix-blend-mode: multiply;fill: #6ca5e6 } 
		.s138 { mix-blend-mode: screen;fill: url(#g111) } 
		.s139 { mix-blend-mode: soft-light;fill: url(#g112) } 
		.s140 { opacity: .84;mix-blend-mode: soft-light;fill: url(#g113) } 
		.s141 { mix-blend-mode: screen;fill: url(#g114) } 
		.s142 { mix-blend-mode: screen;fill: url(#g115) } 
		.s143 { mix-blend-mode: screen;fill: url(#g116) } 
		.s144 { mix-blend-mode: screen;fill: url(#g117) } 
		.s145 { mix-blend-mode: screen;fill: url(#g118) } 
		.s146 { mix-blend-mode: screen;fill: url(#g119) } 
		.s147 { mix-blend-mode: screen;fill: url(#g120) } 
		.s148 { mix-blend-mode: screen;fill: url(#g121) } 
	</style>
	<g id="_Artboards_">
	</g>
	<g id="0">
		<g id="&lt;Group&gt;">
		</g>
		<g id="&lt;Group&gt;">
			<g id="&lt;Group&gt;">
				<g id="&lt;Group&gt;">
					<path id="&lt;Path&gt;" class="s0" d="m-493.05 53.97l-85.71 113.13 10.06 37.41-30.63-13.41-21.71 47.99 54.85 116.56 80.64 38.85 93.53-75.55 17.5-137.2z"/>
					<path id="&lt;Path&gt;" class="s1" d="m-374.52 181.75l-118.53-127.78-85.71 113.13 10.06 37.41-30.63-13.41-21.71 47.99 19.11 40.61c69.95-35.96 146.22-61.59 224.21-72.84z"/>
					<g id="&lt;Group&gt;" style="mix-blend-mode: screen">
						<path id="&lt;Path&gt;" class="s2" d="m-562.81 348.42c0 0 69.83 43.04 76.57 39.8 6.73-3.24 90.46-70.89 90.46-70.89 0 0 18.61-124.27 7.83-124.26-10.79 0.01-32.33 36.26-36.32 40.02-3.99 3.75-27.46-71.85-54.3-68.46-26.85 3.39-69.42 130.11-76.56 134.62-7.15 4.51-14.89-46.83-35.11-40.97-20.21 5.86 27.43 90.14 27.43 90.14z"/>
					</g>
					<path id="&lt;Path&gt;" class="s3" d="m-561.38 351.55c0.58-2.39 66.89 28.78 76.38 22.4 9.49-6.38 87.71-57.82 89.22-56.62 1.5 1.2-85.84 75.21-90.46 74.91-4.63-0.3-75.69-38.42-75.14-40.69z"/>
					<path id="&lt;Path&gt;" class="s4" d="m-489.29 62.31c-4.34 3.08 5.27 73.68 6.73 76.38 1.46 2.7 62.03 70.53 63.44 69.64 1.41-0.89 41.94-18.99 40.86-20.34-1.08-1.35-106.69-128.75-111.03-125.67z"/>
					<path id="&lt;Path&gt;" class="s5" d="m-486.24 132.6c-1.26 0.41-89.86 111.17-89.86 111.17l32.45 80.52 61.86 24.09 48.35-55.16c0 0 13.56-87.14 12.81-87.27-1.25-0.22-65.61-73.35-65.61-73.35z"/>
					<path id="&lt;Path&gt;" class="s6" d="m-612.6 246.71c0.9 6.66 48.48 98.35 48.48 98.35l79.97 41.91 89.11-71.69c0 0 13.82-118.81 11.01-124.86-2.81-6.05-106.44-110.51-106.44-110.51 0 0-67.29 84.56-65.51 84.4 0.93-0.09-10.88 79.95-10.88 83.5 0 3.54 19.92 72.3 24.08 75.23 8.66 6.09 53.64 41.44 63.98 36.68 6.23-2.86 50.27-47.84 55.45-60.5 5.18-12.65 15.2-37.75 14.7-41.19-1.26-8.66-16.89-93.92-33.66-97.7-16.78-3.77-31.06-9.63-47.25-3.49-2.44 0.92-33.69 36.47-35.66 43.18-1.98 6.71-5.93 88.46 7.55 99.2 22.49 17.92 45.75 19.79 55.08 15.05 4.21-2.13 15.18-31.92 20.28-45.12 5.09-13.2-1.9-52.46-11.75-55.18-17.93-4.94-50.91 7.99-40.17 56.37 6.33 28.54 17.16 19.82 21.94 15.93 4.78-3.88-5.04-24.94 8.54-19.19 13.57 5.75-1.93 31.88-16.83 31.29-14.9-0.6-22.59-14.06-27.9-37.7-2.32-10.33-1.64-38.64-1.64-46.7 0-8.05 25.76-35.8 30.88-36.33 2.45-0.25 18.01 1.12 31.45 13.93 11.45 10.9 21.25 33.63 21.25 32.56 0-18.44-5.28 98-37.21 102.38-31.94 4.38-55.3-1.68-74.47-27.29-24.24-32.36-0.06-123.66 4.53-134.91 4.58-11.25 32.32-46.26 50.25-48.01 17.94-1.75 85.76 67.4 86.57 83.3 0.81 15.9-3.06 96.66-14.55 109.96-11.49 13.3-56.61 62.88-70.78 59.18-14.18-3.7-63.58-21.14-68.6-34.6-5.02-13.46-20-47.19-26.75-64.99-6.74-17.8-35.96-29.11-35.05-22.44z"/>
					<path id="&lt;Path&gt;" class="s7" d="m-621.04 239.09l44.94 4.68 89.86-111.17c0 0-7.63-63.87-9.69-65.28-2.06-1.42-82.83 99.78-82.83 99.78l10.06 37.4-30.63-13.4z"/>
					<path id="&lt;Path&gt;" class="s8" d="m-594.27 242.14l18.17 1.63 14.67-17.75q-14.74 16.4-32.84 16.12z"/>
					<path id="&lt;Path&gt;" class="s9" d="m-561.38 351.55c-1.13-2.94 17.73-27.26 17.73-27.26l60.24 24.09c0 0-0.92 41.32-4.46 42.31-3.53 0.99-72.38-36.21-73.51-39.14z"/>
					<path id="&lt;Path&gt;" class="s10" d="m-480.43 346.83c0 0-3.1 36.76 0.92 38.15 4.03 1.39 78.71-60.7 78.71-66.03 0-5.33-32.64-25.73-32.64-25.73z"/>
					<path id="&lt;Path&gt;" class="s11" d="m-420.63 205.95c0 0 41.05-23.31 42.91-20.65 1.87 2.66-15.32 125.86-18.53 127.75-3.21 1.9-36.87-21.98-36.87-21.98z"/>
					<path id="&lt;Path&gt;" class="s12" d="m-576.1 243.77c0 0 85.59-106.85 89.86-107.25 4.27-0.4 65.61 69.43 65.61 69.43l-66.32-81.52z"/>
					<path id="&lt;Path&gt;" class="s12" d="m-563.22 275.72c0 0 16.86 43.41 20.36 46.71 3.5 3.29 61.07 25.95 61.07 25.95 0 0-60.71-19.16-63.72-21.76-3-2.6-17.71-50.9-17.71-50.9z"/>
					<path id="&lt;Path&gt;" class="s13" d="m-557.26 290.5c0 0 10.65 29.81 14.4 31.93 3.75 2.12 58.48 22.44 60.7 20.23 2.22-2.21 42.42-54.07 43.75-56.86 1.33-2.79 18.12-76.57 13.26-76.57-4.86 0-131.23 55.63-132.12 81.27z"/>
					<path id="&lt;Path&gt;" class="s14" d="m-433.44 192.15c1.39 2.9 9.17 10.08 9.17 10.08 0 0-7.38-9.83-8.42-11.1-1.03-1.27-0.75 1.02-0.75 1.02z"/>
					<path id="&lt;Path&gt;" class="s14" d="m-559.14 222.72c-0.86 0.19-12.83 15.53-12.83 15.53 0 0 5.03-4.74 7.32-7.77 2.28-3.02 5.51-7.76 5.51-7.76z"/>
					<path id="&lt;Path&gt;" class="s14" d="m-532.36 329.39c0 0 43.92 16.34 48.95 14.88 5.02-1.46 23.5-22.81 24.46-21.95 0.96 0.87-19.24 25.2-22.84 26.06-3.6 0.85-50.57-18.99-50.57-18.99z"/>
					<path id="&lt;Path&gt;" class="s15" d="m-608.42 250.41c0.6 6.46 40.71 100.24 43.09 97.97 2.38-2.28 16.35-20.47 16.65-24.09 0.31-3.62-27.22-77.58-30.13-78.11-2.91-0.53-30.21-2.23-29.61 4.23z"/>
					<path id="&lt;Path&gt;" class="s16" d="m-616.28 240.56c1.9-0.49 38.18 4.91 38.61 6.46 0.42 1.56 11.54 16.78 1.91 19.4-9.63 2.63-27.86-5.66-32.67-9.61-4.81-3.96-9.76-15.76-7.85-16.25z"/>
					<path id="&lt;Path&gt;" class="s17" d="m-597.66 194.2c-1.01-0.28-18.42 38.92-15.91 40.8 2.51 1.88 30.57 3.59 34.81 1.96 4.25-1.62 22.97-23.09 21.49-23.72-1.48-0.63-37.67-18.28-40.39-19.04z"/>
					<path id="&lt;Path&gt;" class="s18" d="m-485.91 155.54c-12.45-3.73-75.52 72.78-75.52 96.59 0 23.81 63.64 85.2 75.19 81.25 11.55-3.95 44.63-89.22 47.81-109.14 3.19-19.93-35.03-64.98-47.48-68.7z"/>
					<path id="&lt;Path&gt;" class="s19" d="m-477.37 80.21c-1.66 0.52-5.28 42.12-1.23 48.35 4.04 6.23 49.41 66.65 59.27 66.65 9.87 0 31.9-12.21 34.97-16.12 3.07-3.9-91.36-99.4-93.01-98.88z"/>
					<path id="&lt;Path&gt;" class="s14" d="m-422.38 203.8c-0.45 0.17 1.75 3.65 1.75 2.9 0-0.75-0.04-3.57-1.75-2.9z"/>
					<path id="&lt;Path&gt;" class="s12" d="m-419.39 205.25c0 0 13.46-9.45 21.63-13.11 8.18-3.66 15.51-6.74 15.56-5.99 0.06 0.75-35.16 20.5-37.19 19.1z"/>
					<path id="&lt;Path&gt;" class="s20" d="m-516.05 379.81l30.5 14.69c0 0 1.59-20.12 0.55-20.55-1.04-0.42-5.27 10.13-6.97 10.27-1.7 0.15-24.08-4.41-24.08-4.41z"/>
					<path id="&lt;Path&gt;" class="s14" d="m-422.44 220.53c-0.71-0.45-4.67 24.32-6.43 35.27-1.77 10.96-4.91 34.81-4.25 35.27 0.66 0.47 5.87-23.61 7.7-37.31 1.83-13.7 3.69-32.77 2.98-33.23z"/>
					<path id="&lt;Path&gt;" class="s14" d="m-484.83 133.35c-2.51-4.47-1.74-12.59-2.57-21.04-1.59-16.29-2.44-35.21-4.28-34.62-1.82 0.57 2.55 16.62 3.39 33.02 0.47 9.28 3.38 18.41-1.27 24.43-4.65 6.03-42.84 52.55-41.96 52.55 0.89 0 36.5-43.61 45.28-46.54 8.77-2.92 47.81 44.77 47.81 44.77 0 0-43.88-48.1-46.4-52.57z"/>
					<path id="&lt;Path&gt;" class="s21" d="m-578.76 167.1c0 0 18.39 11.31 18.39 11.65 0 0.34-8.33 25.76-8.33 25.76z"/>
					<path id="&lt;Path&gt;" class="s14" d="m-577.01 168.5c0.91 0.24 14.91 6.26 14.91 11.06 0 4.81-6.6 24.94-6.6 24.94 0 0 9.56-22.65 9.56-25.21 0-2.55-16.91-11.69-17.87-10.79z"/>
					<path id="&lt;Path&gt;" class="s14" d="m-609.58 213.76l10.25-22.66c0 0 31.09 13.6 30.63 13.41-0.45-0.2-23.51-10.31-29.73-6.71-6.22 3.61-11.15 15.96-11.15 15.96z"/>
					<path id="&lt;Path&gt;" class="s14" d="m-574.7 247.25c0 0 22.44 62.54 23.95 64.8 1.52 2.26 3.58 3.51 3.58 3.51 0 0-13.21-32.78-17.62-43.74-4.42-10.96-9.91-24.57-9.91-24.57z"/>
					<path id="&lt;Path&gt;" class="s12" d="m-544.14 322.5c0 0-11.08 13.14-14.24 17.26-3.16 4.11-6.95 13.41-6.95 13.41 0 0 9-11.66 12.22-16.11 3.21-4.46 8.97-14.56 8.97-14.56z"/>
					<path id="&lt;Path&gt;" class="s22" d="m-484.71 380.3c0.29 5.47 0.54 10.91-0.84 14.2l-35.25-16.98c0 0 25.69 11.62 32.05 11.33 2.58-0.12 4.04-8.55 4.04-8.55z"/>
					<g id="&lt;Group&gt;" style="mix-blend-mode: screen">
						<path id="&lt;Path&gt;" class="s23" d="m-460.71 161.5c-25.59 27.62-77.51 93.35-98.48 124.22l-2.77-6.88c34.1-36.03 65.54-77.94 95.15-124.23q2.95 3.35 6.1 6.89z"/>
						<path id="&lt;Path&gt;" class="s24" d="m-443.52 180.87c-40.47 40.32-76.72 81.73-107.73 124.56l-1.98-4.9c21.04-22.71 79.33-93.89 103.88-126.22 1.96 2.22 3.93 4.42 5.83 6.56z"/>
						<path id="&lt;Path&gt;" class="s25" d="m-423.39 227.15c-48.91 19.7-84.78 52.33-100.66 104.77l-15.38-5.99c28.68-43.68 67.56-86.18 111.09-128.14 4.52 4.97 7.45 8.12 7.72 8.16 0.23 0.05-1 9.02-2.77 21.2z"/>
					</g>
					<path id="&lt;Path&gt;" class="s26" d="m-487.34 135.3c-3.2 0.01-25.87 27.68-25.47 28.1 0.4 0.42 34.85-28.11 25.47-28.1z"/>
					<path id="&lt;Path&gt;" class="s12" d="m-482.9 354.78c0 0-0.22 31.83 3.39 30.2 3.61-1.63 62.53-45.87 62.53-45.87l-68.57 55.39z"/>
					<path id="&lt;Path&gt;" class="s12" d="m-560.93 355.72l75.38 38.78-80.64-38.85z"/>
					<path id="&lt;Path&gt;" class="s12" d="m-374.52 181.75c0 0-23.8 48.12-26.28 72.24-2.48 24.11 8.78 64.96 8.78 64.96z"/>
					<path id="&lt;Path&gt;" class="s12" d="m-493.06 53.99c-3.2 44.66-64.2 100.62-85.7 113.11z"/>
					<path id="&lt;Path&gt;" class="s22" d="m-521.68 91.77c5.48-7.49 28.62-37.78 28.62-37.78 0 0 2.32 37.98 2.65 35.79-7.37-28.81-29.86 3.14-31.27 1.99z"/>
					<path id="&lt;Path&gt;" class="s12" d="m-620.24 240.8c0 0 31.42 16.97 41.48 48.49 10.07 31.52 12.57 66.36 12.57 66.36z"/>
					<path id="&lt;Path&gt;" class="s12" d="m-483.41 362.48c0 0 11.32 4.33 18.13 4.33 6.8 0 63.1-39.65 63.1-39.65l-83.37 67.34z"/>
					<path id="&lt;Path&gt;" class="s14" d="m-482.9 348.42c-1.67 0.24-3.51 26.5-1.75 25.96 1.76-0.54 3.37-26.2 1.75-25.96z"/>
					<path id="&lt;Path&gt;" class="s14" d="m-546.18 318.46c-0.38 0.05 0.62 6.24 1.67 6.67 1.04 0.43 8.04 2.76 7.23 1.9-0.81-0.86-8.19-8.67-8.9-8.57z"/>
					<path id="&lt;Path&gt;" class="s26" d="m-493.21 55.66c-0.45 0.25-1.15 16.91 0.15 18.42 1.3 1.52-0.15-18.42-0.15-18.42z"/>
					<path id="&lt;Path&gt;" class="s27" d="m-576.1 243.77c0.09 2.01 24.05 73.39 32.45 80.52 8.39 7.12 56.45 24.07 60.24 22.27 3.78-1.8 48.7-51.18 50.29-55.49 2.36-6.37 14.37-78.53 13.73-85.82-0.63-7.29-62.66-73.4-69.9-64.83-7.04 8.34-87.48 87.7-86.81 103.35z"/>
					<path id="&lt;Path&gt;" class="s28" d="m-548.67 281.4c1.27 8.33 7.16 32.48 12.76 35.1 5.61 2.62 44.06 18.48 46.62 16.8 2.56-1.67 47.37-45.57 45.42-48.82-1.94-3.25-17.35-80.19-23.47-79.23-6.13 0.96-85.58 48.44-81.33 76.15z"/>
					<path id="&lt;Path&gt;" class="s14" d="m-473.85 166.83c-1.55-0.8-9.63 15.47-21.19 30.96-13.11 17.59-29.94 32.57-30.07 35.65-0.13 3.11 15.63-16.75 30.07-35.65 12.45-16.29 22.74-30.15 21.19-30.96z"/>
					<path id="&lt;Path&gt;" class="s14" d="m-505.53 327.16c-0.67 3.3 15.08 7.1 19.29 6.22 4.2-0.88 24.67-23.08 20.36-22.22-4.3 0.86-38.99 12.74-39.65 16z"/>
					<path id="&lt;Path&gt;" class="s14" d="m-577.19 243.66c0 0-12.6-2.59-18.72-3.17-6.13-0.59-12.52 0.31-12.52 0.31 0 0 11 1.44 17.38 2.86 6.39 1.42 14.95 0.11 14.95 0.11z"/>
					<path id="&lt;Path&gt;" class="s29" d="m-416.98 207.29c-1.89 4.81 3.03 21.41 14.27 18.73 11.24-2.67 27.63-43.02 24.99-40.72-2.63 2.3-37.37 17.17-39.26 21.99z"/>
					<path id="&lt;Path&gt;" class="s30" d="m-431.7 297c0 0 31.32 18.69 29.52 21.46-1.81 2.76-40.65 32.56-43.84 29.92-3.19-2.65-6.16-28.78-5.99-29.43 0.17-0.64 16.97-23.97 20.31-21.95z"/>
					<path id="&lt;Path&gt;" class="s12" d="m-533.69 164.31c-10.22-4-22.26 15.35-16.43 17.44 5.84 2.09 30.09-12.09 16.43-17.44z"/>
					<path id="&lt;Path&gt;" class="s31" d="m-594.33 295.86l28.14 59.79 80.64 38.85 93.53-75.55 11.09-86.98c-73.01 13.8-144.55 35.83-213.4 63.89z"/>
					<path id="&lt;Path&gt;" class="s12" d="m-419.39 205.25l-63.51 143.17 49.46-55.2z"/>
				</g>
			</g>
			<g id="&lt;Group&gt;">
				<g id="&lt;Group&gt;">
					<path id="&lt;Path&gt;" class="s32" d="m964.18 155.14l-98.33 132.29-62.41 58.94-32.95 20.4-22.13-27.09-38.15-81.72-0.6-1.29c0 0 14.49-68.09 16.71-116.61 3.07-1.09 3.52-3.61 3.52-3.61 0 0-2.57-17.17-2.41-20.39 0.85-18.2 1.92-35.11 1.92-35.11 1.02-0.94 46.01-7.83 58.08-8.83 11.3-0.95 95.33 5.5 108.01 10.51q1.33 0.52 1.56 1.02z"/>
					<path id="&lt;Path&gt;" class="s33" d="m735.62 85.45c2.44 12.38 33.78 64.88 54.23 87.65 17.19 19.16 43.79 46.97 58.99 44.12 15.19-2.85 110.39-62.84 110.39-62.84 0 0-58.03-59.45-64.43-66.87-6.4-7.42-161.63-14.45-159.18-2.06z"/>
					<path id="&lt;Path&gt;" class="s34" d="m829.95 248.17c-13.91 39.21-30.47 76.6-51.09 113.54l-8.37 5.07-20.5-26.97-39.54-83.19c54.07 7.34 87.88 0.22 119.5-8.45z"/>
					<path id="&lt;Path&gt;" class="s35" d="m873.99 106.53c-6.1 1.27-115.58 5.87-122.28 15.45-6.71 9.58-20.61 118.21-14.97 135.93 5.64 17.73 38.47 83.97 45.25 83.52 3.28-0.22 43.09-26.97 80.31-70.18 39.86-46.28 77.2-109.33 77.15-112.43-0.03-1.99-61.38-53.14-65.46-52.29z"/>
					<path id="&lt;Path&gt;" class="s36" d="m875.18 94.22c-23.1-5.29-129.82-4.3-136.52 5.28-6.71 9.59 93.85 213.33 131.07 170.12 39.87-46.29 79.69-114.23 79.64-117.33-0.03-1.99-51.09-52.78-74.19-58.07z"/>
					<path id="&lt;Path&gt;" class="s37" d="m732.24 83.99q-0.76 0.73-1.53 1.48c0 0-0.62 12.47-1.47 30.67-0.15 3.22 2.4 20.39 2.4 20.39 0 0-0.44 2.52-3.51 3.6-2.22 48.53-17.51 116.45-17.51 116.45 0 0 32.38 5.94 68.33 1.94 25.23-2.8 57.08-15.15 59.82-17.89 36.86-36.86 78.27-63.85 124.01-87.09-6.27-8.79-27.69-27.61-34.11-36.3-61.88-37.75-123.21-38.61-196.43-33.25z"/>
					<path id="&lt;Path&gt;" class="s38" d="m736.79 101.12c1.87-1.62 24.29 68.06 33.41 75.5 9.13 7.44 63.95 48.84 55.54 51.4-8.4 2.56-65.04-13.78-69.56-20.89-4.52-7.12-21.25-104.39-19.39-106.01z"/>
					<path id="&lt;Path&gt;" class="s39" d="m735.62 85.45c2.44 12.38 33.78 64.88 54.23 87.65 17.19 19.16 43.79 46.97 58.99 44.12 15.19-2.85 110.39-62.84 110.39-62.84 0 0-58.03-59.45-64.43-66.87-6.4-7.42-161.63-14.45-159.18-2.06z"/>
					<path id="&lt;Path&gt;" class="s40" d="m762.8 125.61c-3.41 5.09 68.49 82.48 84.82 79.5 13.01-2.38 84.58-37.94 83.45-38.74-1.14-0.79-158.51-45.75-168.27-40.76z"/>
					<path id="&lt;Path&gt;" class="s41" d="m721.83 280.56l28.16 59.25 20.5 26.97 33.8-20.46 61.56-58.89 17.72-23.42c-54.67-4.33-109.24 3.4-161.74 16.55z"/>
					<path id="&lt;Path&gt;" class="s42" d="m770.49 366.76l-21.29-27.13-38.15-81.72c20.62 2.77 67.45 12.09 67.88 42.05 0.47 34.21-6.88 61.41-8.44 66.8z"/>
					<path id="&lt;Path&gt;" class="s43" d="m730.34 299.24l18.86 40.39 21.29 27.15 33.8-20.46 61.56-58.89c0 0-63.86 56.59-65.06 56.79-1.2 0.2-22.33 13.76-27.91 12.76-5.58-1-42.54-57.74-42.54-57.74z"/>
					<path id="&lt;Path&gt;" class="s38" d="m717.24 260.62c0 0 41.82 96.11 55.64 96.36 13.82 0.25 84.75-66.18 92.97-73.3 8.22-7.12 43.41-66.25 43.41-66.25 0 0-18.93 36.46-46.96 63.47-34.35 33.08-66.83 44.69-81.65 41.79-14.82-2.9-63.41-62.07-63.41-62.07z"/>
					<path id="&lt;Path&gt;" class="s42" d="m837.59 228.54c-11.96 39.53-32.51 83.91-65.41 134.82 9.85-4.87 21.3-12.28 32.4-20.14l57.72-58.13c0 0 97.47-121.47 91.8-122.29-5.67-0.83-84.43 55.16-116.51 65.74z"/>
					<path id="&lt;Path&gt;" class="s44" d="m736.79 88.93c0 0 28.73 68.35 45.88 85.95 17.15 17.61 62.15 50.98 62.15 50.98 0 0.01 105.3-62.64 107.65-67.21 1.19-2.31-18.24 11.81-40.23 24.48-21.52 12.4-45.52 23.33-52.84 23.73-38.47 2.07-60.81-23.07-85.42-56.44-24.6-33.36-37.19-61.49-37.19-61.49z"/>
					<path id="&lt;Path&gt;" class="s45" d="m730.69 255.54c11.35-0.58 22.3 5.25 43.39 2.98 21.09-2.27 59.95-15.41 59.95-15.41l-3.14 8.2c0 0-53.2 9.46-57.11 9.76-3.92 0.31-62.73-3.16-62.73-3.16 0 0 8.3-1.79 19.64-2.37z"/>
					<path id="&lt;Path&gt;" class="s46" d="m895.44 82.63c-6.11 9.04-36.18 51.8-61.41 57-28.23 5.81-104.68-58.68-104.68-58.68 1.02-0.94 46.01-7.83 58.08-8.83 11.3-0.95 95.33 5.5 108.01 10.51z"/>
					<path id="&lt;Path&gt;" class="s47" d="m766.3 79.09c0 0 110.23-2.44 128.5 8.42 18.27 10.86 64.43 66.87 64.43 66.87 0 0-47.78-25.89-75.66-45.81-27.89-19.93-117.27-29.48-117.27-29.48z"/>
					<path id="&lt;Path&gt;" class="s48" d="m726.14 139.34c0 0 23.68 53.12 21.02 70.98-2.66 17.87-36.11 47.59-36.11 47.59z"/>
					<path id="&lt;Path&gt;" class="s49" d="m865.23 288.34c0 0-11.01-38.02 4.34-51.98 15.35-13.95 94.61-81.22 94.61-81.22z"/>
					<path id="&lt;Path&gt;" class="s42" d="m790.25 337.82c-0.29 0.28-15.42 24.84-15.42 24.84l29.6-16.94c-10.61 3.71-14.58 0.26-14.18-7.9z"/>
					<path id="&lt;Path&gt;" class="s50" d="m748.36 339.68l22.13 27.09 32.95-20.4 62.41-58.94 43.45-58.46c-66.51 0.52-133.61 14.23-191.72 44.79z"/>
					<path id="&lt;Path&gt;" class="s51" d="m729.21 277.59c-0.93 2.83 37.08 72.88 43.33 69.69 6.25-3.19 44.91-84.61 41.75-84.48-3.15 0.14-83.19 9.06-85.08 14.79z"/>
					<path id="&lt;Path&gt;" class="s52" d="m753.16 79.34c0.65-0.16 28.36-4.06 40.47-3.9 12.11 0.16 69.96 6.17 69.96 6.17 0 0-65.92-2.28-71.24-1.62-5.32 0.67-39.19-0.65-39.19-0.65z"/>
					<path id="&lt;Path&gt;" class="s53" d="m788.53 171.22c0 0 10.86 13.17 24.72 24.47 13.58 11.07 30.14 20.27 33.25 20.27 3.83 0 26.14-9.72 41.26-18.09 9.73-5.39 15.18-10.91 15.11-10.63-21.81 11.89-39.78-20.55-54.23-22.03-24.65-2.54-40.73 16.83-60.11 6.01z"/>
					<g id="&lt;Group&gt;">
						<path id="&lt;Path&gt;" class="s14" d="m803.83 310.65c6.29-9.04 23.78-42.97 21.75-44.92-2.03-1.94-28.05 53.96-21.75 44.92z"/>
						<path id="&lt;Path&gt;" class="s14" d="m766.3 258.52c0.22 1.11 8.11 1.6 16.02 0.7 8.62-0.99 17.32-3.48 17.41-4.62 0.16-2.18-33.89 1.6-33.43 3.92z"/>
						<path id="&lt;Path&gt;" class="s14" d="m832.24 245.02l-6.66-0.36-19.26 8.71 19.26-5.2z"/>
						<path id="&lt;Path&gt;" class="s14" d="m800.56 184.75l36.2 35.2c1.24 7.51 0.01 17.81-5.87 31.36 0 0 12.57-29.58 17.85-33.11 5.29-3.52 13.04-8.68 14.23-9.24-22.46 4.68-39.61-7.08-62.41-24.21z"/>
						<path id="&lt;Path&gt;" class="s14" d="m862.97 208.96q0.08-0.01 0.17-0.03 0.02-0.06-0.17 0.03z"/>
						<path id="&lt;Path&gt;" class="s14" d="m797.69 181.68c0.15 0.1-31.39-39.42-31.39-39.42l11.54 23.81c0 0 19.7 15.51 19.85 15.61z"/>
						<path id="&lt;Path&gt;" class="s14" d="m880.61 201.91c0.25 0.78 71.07-37 68.76-40.62-30.77 15.04-69.02 39.84-68.76 40.62z"/>
						<path id="&lt;Path&gt;" class="s14" d="m902.78 96.07c-1.92-4.19-7.45-9.03-9.49-9.58-2.03-0.56-16.47-2.49-16.47-2.49 0 0 27.87 16.27 25.96 12.07z"/>
						<path id="&lt;Path&gt;" class="s14" d="m743.56 94.62c3.73-2.03 9.01-14.85 7.66-14.62-1.34 0.22-15.8 2.68-15.8 2.68-0.32 1.57 4.4 13.97 8.14 11.94z"/>
						<path id="&lt;Path&gt;" class="s14" d="m949 142.26c-1.53 1.43 2.51 13.25 5.34 12.12 2.83-1.13 4.89 0 4.89 0 0 0-8.7-13.55-10.23-12.12z"/>
						<path id="&lt;Path&gt;" class="s14" d="m774.04 355.17c-8.51 5.74-3.84 12.19-3.84 12.19 0 0 27.32-44.3 26.16-44.13-1.16 0.18-13.82 26.2-22.32 31.94z"/>
						<path id="&lt;Path&gt;" class="s14" d="m750.57 332.78c-4.07 1.42 10.27 21.83 15.73 21.9 5.45 0.07-12.4-23.06-15.73-21.9z"/>
						<path id="&lt;Path&gt;" class="s14" d="m710.45 256.62l34.55 1.9-17.13-3.67z"/>
						<path id="&lt;Path&gt;" class="s14" d="m844.11 81.22c4.35 0.36 18.69 1.32 22.14 1.22 3.46-0.11-15.93-3.51-20.55-2.87-4.62 0.64-14.82 0.76-12.7 1.07 2.13 0.31 10.68 0.54 11.11 0.58z"/>
						<path id="&lt;Path&gt;" class="s14" d="m871.27 205.19c-2.91 0.62-8.97 5.96-4.29 3.72 4.69-2.25 11.16-5.18 4.29-3.72z"/>
						<path id="&lt;Path&gt;" class="s14" d="m931.08 190.47c-2.03 0-41.03 45.55-28.21 36.32 12.82-9.23 30.25-36.32 28.21-36.32z"/>
					</g>
				</g>
			</g>
			<g id="&lt;Group&gt;">
				<g id="&lt;Group&gt;">
					<path id="&lt;Path&gt;" class="s54" d="m-287.12 212.92c37.11 34.89 46.52 73.56 18.25 116.54l34.11 46.54 137.54 1.26 30.09-25.49 36.41-227.19-10.01-40.74c-8.12 3.67-15.38 4.89-21.31 2.26l-58.31 1.46c-30.54 15.26-101.97 75.96-166.77 125.36z"/>
					<path id="&lt;Path&gt;" class="s55" d="m-287.12 212.92l27.45 4.07 139.79-108.96-0.47-20.47c-58.66 41.08-114.68 82.77-166.77 125.36z"/>
					<path id="&lt;Path&gt;" class="s56" d="m-60.92 106.77c-12.03 94.11-18.36 202.9-55.89 231.38 0 0-87.06 2.76-90.75 4-3.68 1.24-23.86 25.22-27.2 33.85l137.54 1.26 30.09-25.49 33.7-228.64z"/>
					<path id="&lt;Path&gt;" class="s57" d="m-120.35 103.64c-6.54 2.41-122.09 178.76-125.6 202.36-3.51 23.61 41.02 53.32 41.02 53.32 0 0 123.01 11.05 133.79-39.98 10.77-51.03-42.66-218.1-49.21-215.7z"/>
					<path id="&lt;Path&gt;" class="s58" d="m-62.01 106.77l-54.79 2.89c-36.6 21.17-89.06 65.2-140.55 107.82 19.46 22.94 33.53 47.94 18.77 88.85l29.05 31.77c0 0 81.97 2.27 92.69-3.18 10.72-5.46 21.99-36.12 29.07-59.42 14.2-46.78 19.5-106.12 25.76-168.73z"/>
					<path id="&lt;Path&gt;" class="s59" d="m-116.8 109.66c-36.6 21.17-89.06 65.2-140.55 107.82 12.55 14.79 22.85 30.46 24.62 50.69 44.03-49.35 142.71-100.56 157.22-47.22l13.5-114.18z"/>
					<path id="&lt;Path&gt;" class="s60" d="m-43.34 85.93c0.32 0.46-16.27 16.43-18.67 18.45-2.39 2.02-52.52 3.65-54.41 3.65-1.89 0-4.76-18.58-2.8-19.23 1.95-0.65 55.15-2.67 56.65-0.52 0.85 1.22 6.97 1.53 12.06 0.45 3.82-0.8 7.03-3 7.17-2.8z"/>
					<path id="&lt;Path&gt;" class="s61" d="m-232.95 373.64c-1.35 0.3 20.26-28.27 25.21-30.76 4.95-2.49 85.08-4.28 87.39-0.72 2.31 3.57 20.88 31.78 17.27 31.78-3.6 0-128.52-0.59-129.87-0.3z"/>
					<path id="&lt;Path&gt;" class="s56" d="m-97.9 373.94c0 0 28.11-20.71 28.13-22.51 0.02-1.8-46.14-14.18-47.04-13.28-0.9 0.9 15.98 38.02 18.91 35.79z"/>
					<path id="&lt;Path&gt;" class="s62" d="m-59.08 107.67c0.47 0.33 23.65 16.93 25.65 15.46 1.99-1.47-7.45-35.95-8.59-35.26-1.15 0.68-17.73 19.33-17.06 19.8z"/>
					<path id="&lt;Path&gt;" class="s56" d="m-263.56 330.97c1.42-2.44 22.05-23.8 24.9-21.66 2.85 2.14 25.66 29.78 25.72 32.64 0.06 2.86-20.51 28.43-21.93 28.02-1.42-0.4-30.12-36.57-28.69-39z"/>
					<path id="&lt;Path&gt;" class="s61" d="m-287.12 212.92c9.62 4.85 19.4 7.96 29.77 4.56 22.44 25.11 32.83 54.3 18.69 91.83-10.2 1.72-20.24 7.54-30.21 20.15 29.79-45.23 19.54-83.49-18.25-116.54z"/>
					<path id="&lt;Path&gt;" class="s12" d="m-253.21 214.05c0 0 110.72-98.35 136.41-104.39 25.69-6.04 54.79-2.89 54.79-2.89 0 0-19.17-0.21-50.43 8.35-31.26 8.57-140.77 98.93-140.77 98.93z"/>
					<path id="&lt;Path&gt;" class="s63" d="m-278.08 210.43c1.35 2.49 33.59-18.64 69.4-41.22 35.8-22.59 76.62-70.88 75.59-72.24-1.02-1.35-146.35 110.96-144.99 113.46z"/>
					<path id="&lt;Path&gt;" class="s64" d="m-121.79 89.82c-1.13 0.68-10.62 4.97-10.17 6.1 0.46 1.13 10.84 12.7 12.08 12.11 1.25-0.59-1.91-18.21-1.91-18.21z"/>
					<path id="&lt;Path&gt;" class="s65" d="m-43.34 85.93c-0.51 0.72-8.7 10.5-14.6 15.61-5.9 5.1-11.98 5.63-11.98 5.63 0 0 8.8-0.28 9-0.4 0.21-0.12 18.86-20.21 18.86-20.21z"/>
					<path id="&lt;Path&gt;" class="s65" d="m-120.26 89.48c-0.16 9.76 0.15 19.08 10.68 19.06l-8.53 1.04c-2.15-3.66-2.86-11.14-3.51-18.77z"/>
					<path id="&lt;Path&gt;" class="s65" d="m-117.76 90.18c0 0 3.8 13.52 17.57 11.66 13.77-1.86 49.25-9.96 47.14-10.77-2.1-0.81-62.2-2.03-64.71-0.89z"/>
					<path id="&lt;Path&gt;" class="s12" d="m-134.1 134.94c-5.52 1.72-105.44 71.24-100.66 86.01 4.78 14.77 42.28 94.57 58.54 90.35 16.26-4.21 69.04-184.73 42.12-176.36z"/>
					<path id="&lt;Path&gt;" class="s12" d="m-186.6 136.87c-19.82 10.25-63.59 50.59-42.61 40.11 20.97-10.49 68.88-53.7 42.61-40.11z"/>
					<path id="&lt;Path&gt;" class="s65" d="m-285.82 213.57c0 0 14.87 4.71 22.92 1.46 8.06-3.25 38.39-26.4 38.18-26.27-0.2 0.14-32.63 28.72-32.63 28.72 0 0-3.45 3.57-13.87 1.47-10.43-2.1-14.6-5.38-14.6-5.38z"/>
					<path id="&lt;Path&gt;" class="s55" d="m-248.59 275.89c-3.32-11.99 7.33-7.02 11.26 4.58 2.38 7.05-0.31 19.23-2.67 23.85-2.99 5.82-16.15 10.53-17.35 8.39-1.2-2.14 14.1-17.55 8.76-36.82z"/>
					<path id="&lt;Path&gt;" class="s55" d="m-266.93 329.46c0 0 23.57-9.79 30.53-2.24 6.95 7.55 1.48 46.82 1.48 46.82z"/>
					<path id="&lt;Path&gt;" class="s65" d="m-198.32 338.34c0 0 41.82 3.83 74.26-16.69 32.45-20.51 52.92-129.26 52.92-129.26 0 0-5.77 52.76-17.58 95.4-7.08 25.58-20.03 49.31-24.89 50.78-12.97 3.94-84.71-0.23-84.71-0.23z"/>
					<path id="&lt;Path&gt;" class="s12" d="m-30.72 124.58c-5.72 3.76-26.16 39.88-31.29 121.52-5.12 81.63-5.12 105.67-5.12 105.67z"/>
					<path id="&lt;Path&gt;" class="s56" d="m-230.95 373.6c-2.41-2.44 40.89-25.14 69.59-21.83 28.7 3.31 58.28 22.17 58.28 22.17 0 0-125.45 2.09-127.87-0.34z"/>
					<path id="&lt;Path&gt;" class="s66" d="m-106.04 135.85c-36.6 4.26-62.18 77.77-23.34 77.26 38.84-0.51 59.93-81.52 23.34-77.26z"/>
					<path id="&lt;Path&gt;" class="s67" d="m-103.08 332.88c-0.33-0.81 12.39-10.29 21.33-58.49 8.93-48.19 14.62-106.23 14.62-106.23 0 0-4.06 116.79-10.83 133.31-6.77 16.52-25.12 31.41-25.12 31.41z"/>
					<path id="&lt;Path&gt;" class="s65" d="m-257.35 217.48c0 0 37.72 8.43 36.26 39.24-1.45 30.81-17.57 52.59-17.57 52.59 0 0 6.22-22.2 3.74-42.98-2.48-20.78-22.43-48.85-22.43-48.85z"/>
					<path id="&lt;Path&gt;" class="s65" d="m-221.05 195.17c-20.74 5.85-42.91 38.79-20.63 28.1 22.28-10.69 36.77-32.64 20.63-28.1z"/>
					<path id="&lt;Path&gt;" class="s56" d="m-276.1 220.51c18.68 11.98 17.13 29.71 27.01 30.16 9.89 0.44-7.53-30.25-8.93-29.25-1.12 3.46-4.18 7.72-18.08-0.91z"/>
					<path id="&lt;Path&gt;" class="s56" d="m-112.89 342.68c-1.4 1.23 9.75 24.18 14.98 20.99 5.24-3.2 25.52-10.14 17.01-12.23-8.5-2.09-30.18-10.36-31.99-8.76z"/>
					<g id="&lt;Group&gt;">
						<path id="&lt;Path&gt;" class="s68" d="m-180.75 154.94c-33.11 26.22-81.55 58.64-49.63 41.2 13.03-7.11 31.51-24.73 49.63-38.64 26.3-20.2 49.82-35.97 37.92-28.62-20.1 12.41-25.3 16.07-37.92 26.06z"/>
						<path id="&lt;Path&gt;" class="s68" d="m-119.88 106.29c-1.59 0.2-4.33 9.45 0.95 6.37 5.28-3.08 0.25-6.52-0.95-6.37z"/>
						<path id="&lt;Path&gt;" class="s68" d="m-59.68 103.62c-13.27 2.46-42.65 6.45-27.08 6.16 8.44-0.15 19.23-0.99 24.1-2.61 4.11-1.36 2.98-3.55 2.98-3.55z"/>
						<path id="&lt;Path&gt;" class="s68" d="m-260.06 213.61c-7.62-0.27-12.43 6.66-4.86 5.26 7.57-1.39 13.74-4.95 4.86-5.26z"/>
						<path id="&lt;Path&gt;" class="s68" d="m-238.58 306.33c-13.92 8.13-0.08 2.98-0.08 2.98z"/>
						<path id="&lt;Path&gt;" class="s68" d="m-212.94 338.1c-1.11 1.55-8.15 17.97-8.15 17.97l10.25-10.61z"/>
						<path id="&lt;Path&gt;" class="s68" d="m-112.91 325.61c-0.27-13.14-23.41 10.7-13.67 10 9.74-0.69 13.94 2.78 13.67-10z"/>
						<path id="&lt;Path&gt;" class="s68" d="m-234.16 313.23c4.4 7.02 10.85 15.74 14.98 20.32 4.14 4.58-10.26-22.31-14.98-20.85z"/>
					</g>
					<g id="&lt;Group&gt;">
						<path id="&lt;Path&gt;" class="s26" d="m-158.92 138.47c5.83-5.25 33.13-24.36 34.8-24.54 1.68-0.19-32.61 24.54-32.61 24.54z"/>
						<path id="&lt;Path&gt;" class="s26" d="m-120.62 96.97c-1.63 0.34 0.96 6.2 1.95 5.05 0.99-1.15-0.23-5.4-1.95-5.05z"/>
						<path id="&lt;Path&gt;" class="s26" d="m-51.67 94.58c-2.3 0.6-8.64 7.77-5.29 6.08 3.35-1.68 8.7-6.96 5.29-6.08z"/>
						<path id="&lt;Path&gt;" class="s26" d="m-125.32 330.39c-10.44 1.74-11.59 8.2-3.65 5.97 7.94-2.24 8.12-6.71 3.65-5.97z"/>
						<path id="&lt;Path&gt;" class="s26" d="m-209.01 342.48c2.7-1.21 62.53-3.63 60.24-3.91-2.3-0.28-64.17-0.47-64.17-0.47z"/>
						<path id="&lt;Path&gt;" class="s26" d="m-192.05 165.81c-1.77-0.76-60.48 46.49-38.32 30.33 22.15-16.15 40.09-29.57 38.32-30.33z"/>
					</g>
				</g>
				<path id="&lt;Path&gt;" class="s69" d="m-147.83 354.99c-45.52 2.11-91.03-3.52-101.65-12.59-10.63-9.06 17.66-18.13 63.19-20.24 45.52-2.12 91.03 3.52 101.65 12.58 10.63 9.07-17.67 18.13-63.19 20.25z"/>
			</g>
			<g id="&lt;Group&gt;">
				<g id="&lt;Group&gt;">
					<path id="&lt;Path&gt;" class="s70" d="m400.73 357.7c-9.61-18.11-33.5-65.2-33.5-65.2l7.62-103.61c0 0 142.96-104.65 147.51-105.82 2.5-0.65 49.79 39.06 54.64 50.85 4.85 11.79 29.02 70.54 41.66 89.56l-26.87 108.28-104.06 50.69c0 0-79.2-22.21-87-24.75z"/>
					<path id="&lt;Path&gt;" class="s71" d="m532.8 104.02c-15.65 0.85-118.03 63.52-126.26 71.37-8.12 7.74-23.28 50.52-23.03 65.29 0.25 14.77 7 84.62 18.13 95.08 18.13 17.05 117.8 14.67 136.32 1.44 18.51-13.22 36.51-122.3 34.33-142.36-2.17-20.06-23.71-91.68-39.49-90.82z"/>
					<path id="&lt;Path&gt;" class="s72" d="m413.91 177.34c-4.74 5.9-23.45 87.73-18.71 92.03 4.74 4.31 74.73 48.13 83.48 42.1 8.74-6.02 76.01-129.77 78.01-136.08 1.05-3.3-11.47-24.31-20.74-45.66-8.44-19.43-27.94-10.99-30.82-10.68-6.03 0.65-86.48 52.38-91.22 58.29z"/>
					<path id="&lt;Path&gt;" class="s73" d="m403.28 352.38c-5.2-4.76-10.88-68.55-4.83-70.36 6.05-1.82 75.7 37.42 76.78 44.91 1.07 7.49 14.21 46.98 9.99 47.98-4.22 0.99-76.75-17.76-81.94-22.52z"/>
					<path id="&lt;Path&gt;" class="s73" d="m613.06 229.53c1.4-15.03-44.3-54.14-50.84-49.33-6.53 4.8-80.33 134.24-81.21 144.43-0.52 6 4.93 50.31 9.8 50.31 4.87 0 96.43-44.01 98.18-47.51 0.3-0.59 22.66-82.87 24.07-97.9z"/>
					<path id="&lt;Path&gt;" class="s74" d="m529.37 90.5c-5 4.76 28.11 80.5 37.67 78 9.55-2.51 10.84-37.28 7.4-37.71-3.45-0.43-40.08-45.05-45.07-40.29z"/>
					<path id="&lt;Path&gt;" class="s75" d="m394.26 266.32c0 0 12.92-81.86 17.09-86.96 4.16-5.11 101.13-60.43 101.13-60.43-96.78 44.05-124.47 151.36-40.41 160.18 30.87 3.24-13.63 25.3-77.81-12.79z"/>
					<path id="&lt;Path&gt;" class="s76" d="m474.09 183.72c-32.51 12.05-83.35 74.08-64.86 81.79 18.49 7.71 53.58 51.61 66.65 35.29 13.07-16.31 85.21-127.62 72.16-126.53-13.04 1.09-68.15 7.3-73.95 9.45z"/>
					<path id="&lt;Path&gt;" class="s77" d="m398.02 266.99c-6.1-6.4 19.57-91.3 19.57-91.3 0 0 75.5-53.94 96.68-58.09 21.17-4.15 43.36 58.4 43.36 58.4 0 0-73.74 133.38-79.47 134.88-5.73 1.49-74.04-37.48-80.14-43.89z"/>
					<path id="&lt;Path&gt;" class="s73" d="m576.18 189.21c0 0-9.72 24.71-23.02 55.28-19.7 45.27-47.28 103.37-62.87 113.13-26.12 16.33-92.04-6.82-82.05-0.81 9.99 6.01 68.55 19.91 80.37 19.68 11.82-0.22 99.17-46.46 100.38-49.06 1.21-2.6 25.63-98.52 18.5-105.86-7.14-7.34-26.44-34.19-31.31-32.36z"/>
					<path id="&lt;Path&gt;" class="s73" d="m562.13 192.44c-15.32 7.62-78.97 124.68-78.76 131.23 0.1 3.27 43.59-22.53 60.41-33.56 33.65-22.05 33.67-105.3 18.35-97.67z"/>
					<path id="&lt;Path&gt;" class="s78" d="m380.43 190.43c2.49-3.3 25.95-16.59 24.86-9.26-1.08 7.34-15.15 84.13-15.2 89.21-0.05 5.07-18.71 25.62-19.99 17.97-1.28-7.64 7.84-94.62 10.33-97.92z"/>
					<path id="&lt;Path&gt;" class="s73" d="m578.99 138.74c-1.88 2.22-7.91 23.58 1.71 38.6 9.61 15.02 37.96 46.14 37.96 46.14-11.63-19.33-25.49-51.12-39.67-84.74z"/>
					<path id="&lt;Path&gt;" class="s79" d="m374.85 188.89c0 0 63.35-36.19 83.59-49.72 20.24-13.53 68.12-56.28 63.94-54.93-4.17 1.35-147.53 104.65-147.53 104.65z"/>
					<path id="&lt;Path&gt;" class="s80" d="m385.95 282.32c-6.4 4.36-16.19 12.11-8.22 25.34 7.98 13.24 15.89 42.05 14.48 22.67-1.4-19.38-1.6-51.19-6.26-48.01z"/>
					<path id="&lt;Path&gt;" class="s81" d="m487.73 382.45c0 0 24.47-40.32 55.89-48.78 31.42-8.46 48.17-1.91 48.17-1.91z"/>
					<path id="&lt;Path&gt;" class="s82" d="m591.79 331.76c0 0-39.04-44.64-50.61-41.65-11.56 3-45.88 88.66-45.88 88.66z"/>
					<path id="&lt;Path&gt;" class="s83" d="m518.14 90.14c-12.01 4.09-31.72 28.09-17.84 25.8 13.88-2.29 22.46 3.58 23.03-6.15 0.57-9.73 4.2-22.84-5.19-19.65z"/>
					<path id="&lt;Path&gt;" class="s84" d="m552.52 177.34c-11.44 36.6-76.54 110.83-76.54 110.83 0 0-40.26-102.73-15.08-125.55 18.83-17.06 36.83-45.72 55.69-43.69 21.49 2.32 42.35 37.84 35.93 58.41z"/>
					<path id="&lt;Path&gt;" class="s71" d="m398.9 284.69c0 0 21.94 60.92 39.89 62.52 17.95 1.61 37.9-15.95 28.65-21.67-9.24-5.73-58.84-44.45-68.54-40.85z"/>
					<path id="&lt;Path&gt;" class="s85" d="m554.2 171.95c-2.72 1.03-22.79 27.34-38.77 57.59-20.16 38.16-36.75 81.93-36.75 81.93l77.17-134.13z"/>
					<g id="&lt;Group&gt;">
						<path id="&lt;Path&gt;" class="s12" d="m474.85 310.39c0 0-22.66-15.12-40.29-18.45-17.63-3.32-40.3-25.62-40.3-25.62z"/>
						<path id="&lt;Path&gt;" class="s12" d="m522.38 84.24c0 0 4.43 41.49 15.82 55.59 11.39 14.1 17.65 37.51 17.65 37.51 0 0-6.04-25.57-13.54-39.55-7.5-13.99-19.93-53.55-19.93-53.55z"/>
						<path id="&lt;Path&gt;" class="s12" d="m481.68 305.2c-3 6.27 19.76-27.08 43.54-61.88 23.78-34.79 31.47-67.93 31.47-67.93 0 0-72 123.55-75.01 129.81z"/>
						<path id="&lt;Path&gt;" class="s12" d="m473.15 313.46c-0.58 1.91 10.22 47.05 10.22 47.05 0 0-4.48-18.62-5.12-32.06-0.42-8.78 3.04-14.06 2.72-14.94-0.78-2.24-7.82-0.05-7.82-0.05z"/>
						<path id="&lt;Path&gt;" class="s12" d="m417.04 173.32c-4.06 2.65-5.09 1.81-5.69 6.04-0.6 4.22 3.27 2.77 4.91 0.48 1.64-2.29 13.56-13.53 10.2-11.28-3.36 2.24-6.43 2.81-9.42 4.76z"/>
						<path id="&lt;Path&gt;" class="s12" d="m403.25 213.86c-0.23-11.17-11.19 41.09-9.42 44.91 1.77 3.83 9.6-36.09 9.42-44.91z"/>
						<path id="&lt;Path&gt;" class="s12" d="m437.79 161.07c20.5-11 53.17-34.41 61.21-36.4 19.64-4.86-58.27 38.41-61.21 36.4z"/>
						<path id="&lt;Path&gt;" class="s12" d="m433.22 163.93c-4.11 0.57-7.99 5.69-4.21 3.81 3.78-1.89 8.52-4.39 4.21-3.81z"/>
						<path id="&lt;Path&gt;" class="s12" d="m370.1 290.11c7.94-8.16 16.36-17.36 18.65-19.53 2.29-2.17 11.16-4.39 0 4.87-11.16 9.27-15.95 14.58-18.65 14.66z"/>
						<path id="&lt;Path&gt;" class="s12" d="m382.15 190.3c-1.02-1.4 29.14-15.14 29.14-15.14 0 0-3.48 5.38-3.89 5.95-0.4 0.57-24.22 10.58-25.25 9.19z"/>
						<path id="&lt;Path&gt;" class="s12" d="m551.31 165.87c-8.28-1.01-4.19 16.5 3.81 15.24 7.99-1.26 11.93-0.53 11.93-0.53 0 0-13.69-14.46-15.74-14.71z"/>
						<path id="&lt;Path&gt;" class="s12" d="m467.44 307.07c0 0-7.14-6.14-11.79-7.75-4.64-1.61 11.79 7.75 11.79 7.75z"/>
						<path id="&lt;Path&gt;" class="s12" d="m404.82 194.66c-1.56 9.49-3.53 30.37-3.72 28.82-0.19-1.55 14.21-44.61 10.25-44.12-3.96 0.48-6.53 15.3-6.53 15.3z"/>
						<path id="&lt;Path&gt;" class="s12" d="m394.44 265.22c-1.12 6.16 21.17 14.17 21.17 14.17 0 0-13.33-8.38-16.71-13.07-4.27-5.92 0.87-24.64-2.19-25.64-3.07-1-1.26 18.97-2.27 24.54z"/>
					</g>
					<path id="&lt;Path&gt;" class="s86" d="m478.25 328.45c0 0 85.04 11.72 78.54 16.37-6.5 4.65-63.78 28.57-65.98 30.12-2.2 1.55-15.32-42.67-12.56-46.49z"/>
					<path id="&lt;Path&gt;" class="s87" d="m486.05 364.7c-5.75-5.91-16.99-34.38-7.8-36.25 9.19-1.87 77.17 8.5 66.14 11.17-11.03 2.67-54.29 29.24-58.34 25.08z"/>
					<path id="&lt;Path&gt;" class="s12" d="m537.15 210.85c-6.03-1.59-39.74 66.7-31.63 55.47 8.12-11.23 37.66-53.88 31.63-55.47z"/>
					<g id="&lt;Group&gt;">
						<path id="&lt;Path&gt;" class="s88" d="m478.44 306.12c-4.41 1.78-10.44 1.06-7.4 4.53 3.04 3.46 4.96 5.04 6.71 4.08 1.75-0.96 7.65-11.42 0.69-8.61z"/>
						<path id="&lt;Path&gt;" class="s88" d="m480.97 135.53c-10.73 5.98 30.93-18.94 36.29-20.73 5.36-1.79 27.9 20.57 16.79 15.99-11.11-4.59-14.65-16.67-53.08 4.74z"/>
						<path id="&lt;Path&gt;" class="s88" d="m434.56 290.04c-7.91-2.1 15.71 13.49 22.75 14.37 7.04 0.87-15.69-12.49-22.75-14.37z"/>
						<path id="&lt;Path&gt;" class="s88" d="m394.95 245.87c-1.27 0-1.26 19.37 0.25 23.5 1.51 4.13 12.45 9.84 12.34 8.32-0.12-1.52-9.96-11.27-10.83-14.97-0.87-3.69-0.5-16.85-1.76-16.85z"/>
					</g>
				</g>
			</g>
			<g id="&lt;Group&gt;">
				<g id="&lt;Group&gt;">
					<path id="&lt;Path&gt;" class="s89" d="m-905.94 203.07c-3.89 1.47-21.65 0.33-21.65 0.33-7.33 56.6 0.99 102.71 22.06 140.28l71.48 34.45 61.09-54.87c0 0-7.12-49.93 13.09-77.8 20.21-27.86 50.12-37.84 50.12-37.84l13.97-68.76-48.18-67.42-176.84 85.43c0 0 26.61 41.75 14.86 46.2z"/>
					<path id="&lt;Path&gt;" class="s90" d="m-834.05 376.23l-71.48-33.68c-20.93-41.87-24.9-88.07-20.4-136.44 0 0 20.4-1.39 20.4-3.57 1.28-9.45-8.86-32.29-13.53-44.69l175.1-86.41 48.47 67.49-14.26 68.69c-35.36 25.09-54.88 65.1-63.21 115.64z"/>
					<path id="&lt;Path&gt;" class="s91" d="m-695.49 138.93l-14.26 68.69c-35.36 25.1-54.88 65.09-63.21 115.64l-61.09 52.97-71.48-33.68q-0.62-1.23-1.2-2.46c-19.88-41.2-23.61-86.55-19.2-133.98 0 0 20.4-1.4 20.4-3.57 1.27-9.45-8.86-32.29-13.54-44.69l175.11-86.41z"/>
					<path id="&lt;Path&gt;" class="s92" d="m-695.49 138.93l-14.26 68.69c-35.36 25.1-54.88 65.09-63.21 115.64l-61.09 52.97-71.48-33.68q-0.62-1.23-1.2-2.46c-19.88-41.2-23.61-86.55-19.2-133.98 0 0 20.4-1.4 20.4-3.57 1.27-9.45-8.86-32.29-13.54-44.69l175.11-86.41z"/>
					<path id="&lt;Path&gt;" class="s93" d="m-905.53 342.55l71.48 33.68c0 0 61.09-52.97 61.09-52.97 0 0 4.11-99.97 4.11-99.97 0 0-49.37 108.69-74.59 104.54-25.23-4.16-43.12-100.98-50.48-99.45-7.36 1.53-24.02 94.06-11.61 114.17z"/>
					<path id="&lt;Path&gt;" class="s94" d="m-912.24 315.01c0 0 6.59 24.12 8.74 25.1 2.15 0.99 65.13 31.6 67.8 30.91 2.67-0.68 61.05-46.23 61.08-49.73 0.04-3.51 9.7-58.28 30.51-83.15 20.82-24.88 29.08-29.99 30.64-34.98 1.55-4.98 15.77-59.12 9.4-57.59-3.09 0.74-194.42 73.04-208.17 99.65-7.54 14.6 14 49.8 42.95 65.95 23.13 12.9 53.22 9.83 60.6 2.41 8.5-8.54-3.38-51.53 5.74-53.01 10.39-1.7 25.13 32.55 18.36 49.94-10.78 27.73-51.17 44.14-61.66 41.95-17.07-3.57-60.13-18.34-65.99-37.45z"/>
					<g id="&lt;Group&gt;" style="opacity: .35;mix-blend-mode: multiply">
						<path id="&lt;Path&gt;" class="s95" d="m-747.63 101.74c-14.81-2.06-148.43 58.88-148.04 63.97 0.38 5.09 18.34 27.57 15.28 32.19-3.05 4.62-36.69 20.12-36.3 25.94 0.2 3.18-0.62 33.64 3.7 59.94 3.57 21.72 12.1 40.01 14.79 42.95 5.96 6.49 55.57 33.77 58.7 31.34 3.12-2.43 43.19-90.2 49.69-95.93 6.5-5.73 68.79-70.06 69.56-75.73 0.76-5.68-10.05-82.26-27.38-84.67z"/>
					</g>
					<path id="&lt;Path&gt;" class="s96" d="m-886.18 181.44c-2.87 3.88-25.55 87.45 0 139.13l44.68 19.54c18.07-70.17 97.62-183.81 99.38-185.38 1.76-1.57-4.95-47.07-8.55-46.07-3.6 1-132.63 68.89-135.51 72.78z"/>
					<path id="&lt;Path&gt;" class="s97" d="m-750.67 108.66c-3.6 1-132.63 68.89-135.51 72.78-2.58 3.48-21.12 71.22-6.38 122.43 20.68-48 61.33-86.62 106.17-114.45 10.47-6.47 21.33-12.65 32.48-17.82 6.89-10.26 11.39-16.51 11.79-16.87 1.76-1.57-4.95-47.07-8.55-46.07z"/>
					<g id="&lt;Group&gt;" style="mix-blend-mode: screen">
						<path id="&lt;Path&gt;" class="s98" d="m-914.39 158.43c0 0 22.41 23.21 28.03 20.31 5.62-2.9 132.35-70.25 136.97-74.1 4.63-3.84 4.75-28.03 1.14-28.03-3.61 0-166.14 81.82-166.14 81.82z"/>
					</g>
					<g id="&lt;Group&gt;" style="mix-blend-mode: multiply">
						<path id="&lt;Path&gt;" class="s99" d="m-743.2 76.61c-1.48-0.76-2.51 30.45-2.51 30.45 0 0 6.68 40.64 10.01 40.64 3.32 0 34.98-7.95 36.27-9.24 1.29-1.3-42.29-61.09-43.77-61.85z"/>
					</g>
					<g id="&lt;Group&gt;" style="opacity: .35;mix-blend-mode: multiply">
						<path id="&lt;Path&gt;" class="s95" d="m-903.5 340.11c0 0 14.3-17.45 16.7-16.76 2.4 0.68 45.96 17.49 46.3 20.58 0.34 3.08 7.18 25.38 4.8 27.09-2.74 1.98-67.79-27.23-67.8-30.91z"/>
					</g>
					<g id="&lt;Group&gt;" style="mix-blend-mode: screen">
						<path id="&lt;Path&gt;" class="s100" d="m-890.31 184.98c-0.85 2.95-6.64 20.72-8.94 21.74-2.28 1.02-26.68-0.61-26.68-0.61 0 0 20.4-1.39 20.4-3.57 1.27-9.45-8.85-32.28-13.53-44.68 0.34 0.44 29.61 24.17 28.75 27.12z"/>
					</g>
					<g id="&lt;Group&gt;" style="mix-blend-mode: multiply">
						<path id="&lt;Path&gt;" class="s101" d="m-839.5 340.11c0 0 5.1 29.07 7.48 27.37 2.38-1.7 58.08-45.17 57.4-46.19-0.68-1.02 7.11-110.58 0.01-108.69-5.47 1.45-65.7 117.04-64.89 127.51z"/>
					</g>
					<g id="&lt;Group&gt;" style="mix-blend-mode: screen">
						<path id="&lt;Path&gt;" class="s102" d="m-736.57 152.28c-4.68 5.97-30.23 47.9-30.91 52.07-0.68 4.16-2.58 81.44-0.2 79.06 1.18-1.19 12.77-30.96 25.85-48.46 13.08-17.51 27.85-30.73 28.36-31.79 1.02-2.12 18.29-63.67 14.07-61.77-4.22 1.9-35.5 8.75-37.17 10.89z"/>
					</g>
					<g id="&lt;Group&gt;" style="mix-blend-mode: screen">
						<path id="&lt;Path&gt;" class="s103" d="m-886.18 181.44c0 0 130.86-74.88 135.17-75.73 4.31-0.85 7.79 32.67 7.79 32.67 0 0-11.95-14-18.79-14.41-6.84-0.4-124.17 57.47-124.17 57.47z"/>
					</g>
					<g id="&lt;Group&gt;" style="mix-blend-mode: screen">
						<path id="&lt;Path&gt;" class="s104" d="m-889 246.42c-8.35 9.71-1.42 60.43 14.73 73.43 16.14 12.99 27.62 7.03 31.18 3.48 3.56-3.55 25.81-73.94 30.02-80.31 4.2-6.36-70.58-2.82-75.93 3.4z"/>
					</g>
					<path id="&lt;Path&gt;" class="s105" d="m-895.67 223.29c-1.82-0.02-8.8 35.72-4.84 59.83 3.95 24.11 9.89 41.61 13.71 40.23 3.81-1.38-9.93-26.72-9.18-43.74 0.76-17.01 0.31-56.31 0.31-56.31z"/>
					<path id="&lt;Path&gt;" class="s106" d="m-919.06 157.86c0 0 38.59-6.06 74.89-23.84 36.3-17.77 100.21-62.58 100.21-62.58z"/>
					<path id="&lt;Path&gt;" class="s107" d="m-834.05 376.23c0 0 10.28-65.6 26.6-71.37 16.31-5.77 34.49 18.4 34.49 18.4z"/>
					<path id="&lt;Path&gt;" class="s108" d="m-779.67 134.08c-30.57-0.9-122.43 72.11-89.31 66.35 33.13-5.76 112.63-65.66 89.31-66.35z"/>
					<path id="&lt;Path&gt;" class="s109" d="m-839.5 329.55c0.28-1.43 20.99-69.67 35.26-85.16 14.28-15.49 42.23-60.56 42.23-60.56 0 0-40.57 72.42-45.33 80.51-4.75 8.09-32.16 65.21-32.16 65.21z"/>
					<path id="&lt;Path&gt;" class="s110" d="m-896.55 271.36c-0.98 0.49 2.04 28.23 2.63 31.88 0.59 3.65 4.62 18.86 5.04 19.26 0.43 0.4 35.04 14.1 34.34 13.8-0.7-0.31-30.53-14.59-32.57-17.06-2.04-2.47-8.46-48.37-9.44-47.88z"/>
					<path id="&lt;Path&gt;" class="s111" d="m-790.27 165.45c-17.5 7.42-38.87 31.86-21.09 23.95 17.78-7.9 46.32-34.66 21.09-23.95z"/>
					<path id="&lt;Path&gt;" class="s112" d="m-831.51 197.77c-13.45 6.28-31.04 27.81-15.25 18.38 15.8-9.43 28.97-24.79 15.25-18.38z"/>
					<path id="&lt;Path&gt;" class="s113" d="m-745.71 75.26c-4.64-0.02-8.71 29.76-8.29 32.2 0.42 2.45 10.03 5.94 4.86-4.39-5.17-10.33 9.36-27.78 3.43-27.81z"/>
					<path id="&lt;Path&gt;" class="s114" d="m-745.71 120.48c-2.3 0 3.59 34.25 3.59 34.25 0 0 5.13 0.07 4.28-5.11-0.85-5.19-5.57-29.14-7.87-29.14z"/>
					<path id="&lt;Path&gt;" class="s115" d="m-750.67 108.66c-1.53 0.68-94.59 64.29-103.86 140.87-9.28 76.57 20.48 126.7 20.48 126.7l16.03-13.9c-80.98-139.04 15.92-193.39 78.13-213.13l-7.37-40.86z"/>
					<path id="&lt;Path&gt;" class="s116" d="m-709.75 207.62c-35.36 25.1-54.88 65.09-63.21 115.64 0 0 4.31-82.47 14.85-99.17 10.54-16.69 48.36-16.47 48.36-16.47z"/>
					<path id="&lt;Path&gt;" class="s117" d="m-854.53 200.76c-41.04 57.53 7.55 144.07 15.03 139.35 7.48-4.71 119.28-185.14 102.93-187.83-16.36-2.68-76.93-9.05-117.96 48.48z"/>
					<path id="&lt;Path&gt;" class="s118" d="m-743.96 71.44c0 0-1.71 41.56 16.18 52.91 17.89 11.36 32.29 14.58 32.29 14.58z"/>
					<path id="&lt;Path&gt;" class="s119" d="m-925.93 206.11c0 0 2.61 33.5 6.79 63.16 4.17 29.67 13.61 73.28 13.61 73.28 0 0-15.5-28.75-20.61-72.07-4.76-47 0.21-64.37 0.21-64.37z"/>
					<path id="&lt;Path&gt;" class="s120" d="m-878.09 229.95c-10.98 4.86-7.65 20.58-1.92 16.47 5.74-4.11 19.38-24.2 1.92-16.47z"/>
					<path id="&lt;Path&gt;" class="s121" d="m-920.8 300.63c3.3 13.51 7.9 26.69 14.07 39.46q0.58 1.23 1.2 2.46l71.48 33.68 61.09-52.97c8.33-50.55 27.85-90.54 63.21-115.64l8.32-40.09c-17.3 3.1-34.38 7.77-51.03 13.9-65.3 24.77-126.09 64.22-168.34 119.2z"/>
					<path id="&lt;Path&gt;" class="s122" d="m-890.29 157.86c44.34-20.26 146.33-86.42 146.33-86.42l-179.36 84.56c6.79 14.67 14.43 30.92 17.79 47.07 0 0 2.18-39.24 15.24-45.21z"/>
					<path id="&lt;Path&gt;" class="s123" d="m-820.01 232.82c-24.57 6.67-70.23 37.92-60.21 60.63 10.03 22.71 28.19 20.15 32.78 6.31 4.58-13.83 49.39-72.91 27.43-66.94z"/>
					<path id="&lt;Path&gt;" class="s124" d="m-736.47 146.45c3.18 5.38 37.42-5.97 37.04-7.99-0.38-2.03-8.93-21.66-19.87-17.44-10.94 4.23-18.43 23.31-17.17 25.43z"/>
					<path id="&lt;Path&gt;" class="s125" d="m-739.11 147.89c0 0 36.39-10.14 36.67-8.27 0.28 1.88-36.03 13.25-36.67 12.28-0.63-0.98-2.63-2.58 0-4.01z"/>
					<g id="&lt;Group&gt;">
						<path id="&lt;Path&gt;" class="s26" d="m-749.58 104.24c-4.96-1.71-13.02 6.22-5.38 6.66 7.64 0.44 12.9-4.07 5.38-6.66z"/>
						<path id="&lt;Path&gt;" class="s26" d="m-886.36 178.74c7.62-4.09 81.03-44.14 86.59-46.39 5.56-2.26-86.41 49.09-86.41 49.09 0 0-6.22 0.56-0.18-2.7z"/>
						<path id="&lt;Path&gt;" class="s26" d="m-852.57 335.27l11.07 4.84 5.25-17.24c-4.07 7.94-9.49 12.14-16.32 12.4z"/>
						<path id="&lt;Path&gt;" class="s26" d="m-889 191.94c-5.96 1.17-9.95 32.93-4.13 24.55 5.81-8.38 5.87-24.89 4.13-24.55z"/>
						<path id="&lt;Path&gt;" class="s26" d="m-905.61 152.78c-5.33 2.5-12.79 4.87-8.14 7.87 4.64 2.99 10.93 8.03 9.51 5.3-1.43-2.74-0.28-13.68-1.37-13.17z"/>
						<path id="&lt;Path&gt;" class="s26" d="m-780.3 212.09c0 0-17.68 28.01-25.25 41.77-7.57 13.76-28.5 63.18-28.5 63.18 0 0 24.91-49.74 30.18-58.75 5.27-9.02 23.57-46.2 23.57-46.2z"/>
						<path id="&lt;Path&gt;" class="s26" d="m-734.94 148.53c-0.37-0.42-9.06-5.56-9.06-5.56l1.88 11.76c0 0 8.69-4.47 7.18-6.2z"/>
						<path id="&lt;Path&gt;" class="s26" d="m-890.29 178.28c0 0-0.46 13.65 0.42 13.65 0.87 0.01 9.97-14.81 9.38-14.97-0.59-0.18-9.8 1.32-9.8 1.32z"/>
						<path id="&lt;Path&gt;" class="s26" d="m-888.07 322.87l6.44 0.46c0 0-7.68-7.51-7.81-7.76-0.12-0.25 1.37 7.3 1.37 7.3z"/>
						<path id="&lt;Path&gt;" class="s26" d="m-895.97 225.61q-0.11 0.1-0.2 0.6c-1.02 5.16-1.69 40.5-2.03 41.76-0.35 1.34 1.79 13.8 1.79 13.4 0-0.4-0.34-24.68-0.34-24.68z"/>
						<path id="&lt;Path&gt;" class="s26" d="m-898.24 147.31l139.04-68.35c0 0-54.28 29.58-72.31 38.51-18.02 8.93-66.73 29.84-66.73 29.84z"/>
					</g>
				</g>
			</g>
			<g id="&lt;Group&gt;">
				<g id="&lt;Group&gt;">
					<path id="&lt;Path&gt;" class="s126" d="m181.38 390.02l-14.42 10.8c0 0-94.75-130.02-128.17-204.98 38.22-45.89 116.39-123.37 119.75-123.37 3.35 0 24.14 17.66 34.9 25.69 0 10.62 20.64 19.72 24.6 19.34 22.64 18.81 42.82 38.64 60.24 59.63-18.35 78.93-49.17 150.74-96.9 212.89z"/>
					<path id="&lt;Path&gt;" class="s127" d="m278.28 177.13c-18.35 78.93-49.17 150.74-96.9 212.89l-14.42 10.8c0 0-86.38-118.54-123.27-194.5q-2.63-5.4-4.9-10.48c38.22-45.89 116.4-123.37 119.75-123.37 3.35 0 24.14 17.66 34.91 25.68 0 10.63 20.63 19.73 24.58 19.34 22.65 18.82 42.83 38.66 60.25 59.64z"/>
					<path id="&lt;Path&gt;" class="s128" d="m278.28 177.13c-18.35 78.93-49.17 150.74-96.9 212.89l-14.42 10.8c0 0-79.41-108.98-118.47-184.92q-0.02-0.02-0.02-0.02-2.51-4.88-4.78-9.56-2.63-5.4-4.9-10.48c38.22-45.89 116.4-123.37 119.75-123.37 3.35 0 24.14 17.66 34.91 25.68 0 10.63 20.63 19.73 24.58 19.34 22.65 18.82 42.83 38.66 60.25 59.64z"/>
					<path id="&lt;Path&gt;" class="s129" d="m278.28 177.13c-18.22 78.34-48.72 149.68-95.85 211.52v0.01q-0.53 0.68-1.05 1.36l-14.42 10.8c0 0-79.41-108.98-118.47-184.92q-0.02-0.02-0.02-0.02-2.51-4.88-4.78-9.56-2.63-5.4-4.9-10.48c38.22-45.89 116.4-123.37 119.75-123.37 3.35 0 24.14 17.66 34.91 25.68 0 10.63 20.63 19.73 24.58 19.34 22.65 18.82 42.83 38.66 60.25 59.64z"/>
					<path id="&lt;Path&gt;" class="s130" d="m54.08 189.66c-3.23-9.82 83.39-89.98 90.95-90.87 7.57-0.89 3.7 111.1-14.55 113.14-18.25 2.04-73.16-12.45-76.4-22.27z"/>
					<path id="&lt;Path&gt;" class="s130" d="m165.44 119.35c-10.44-0.76-88.68 64.35-79.52 89.4 9.16 25.05 82.81 144.36 88.35 137.67 2.94-3.56-1.56-66.77-3.52-125.76-1.73-52.08-0.41-100.95-5.31-101.31z"/>
					<path id="&lt;Path&gt;" class="s131" d="m158.54 76.05c-7.02 1.94-92.73 109.3-89.2 119.88 3.54 10.58 95.36 181.03 103.76 174.04 8.39-7 88.12-169.11 86.26-176-1.85-6.89-92.48-117.92-100.82-117.92z"/>
					<path id="&lt;Path&gt;" class="s132" d="m153.63 81.71c-6.15 0-103.05 105.26-105.37 112.71-2.31 7.44 112.64 35.13 122.79 33.77 7.46-1-11.28-146.48-17.42-146.48z"/>
					<path id="&lt;Path&gt;" class="s133" d="m161.45 76.05c-2.28 0.78 22.46 144.19 27.56 148.27 13.29 10.63 89.4-34.65 84.43-47.02-1.34-3.34-26.56-33.19-55.68-57.44-12.6-0.78-24.43-11.6-27.02-20.27-11.68-9.34-28.67-23.76-29.29-23.54z"/>
					<path id="&lt;Path&gt;" class="s133" d="m167.39 397.48c-1.5 0.01 0.66-8.45 1.81-17.41 1.15-8.96 7.18-108.78 7.18-108.78 0 0 7.39 112.91 5.83 115.15-0.84 1.21-13.32 11.03-14.82 11.04z"/>
					<path id="&lt;Path&gt;" class="s134" d="m54.98 207.59c-8.41 8.66 43.09 101.01 111.84 184.72 2.55 3.09 12.76-139.19 8.62-146.13-10.21-17.17-117.45-41.69-120.46-38.59z"/>
					<path id="&lt;Path&gt;" class="s133" d="m139.19 225.38c-0.44 1.72 35.26 16.22 42.01 15.69 6.75-0.53 37.76-16.74 35.85-16.99-1.07-0.14-32.6-30.53-38.89-29.04-6.29 1.48-38.53 28.62-38.97 30.34z"/>
					<path id="&lt;Path&gt;" class="s133" d="m172.78 97.53c-3.33 2.43 50.93 71.16 66.85 73.05 15.93 1.9 28.1-0.9 28.1-0.9 0 0-91.62-74.58-94.95-72.15z"/>
					<path id="&lt;Path&gt;" class="s135" d="m180.79 248.63l3.36 134.85c0.85 0.83 32.36-49.48 46.35-81.67 22.68-52.18 37.47-106.83 37.23-107.8-0.39-1.57-86.44 46.71-86.94 54.62z"/>
					<path id="&lt;Path&gt;" class="s133" d="m161.88 83.36c0 0 0.02 26.43 2.42 52.36 2.39 25.94 15.01 97.41 17.49 95.37 1.28-1.05-3.56-71.59-7.84-100.42-4.05-27.28-11.13-46.54-12.07-47.31z"/>
					<path id="&lt;Path&gt;" class="s26" d="m168.73 231.13c-0.03 0.26 11.44 4.54 12.06 4.72 0.62 0.18 13.04-6.87 13.04-6.87l-14.71-3.06c0 0-10.37 4.95-10.39 5.21z"/>
					<path id="&lt;Path&gt;" class="s136" d="m185.56 227.65c0.85 1.39 74.42-30.96 73.8-33.68l0.46 1.01q-36.54 24-75.67 38.04z"/>
					<path id="&lt;Path&gt;" class="s26" d="m161.88 81.7c-5.06 0 9.85 98.44 11.22 106.79 1.36 8.35 2.43 24.94 5.06 24.94 2.63 0-0.89-25.73-1.78-28.09-0.88-2.36-9.45-103.64-14.5-103.64z"/>
					<path id="&lt;Path&gt;" class="s133" d="m176.42 268.39c0 0-0.98 73.13-1.96 81.29-0.98 8.17-3.71 33.8-3.71 33.8 0 0 5.8-27.29 6.78-33.39 0.97-6.09-1.11-81.7-1.11-81.7z"/>
					<path id="&lt;Path&gt;" class="s130" d="m48.23 204.74c-6.39 8.46 90.09 168.95 110.31 168.34 20.21-0.61 4.95-135.09 0-138.61-4.96-3.52-103.92-38.2-110.31-29.73z"/>
					<path id="&lt;Path&gt;" class="s137" d="m201.93 260.23c2.15 17.99-6.48 63 4.62 50.05 11.1-12.95 60.12-108.12 51.79-105.54-8.32 2.57-58.57 37.51-56.41 55.49z"/>
					<path id="&lt;Path&gt;" class="s133" d="m153.63 81.71c-5.93 1.65-60.41 61.79-60.41 93.7 0 31.91 74.4 50.35 76.07 45.87 1.68-4.49-10.72-140.95-15.66-139.57z"/>
					<path id="&lt;Path&gt;" class="s138" d="m52.2 203.44c0 0 37.47 8.29 54.53 12.76 2.8 0.73 69.69 17.08 69.69 17.08 0 0-1.79-2.92-2.15-3.31-0.15-0.17-23.6-3.39-49.77-10.76-35.37-9.95-76.24-24.79-76.24-24.79 0 0-6 1.16-6 3.02 0 1.85 9.94 6 9.94 6z"/>
					<path id="&lt;Path&gt;" class="s133" d="m278.27 177.14c-17.84 76.76-47.48 146.79-93 207.74 3.21-15.68 0.12-77.54 4.15-107.4 4.02-29.87 87.91-99.06 88.85-100.34z"/>
					<path id="&lt;Path&gt;" class="s139" d="m278.28 177.13q-0.01 0.01-0.01 0.01c0 0-53.1 29.63-76.12 20.35-21.13-8.52-38.86-107.97-41.64-124.27 6.34 3.45 23.49 17.89 32.94 24.93 0 10.63 20.63 19.73 24.58 19.34 22.65 18.82 42.83 38.66 60.25 59.64z"/>
					<path id="&lt;Path&gt;" class="s133" d="m192.06 181.31c-7.41 1.02-10.59 30.15-2.18 32.18 8.41 2.04 34.49-4.41 32.1-6.17-2.38-1.77-24.25-26.79-29.92-26.01z"/>
					<path id="&lt;Path&gt;" class="s26" d="m264.25 228.33c-16.59 52.16-39.58 100.68-70.42 144.72 0.32-0.65 19.24-32.36 36.19-67.07 17.68-36.24 33.43-75.56 34.23-77.65z"/>
					<path id="&lt;Path&gt;" class="s133" d="m200.74 228.19c0 2.95 51.44-26.65 56.26-32.13 4.81-5.47 9.91-11.84 9.91-11.84 0 0-66.17 41.02-66.17 43.97z"/>
					<path id="&lt;Path&gt;" class="s140" d="m166.96 400.82c0 0-86.38-118.54-123.27-194.5 18.41 5.43 83.19 27.59 97.61 73.82 16.88 54.03 25.66 120.68 25.66 120.68z"/>
					<path id="&lt;Path&gt;" class="s133" d="m166.96 400.82c0 0-79.41-108.98-118.47-184.92 1.52 2.44 108.23 190.68 120.24 157.15 12.09-33.79-1.77 27.77-1.77 27.77z"/>
					<path id="&lt;Path&gt;" class="s133" d="m278.28 177.13c-18.22 78.34-48.72 149.68-95.85 211.52l-2.32-56.65c0 0-0.05 43.58 12.76 35.61 12.81-7.97 32.96-69.57 55.93-134.59 6.75-19.08 24.08-37.87 29.48-55.89z"/>
					<path id="&lt;Path&gt;" class="s141" d="m167.39 397.48c0 0 9.29-35.5 10.4-36.01 1.11-0.51 6.08 23.41 4.42 24.97-1.66 1.56-13.79 11.33-14.82 11.04z"/>
					<path id="&lt;Path&gt;" class="s132" d="m130.21 236.64c-27.94-10.99-60.81-18.2-60.97-10.72-0.16 7.48 42.93 57.66 50.9 55.09 7.98-2.56 38.01-33.37 10.07-44.37z"/>
					<path id="&lt;Path&gt;" class="s133" d="m149.89 105.52c-8.53 2.99-20.1 25.88-10.71 46.62 9.4 20.75 22.19 48.79 22.12 33.95-0.06-14.84-5.6-82.62-11.41-80.57z"/>
					<path id="&lt;Path&gt;" class="s26" d="m195.16 228.85c0.55 1.54 34.61-15.26 33.88-16.73-0.73-1.47-34.44 15.19-33.88 16.73z"/>
					<path id="&lt;Path&gt;" class="s26" d="m66.16 200.71c1.57 1.78 44.88 16.56 51.04 18.07 6.16 1.51 30.01 6.07 30.01 6.07 0 0-51.71-15.56-58.25-17.53-6.53-1.97-22.8-6.61-22.8-6.61z"/>
					<path id="&lt;Path&gt;" class="s26" d="m218.03 117.49l60.25 59.64c-18.97-22.7-39.06-42.09-60.25-59.64z"/>
					<path id="&lt;Path&gt;" class="s133" d="m119.87 308.36c-5.82 1.42-1.56 10.4 3.13 10.31 4.7-0.09 5.09-12.32-3.13-10.31z"/>
					<path id="&lt;Path&gt;" class="s133" d="m156.24 268.39c-5.51 1.92-2.62 26.7 4.02 24.77 6.65-1.94 4.2-27.63-4.02-24.77z"/>
					<path id="&lt;Path&gt;" class="s133" d="m143.21 315.45c-5.18 0.65-1.51 19.92 4 21.3 5.51 1.38 2.22-22.08-4-21.3z"/>
					<path id="&lt;Path&gt;" class="s133" d="m219.39 248.67c-6.99 2.89-6.69 19.05-2.26 17.82 4.43-1.22 8.2-20.28 2.26-17.82z"/>
					<path id="&lt;Path&gt;" class="s142" d="m274.57 172.73c-17.31 16.62-85.43 52.89-89.3 48.63-3.67-4.04-2.78-94.52 0.95-128.8 2.65 2.11 5.13 4.03 7.23 5.59 0 10.63 20.63 19.73 24.58 19.34 21.06 17.5 39.98 35.87 56.54 55.24z"/>
				</g>
				<g id="&lt;Group&gt;">
					<path id="&lt;Path&gt;" class="s143" d="m198.79 230.7c0 10.32-8.36 18.68-18.68 18.68-10.32 0-18.68-8.36-18.68-18.68 0-10.32 8.36-18.68 18.68-18.68 10.32 0 18.68 8.36 18.68 18.68z"/>
					<path id="&lt;Path&gt;" class="s144" d="m187.83 230.7c0 4.27-3.46 7.73-7.72 7.73-4.27 0-7.73-3.46-7.73-7.73 0-4.26 3.46-7.72 7.73-7.72 4.26 0 7.72 3.46 7.72 7.72z"/>
					<path id="&lt;Path&gt;" class="s145" d="m184.2 230.7c0 2.26-1.83 4.09-4.09 4.09-2.26 0-4.09-1.83-4.09-4.09 0-2.26 1.83-4.09 4.09-4.09 2.26 0 4.09 1.83 4.09 4.09z"/>
				</g>
				<g id="&lt;Group&gt;">
					<path id="&lt;Path&gt;" class="s146" d="m181.26 161.21c2.78 20.86 0.54 38.37-5 39.11-5.54 0.73-12.28-15.58-15.06-36.44-2.77-20.86-0.53-38.37 5.01-39.11 5.54-0.73 12.28 15.58 15.05 36.44z"/>
					<path id="&lt;Path&gt;" class="s147" d="m175.38 161.99c1.15 8.63 0.22 15.87-2.07 16.17-2.29 0.31-5.08-6.44-6.23-15.06-1.14-8.63-0.22-15.87 2.07-16.17 2.29-0.31 5.08 6.44 6.23 15.06z"/>
					<path id="&lt;Path&gt;" class="s148" d="m173.43 162.25c0.61 4.57 0.12 8.41-1.1 8.57-1.21 0.16-2.69-3.41-3.29-7.98-0.61-4.57-0.12-8.41 1.09-8.57 1.22-0.16 2.69 3.41 3.3 7.98z"/>
				</g>
			</g>
		</g>
	</g>
</svg>