<svg width="2967" height="1863" viewBox="0 0 2967 1863" fill="none" xmlns="http://www.w3.org/2000/svg">
<g clip-path="url(#clip0_843_3)">
<path d="M1232.37 821.393C1256.02 801.072 1286.43 788.301 1320.13 787.045C1371.85 785.118 1412.14 809.287 1439.5 833.926C1453.18 846.245 1463.63 858.685 1470.65 868.045C1474.17 872.725 1476.83 876.636 1478.61 879.376C1479.5 880.747 1480.17 881.825 1480.62 882.56C1480.85 882.929 1481.01 883.211 1481.13 883.401C1481.18 883.496 1481.23 883.569 1481.25 883.617C1481.27 883.642 1481.28 883.66 1481.29 883.672C1481.29 883.678 1481.29 883.683 1481.29 883.686C1481.3 883.688 1481.3 883.69 1481.3 883.69C1481.3 883.69 1481.3 883.691 1481.15 883.774L1481.3 883.691L1481.35 883.784L1484.94 888.701L1447.93 937.817L1447.79 938.02L1447.65 937.81L1447.8 937.72L1447.65 937.81C1447.65 937.81 1447.65 937.808 1447.65 937.807C1447.65 937.804 1447.65 937.8 1447.64 937.795C1447.64 937.785 1447.63 937.769 1447.61 937.748C1447.59 937.707 1445.23 933.906 1445.18 933.825C1445.08 933.662 1444.92 933.421 1444.71 933.107C1444.29 932.477 1443.67 931.554 1442.85 930.379C1441.23 928.028 1438.84 924.67 1435.8 920.64C1429.71 912.58 1420.98 901.833 1410.45 891.087C1399.92 880.341 1387.59 869.599 1374.28 861.544C1360.96 853.489 1346.68 848.128 1332.25 848.128C1306.12 848.128 1286.29 856.978 1272.4 870.605L1232.37 821.393Z" fill="url(#paint0_linear_843_3)"/>
<path d="M1365.66 1070.88C1354.58 1074.25 1343.35 1076.23 1332.25 1076.23C1251.94 1076.23 1184.74 1016.36 1182.01 936.497C1180.45 890.799 1200.14 849.086 1232.37 821.394L1272.4 870.606C1270.93 872.044 1269.53 873.537 1268.2 875.077C1254.22 891.212 1247.46 912.677 1247.46 933.981C1247.46 972.212 1283.7 1013.47 1332.25 1013.47C1337.07 1013.47 1342.05 1012.74 1347.12 1011.42L1365.66 1070.88Z" fill="white"/>
<path d="M1631.06 787.545C1719.89 787.545 1786.8 853.407 1783.99 936.479C1783.57 949.068 1781.37 961.124 1777.69 972.507L1718.05 959.08C1720.62 951.441 1722.14 943.163 1722.41 934.335C1723.99 882.086 1678.88 840.202 1624.02 849.61L1584.78 798.942C1599.88 791.824 1615.45 787.545 1631.06 787.545Z" fill="white" stroke="white"/>
<path d="M1557.8 970.824C1566.83 980.178 1577.24 989.787 1588.11 997.562C1598.98 1005.34 1610.33 1011.28 1621.27 1013.3C1662.26 1020.87 1703.87 998.829 1717.4 959.446L1778.03 973.095C1757.92 1034.47 1694.55 1076.23 1631.06 1076.23C1593.31 1076.23 1558.23 1052.85 1532.6 1029.49C1519.79 1017.81 1509.33 1006.14 1502.08 997.377C1498.45 992.998 1495.62 989.348 1493.7 986.792C1492.74 985.515 1492.01 984.51 1491.52 983.826C1491.27 983.483 1491.09 983.22 1490.96 983.043C1490.94 983.009 1490.91 982.977 1490.89 982.949L1527.26 934.615C1527.36 934.75 1527.5 934.949 1527.69 935.21C1528.07 935.73 1528.64 936.495 1529.37 937.471C1530.83 939.424 1532.98 942.221 1535.68 945.603C1541.09 952.367 1548.76 961.469 1557.8 970.824Z" fill="url(#paint1_linear_843_3)"/>
<path d="M1527.26 934.616L1490.89 982.95C1490.87 982.982 1490.83 983.019 1490.8 983.059C1490.64 983.236 1490.4 983.499 1490.09 983.841C1489.47 984.526 1488.54 985.53 1487.34 986.807C1484.94 989.362 1481.42 993.012 1476.96 997.391C1468.03 1006.15 1455.34 1017.83 1440.27 1029.5C1418.89 1046.07 1392.7 1062.64 1365.66 1070.88L1347.12 1011.42C1355.05 1009.36 1363.18 1005.85 1371.22 1001.44C1384.41 994.214 1397.34 984.578 1408.72 974.938C1420.1 965.299 1429.93 955.659 1436.92 948.429C1440.41 944.815 1443.2 941.802 1445.1 939.694C1446.06 938.64 1446.8 937.812 1447.29 937.247C1447.54 936.965 1447.73 936.749 1447.86 936.603C1447.92 936.53 1447.97 936.475 1448 936.438C1448.02 936.419 1448.03 936.405 1448.04 936.396C1448.04 936.395 1448.04 936.393 1448.04 936.393C1448.04 936.388 1448.04 936.383 1448.05 936.377C1448.06 936.359 1448.08 936.331 1448.1 936.296C1448.14 936.224 1448.21 936.117 1448.29 935.975C1448.47 935.693 1448.73 935.273 1449.07 934.726C1449.76 933.632 1450.78 932.028 1452.1 929.986C1454.76 925.902 1458.66 920.069 1463.62 913.07C1473.55 899.071 1487.75 880.405 1504.85 861.739C1521.94 843.073 1541.92 824.403 1563.41 810.397C1570.14 806.012 1577.02 802.084 1584.01 798.756L1623.81 850.154C1619.91 850.834 1615.97 851.775 1611.99 852.99C1601.96 856.055 1591.63 862.672 1581.8 870.861C1571.97 879.051 1562.61 888.822 1554.51 898.208C1546.41 907.594 1539.56 916.598 1534.73 923.255C1532.32 926.583 1530.42 929.325 1529.11 931.235C1528.46 932.19 1527.96 932.938 1527.62 933.446C1527.45 933.7 1527.32 933.895 1527.24 934.026C1527.2 934.091 1527.16 934.141 1527.14 934.174C1527.13 934.191 1527.12 934.203 1527.12 934.212C1527.12 934.216 1527.11 934.219 1527.11 934.221C1527.11 934.222 1527.11 934.224 1527.11 934.224C1527.11 934.225 1527.13 934.235 1527.25 934.315L1527.11 934.413C1527.12 934.414 1527.12 934.415 1527.12 934.415C1527.12 934.418 1527.12 934.421 1527.12 934.425C1527.13 934.434 1527.14 934.447 1527.15 934.464C1527.18 934.498 1527.21 934.549 1527.26 934.616ZM1527.05 934.32L1527.11 934.413L1527.25 934.315L1527.11 934.224L1527.05 934.32Z" fill="white"/>
<circle cx="1484" cy="932" r="1070" stroke="white" stroke-width="5" stroke-dasharray="72 72"/>
<circle cx="1484" cy="932" r="514.548" transform="rotate(-6.9463 1484 932)" stroke="white" stroke-opacity="0.13" stroke-width="5" stroke-dasharray="72 72"/>
<path d="M704.639 923.255C698.391 923.274 692.326 925.376 687.395 929.233C682.463 933.09 678.943 938.484 677.386 944.569H648.128C642.509 944.563 637.123 942.316 633.15 938.32C629.177 934.324 626.942 928.906 626.936 923.255V894.837C626.909 887.126 624.364 879.637 619.691 873.523H677.386C679.106 880.22 683.194 886.057 688.886 889.939C694.578 893.821 701.482 895.482 708.305 894.61C715.127 893.739 721.399 890.395 725.946 885.205C730.492 880.015 733 873.335 733 866.419C733 859.502 730.492 852.822 725.946 847.632C721.399 842.442 715.127 839.098 708.305 838.227C701.482 837.355 694.578 839.016 688.886 842.898C683.194 846.78 679.106 852.617 677.386 859.314H590.614C588.894 852.617 584.806 846.78 579.114 842.898C573.422 839.016 566.518 837.355 559.695 838.227C552.873 839.098 546.601 842.442 542.054 847.632C537.508 852.822 535 859.502 535 866.419C535 873.335 537.508 880.015 542.054 885.205C546.601 890.395 552.873 893.739 559.695 894.61C566.518 895.482 573.422 893.821 579.114 889.939C584.806 886.057 588.894 880.22 590.614 873.523H591.617C597.235 873.529 602.622 875.777 606.595 879.773C610.568 883.768 612.802 889.186 612.808 894.837V923.255C612.819 932.673 616.544 941.702 623.165 948.362C629.787 955.021 638.764 958.767 648.128 958.779H677.386C678.716 963.913 681.451 968.57 685.28 972.22C689.109 975.87 693.878 978.367 699.048 979.428C704.217 980.488 709.578 980.069 714.522 978.219C719.467 976.369 723.796 973.161 727.019 968.96C730.242 964.759 732.229 959.734 732.754 954.454C733.28 949.174 732.323 943.852 729.992 939.092C727.661 934.332 724.05 930.325 719.568 927.525C715.087 924.726 709.914 923.247 704.639 923.255ZM704.639 852.209C707.433 852.209 710.164 853.043 712.488 854.604C714.811 856.165 716.622 858.384 717.691 860.981C718.76 863.577 719.04 866.434 718.495 869.191C717.95 871.947 716.604 874.479 714.628 876.466C712.653 878.453 710.135 879.806 707.395 880.355C704.654 880.903 701.814 880.622 699.232 879.546C696.651 878.471 694.444 876.649 692.892 874.313C691.34 871.976 690.511 869.229 690.511 866.419C690.515 862.651 692.005 859.04 694.654 856.376C697.302 853.712 700.893 852.214 704.639 852.209ZM563.361 880.628C560.567 880.628 557.836 879.794 555.512 878.233C553.189 876.672 551.378 874.453 550.309 871.856C549.24 869.26 548.96 866.403 549.505 863.646C550.05 860.89 551.396 858.358 553.371 856.371C555.347 854.384 557.865 853.031 560.605 852.482C563.346 851.934 566.186 852.215 568.768 853.291C571.349 854.366 573.556 856.188 575.108 858.524C576.66 860.861 577.489 863.608 577.489 866.419C577.485 870.186 575.996 873.798 573.347 876.462C570.698 879.126 567.107 880.624 563.361 880.628ZM704.639 965.883C701.844 965.883 699.113 965.05 696.79 963.488C694.466 961.927 692.656 959.708 691.586 957.112C690.517 954.515 690.237 951.658 690.782 948.902C691.328 946.146 692.673 943.614 694.649 941.626C696.625 939.639 699.142 938.286 701.882 937.738C704.623 937.189 707.464 937.471 710.045 938.546C712.627 939.622 714.833 941.443 716.385 943.78C717.938 946.116 718.766 948.864 718.766 951.674C718.761 955.441 717.271 959.052 714.623 961.716C711.975 964.379 708.384 965.878 704.639 965.883Z" fill="white"/>
<path d="M2470.78 915.505C2465.92 912.222 2453.17 910.82 2443.9 913.331C2443.4 904.052 2438.63 896.232 2429.92 889.408L2426.7 887.234L2424.55 890.496C2420.32 896.938 2418.54 905.525 2419.17 913.331C2419.67 918.14 2421.33 923.544 2424.55 927.466C2412.48 934.5 2401.35 932.903 2352.08 932.903H2276.02C2275.8 944.081 2277.58 965.578 2291.19 983.08C2292.7 985.014 2294.34 986.884 2296.13 988.685C2307.2 999.816 2323.91 1007.98 2348.91 1008C2387.05 1008.04 2419.72 987.325 2439.6 937.254C2446.14 937.36 2463.4 938.431 2471.85 922.03C2472.06 921.755 2474 917.682 2474 917.682L2470.78 915.508V915.505ZM2325.66 905.285H2304.27V926.774H2325.66V905.285ZM2353.29 905.285H2331.9V926.774H2353.29V905.285ZM2380.93 905.285H2359.54V926.774H2380.93V905.285ZM2408.56 905.285H2387.17V926.774H2408.56V905.285ZM2298.03 905.285H2276.64V926.774H2298.03V905.285ZM2325.66 878.144H2304.27V899.633H2325.66V878.144ZM2353.29 878.144H2331.9V899.633H2353.29V878.144ZM2380.93 878.144H2359.54V899.633H2380.93V878.144ZM2380.93 851H2359.54V872.489H2380.93V851Z" fill="white"/>
<path d="M2726.3 817.017C2728.48 816.906 2730.65 817.342 2732.62 818.285L2800.76 850.956C2802.52 851.802 2804.07 853.032 2805.29 854.556C2806.51 856.08 2807.37 857.858 2807.81 859.758L2824.64 933.183C2825.07 935.084 2825.07 937.059 2824.64 938.96C2824.2 940.861 2823.34 942.64 2822.12 944.164L2774.98 1003.05C2773.76 1004.57 2772.21 1005.8 2770.45 1006.64C2768.69 1007.49 2766.75 1007.92 2764.8 1007.92L2689.18 1007.94C2687.22 1007.94 2685.29 1007.5 2683.53 1006.65C2681.76 1005.81 2680.21 1004.58 2678.99 1003.06L2631.84 944.181C2631.57 943.849 2631.33 943.505 2631.1 943.149C2630.15 941.693 2629.5 940.062 2629.2 938.354C2628.9 936.645 2628.94 934.893 2629.33 933.201L2646.13 859.775C2646.57 857.875 2647.43 856.097 2648.65 854.573C2649.87 853.05 2651.42 851.819 2653.18 850.973L2721.31 818.285C2722.87 817.536 2724.57 817.105 2726.3 817.017ZM2726.98 841.969C2724.7 841.97 2722.87 844.026 2722.87 846.554C2722.87 846.575 2722.87 846.596 2722.87 846.615C2722.87 846.634 2722.87 846.651 2722.87 846.668C2722.87 847.008 2722.85 847.421 2722.87 847.719C2722.89 848.446 2722.99 849.087 2723.09 849.713C2723.19 850.262 2723.3 850.797 2723.39 851.369L2723.42 851.616C2723.77 854.473 2724.05 856.837 2723.88 859.033C2723.71 859.853 2723.1 860.606 2722.56 861.132L2722.55 861.141L2722.55 861.155L2722.46 862.857C2719.99 863.063 2717.53 863.442 2715.11 863.993C2704.53 866.406 2695.41 871.878 2688.47 879.266C2687.98 878.928 2687.5 878.584 2687.02 878.234L2687.01 878.225L2687 878.227C2686.27 878.327 2685.54 878.549 2684.6 877.996C2683.01 876.919 2681.54 875.483 2679.85 873.767L2679.11 873.014C2678.19 872.038 2677.52 871.098 2676.42 870.151C2676.17 869.936 2675.79 869.644 2675.51 869.424C2674.65 868.734 2673.64 868.374 2672.65 868.34C2671.39 868.297 2670.17 868.793 2669.38 869.797C2667.96 871.583 2668.41 874.307 2670.38 875.883C2670.39 875.892 2670.41 875.9 2670.42 875.907C2670.43 875.914 2670.44 875.92 2670.44 875.927C2670.71 876.145 2671.04 876.426 2671.29 876.61C2671.87 877.042 2672.43 877.369 2672.99 877.673C2673.47 877.939 2673.96 878.187 2674.46 878.473L2674.67 878.599C2677.11 880.111 2679.13 881.362 2680.73 882.87C2681.04 883.199 2681.22 883.656 2681.34 884.097C2681.45 884.537 2681.5 884.957 2681.54 885.215L2681.54 885.227L2681.55 885.235L2682.84 886.387C2675.85 896.955 2672.62 910.002 2674.52 923.297L2672.84 923.787L2672.83 923.79L2672.83 923.799C2672.6 924.092 2672.33 924.466 2672.03 924.801C2671.73 925.137 2671.41 925.43 2671.09 925.564C2669.26 926.143 2667.22 926.402 2664.83 926.658L2663.79 926.769C2663.12 926.825 2662.5 926.836 2661.86 926.867C2661.23 926.898 2660.58 926.949 2659.87 927.084C2659.56 927.144 2659.12 927.259 2658.78 927.338L2658.75 927.347C2658.74 927.35 2658.72 927.354 2658.71 927.357C2658.7 927.36 2658.69 927.363 2658.69 927.365C2656.27 927.952 2654.71 930.186 2655.21 932.394C2655.71 934.602 2658.08 935.939 2660.51 935.413C2660.52 935.411 2660.53 935.41 2660.54 935.409C2660.55 935.408 2660.56 935.406 2660.58 935.404C2660.59 935.4 2660.61 935.394 2660.62 935.389C2660.63 935.384 2660.64 935.38 2660.65 935.377C2660.99 935.304 2661.41 935.221 2661.71 935.141C2663.11 934.765 2664.12 934.212 2665.37 933.731C2668.07 932.76 2670.3 931.949 2672.47 931.633C2672.92 931.599 2673.38 931.737 2673.79 931.919C2674.2 932.101 2674.56 932.325 2674.8 932.461L2674.81 932.466L2674.82 932.464L2676.57 932.163C2680.66 944.882 2689.22 955.165 2700.06 961.624L2699.33 963.381L2699.33 963.394L2699.33 963.407C2699.47 963.753 2699.61 964.158 2699.69 964.562C2699.77 964.965 2699.79 965.363 2699.7 965.697C2698.91 967.754 2697.55 969.926 2696.01 972.351C2695.27 973.467 2694.5 974.343 2693.82 975.627C2693.66 975.934 2693.45 976.409 2693.3 976.731C2692.24 978.997 2693.01 981.613 2695.05 982.596C2697.09 983.584 2699.62 982.542 2700.72 980.275L2700.72 980.273C2700.72 980.271 2700.73 980.266 2700.73 980.26C2700.73 980.254 2700.73 980.249 2700.73 980.245C2700.89 979.928 2701.11 979.509 2701.24 979.21C2701.53 978.543 2701.72 977.924 2701.89 977.312C2702.06 976.699 2702.21 976.095 2702.41 975.453C2702.95 974.093 2703.37 972.695 2703.84 971.423C2704.31 970.147 2704.83 968.993 2705.57 968.109C2705.96 967.631 2706.61 967.446 2707.3 967.26L2707.32 967.256L2707.33 967.243L2708.24 965.59C2717.7 969.23 2728.29 970.206 2738.86 967.795C2741.23 967.253 2743.56 966.549 2745.84 965.686C2746.1 966.154 2746.57 967.016 2746.69 967.235L2746.7 967.247L2746.71 967.251C2747.39 967.473 2748.12 967.588 2748.72 968.423L2748.78 968.506C2749.75 970.171 2750.45 972.102 2751.23 974.384L2751.57 975.384C2751.97 976.663 2752.18 977.809 2752.75 979.139C2752.89 979.443 2753.11 979.872 2753.26 980.191C2754.35 982.469 2756.9 983.517 2758.94 982.526C2760.98 981.542 2761.75 978.927 2760.69 976.661L2760.43 976.103C2760.34 975.906 2760.24 975.711 2760.16 975.557C2759.82 974.914 2759.46 974.377 2759.09 973.861C2758.72 973.344 2758.35 972.85 2757.97 972.291C2756.43 969.865 2755.15 967.854 2754.36 965.798C2754.04 964.749 2754.42 964.102 2754.68 963.407L2754.68 963.387L2754.67 963.371C2754.63 963.331 2754.59 963.24 2754.53 963.113C2754.48 962.987 2754.41 962.831 2754.35 962.665C2754.23 962.347 2754.1 961.992 2754.01 961.755C2765.27 955.067 2773.58 944.401 2777.49 932.084C2778.03 932.169 2778.91 932.327 2779.21 932.386L2779.22 932.388L2779.23 932.38C2779.85 931.972 2780.4 931.451 2781.49 931.537C2783.66 931.853 2785.9 932.663 2788.59 933.635C2789.22 933.876 2789.78 934.136 2790.37 934.384C2790.95 934.631 2791.56 934.866 2792.26 935.054C2792.55 935.133 2792.98 935.207 2793.31 935.281C2793.32 935.284 2793.33 935.288 2793.35 935.293C2793.36 935.298 2793.37 935.304 2793.39 935.308L2793.43 935.313C2793.44 935.314 2793.45 935.315 2793.45 935.316C2795.88 935.842 2798.25 934.506 2798.76 932.298C2799.26 930.09 2797.7 927.855 2795.28 927.269C2794.93 927.189 2794.43 927.053 2794.09 926.989C2793.38 926.853 2792.74 926.802 2792.1 926.771C2791.47 926.74 2790.85 926.729 2790.18 926.673C2787.33 926.373 2784.97 926.129 2782.88 925.467C2782.46 925.303 2782.1 924.97 2781.8 924.622C2781.51 924.274 2781.28 923.916 2781.13 923.704L2781.13 923.694L2781.11 923.691L2779.5 923.218C2780.35 917.02 2780.11 910.57 2778.64 904.118C2777.15 897.605 2774.52 891.647 2771.01 886.396C2771.43 886.007 2772.21 885.317 2772.43 885.113L2772.44 885.103L2772.44 885.09C2772.51 884.351 2772.45 883.596 2773.2 882.794C2774.8 881.285 2776.82 880.033 2779.26 878.52C2779.84 878.178 2780.39 877.898 2780.95 877.594C2781.51 877.29 2782.07 876.964 2782.65 876.532C2782.91 876.336 2783.27 876.026 2783.55 875.804C2785.52 874.228 2785.97 871.504 2784.56 869.718C2783.16 867.961 2780.48 867.774 2778.52 869.272L2778.43 869.345C2778.15 869.566 2777.77 869.856 2777.52 870.072C2776.42 871.019 2775.74 871.958 2774.82 872.935L2774.08 873.688C2772.39 875.407 2770.92 876.849 2769.33 877.926C2768.94 878.152 2768.46 878.228 2768.01 878.242C2767.56 878.255 2767.14 878.208 2766.88 878.192L2766.87 878.191L2766.86 878.199L2765.33 879.292C2756.49 869.994 2744.46 864.046 2731.51 862.884C2731.47 862.333 2731.43 861.377 2731.41 861.085L2731.41 861.071L2731.4 861.061L2731.2 860.872C2730.74 860.447 2730.25 860.018 2730.1 859.135L2730.08 859.035C2729.9 856.838 2730.2 854.473 2730.54 851.615C2730.64 850.949 2730.76 850.34 2730.87 849.713C2730.98 849.087 2731.07 848.446 2731.1 847.719C2731.11 847.471 2731.1 847.139 2731.1 846.839L2731.09 846.554C2731.09 844.026 2729.25 841.969 2726.98 841.969ZM2726.85 935.414C2727.42 935.394 2728 935.515 2728.51 935.769L2728.65 935.835C2729.29 936.178 2729.79 936.689 2730.11 937.294L2730.12 937.312H2730.2L2740.55 956.086C2739.2 956.537 2737.83 956.921 2736.44 957.235C2728.53 959.04 2720.64 958.497 2713.49 956.06L2723.81 937.321H2723.83L2723.84 937.303C2724.13 936.751 2724.56 936.286 2725.09 935.954C2725.61 935.627 2726.21 935.441 2726.83 935.414L2726.85 935.414ZM2744.73 926.655C2745 926.641 2745.28 926.666 2745.55 926.716L2745.57 926.72L2745.58 926.704L2745.6 926.676L2766.78 930.27C2763.67 939 2757.75 946.564 2749.84 951.635L2741.62 931.7L2741.64 931.681L2741.65 931.665L2741.64 931.646C2740.89 929.897 2741.64 927.845 2743.37 927.011C2743.81 926.797 2744.27 926.678 2744.73 926.655ZM2709.06 926.742C2710.67 926.765 2712.11 927.884 2712.48 929.524C2712.66 930.292 2712.57 931.053 2712.28 931.725L2712.27 931.744L2712.29 931.76L2712.34 931.823L2704.2 951.556C2696.61 946.654 2690.56 939.327 2687.32 930.34L2708.31 926.763L2708.33 926.791L2708.34 926.807L2708.37 926.803C2708.6 926.76 2708.84 926.739 2709.06 926.742ZM2730.24 909.139L2734.29 914.231L2732.84 920.585L2726.98 923.414L2721.1 920.576L2719.65 914.222L2723.71 909.139H2730.24ZM2706.91 908.005L2706.9 908.073L2706.89 908.093L2706.91 908.106C2708.32 909.337 2708.54 911.457 2707.41 912.957L2707.36 913.028C2706.89 913.622 2706.24 914.05 2705.51 914.25L2705.49 914.255L2705.48 914.275L2705.47 914.325L2685 920.258C2683.97 910.702 2686.21 901.413 2690.94 893.663L2706.91 908.005ZM2762.9 893.671C2765.27 897.532 2767.06 901.842 2768.13 906.513C2769.19 911.128 2769.45 915.735 2769.02 920.188L2748.45 914.238L2748.44 914.172L2748.43 914.15L2748.41 914.145L2748.33 914.12C2746.55 913.584 2745.47 911.745 2745.89 909.899L2745.92 909.762C2746.1 909.079 2746.48 908.466 2747.02 908.001L2747.03 907.988L2747.03 907.968L2747.02 907.944L2762.9 893.671ZM2720.63 895.222L2720.56 895.257L2720.54 895.266L2720.54 895.287C2720.46 897.19 2718.9 898.709 2716.98 898.709C2716.2 898.709 2715.48 898.457 2714.89 898.025L2714.87 898.013L2714.85 898.022L2714.84 898.03L2697.35 885.581C2702.73 880.278 2709.61 876.358 2717.53 874.552C2718.95 874.23 2720.39 873.98 2721.84 873.805L2720.63 895.222ZM2732.13 873.805C2741.37 874.955 2749.91 879.156 2756.47 885.59L2739.09 897.961L2739.05 897.943L2739.03 897.935L2739.02 897.946C2737.51 899.052 2735.39 898.799 2734.19 897.358L2734.13 897.288C2733.66 896.698 2733.39 895.972 2733.36 895.217L2733.36 895.196L2733.34 895.187L2732.13 873.805Z" fill="white"/>
<path d="M1441 1642.4C1431.29 1642.4 1423.4 1650.29 1423.4 1660V1677.6C1423.4 1687.31 1431.29 1695.2 1441 1695.2H1529C1538.71 1695.2 1546.6 1687.31 1546.6 1677.6V1660C1546.6 1650.29 1538.71 1642.4 1529 1642.4H1441ZM1500.4 1662.2C1504.06 1662.2 1507 1665.14 1507 1668.8C1507 1672.46 1504.06 1675.4 1500.4 1675.4C1496.74 1675.4 1493.8 1672.46 1493.8 1668.8C1493.8 1665.14 1496.74 1662.2 1500.4 1662.2ZM1515.8 1668.8C1515.8 1665.14 1518.74 1662.2 1522.4 1662.2C1526.06 1662.2 1529 1665.14 1529 1668.8C1529 1672.46 1526.06 1675.4 1522.4 1675.4C1518.74 1675.4 1515.8 1672.46 1515.8 1668.8ZM1441 1712.8C1431.29 1712.8 1423.4 1720.69 1423.4 1730.4V1748C1423.4 1757.71 1431.29 1765.6 1441 1765.6H1529C1538.71 1765.6 1546.6 1757.71 1546.6 1748V1730.4C1546.6 1720.69 1538.71 1712.8 1529 1712.8H1441ZM1500.4 1732.6C1504.06 1732.6 1507 1735.54 1507 1739.2C1507 1742.86 1504.06 1745.8 1500.4 1745.8C1496.74 1745.8 1493.8 1742.86 1493.8 1739.2C1493.8 1735.54 1496.74 1732.6 1500.4 1732.6ZM1515.8 1739.2C1515.8 1735.54 1518.74 1732.6 1522.4 1732.6C1526.06 1732.6 1529 1735.54 1529 1739.2C1529 1742.86 1526.06 1745.8 1522.4 1745.8C1518.74 1745.8 1515.8 1742.86 1515.8 1739.2Z" fill="white"/>
<path d="M261.864 870.427L263.157 871.775C273.2 882.252 278.222 887.491 278.222 894C278.222 900.509 273.2 905.748 263.157 916.225L261.864 917.573" stroke="white" stroke-width="8" stroke-linecap="round"/>
<path d="M245.249 856.051L235.501 894L225.753 931.951" stroke="white" stroke-width="8" stroke-linecap="round"/>
<path d="M209.135 870.427L207.843 871.775C197.799 882.252 192.777 887.491 192.777 894C192.777 900.509 197.799 905.748 207.843 916.225L209.135 917.573" stroke="white" stroke-width="8" stroke-linecap="round"/>
<path d="M310.752 894.235C310.752 931.351 310.752 949.909 299.732 961.439C288.712 972.97 270.974 972.97 235.5 972.97C200.026 972.97 182.289 972.97 171.269 961.439C160.248 949.909 160.248 931.351 160.248 894.235C160.248 857.12 160.248 838.562 171.269 827.031C182.289 815.501 200.026 815.501 235.5 815.501C270.974 815.501 288.712 815.501 299.732 827.031C307.06 834.698 309.515 845.472 310.338 862.742" stroke="white" stroke-width="8" stroke-linecap="round"/>
<g clip-path="url(#clip1_843_3)">
<path fill-rule="evenodd" clip-rule="evenodd" d="M1450.4 71.9437C1450.4 73.843 1450.6 75.3766 1450.96 76.4995C1451.37 77.6288 1451.88 78.8608 1452.6 80.1955C1452.86 80.5998 1452.96 81.0104 1452.96 81.3698C1452.96 81.8831 1452.65 82.3964 1451.99 82.9097L1448.76 85.0593C1448.37 85.3406 1447.91 85.5012 1447.43 85.5213C1446.91 85.5213 1446.4 85.2647 1445.89 84.8027C1445.2 84.0612 1444.59 83.2555 1444.05 82.3964C1443.48 81.4123 1442.95 80.404 1442.46 79.3742C1438.47 84.084 1433.44 86.4389 1427.4 86.4389C1423.1 86.4389 1419.67 85.2133 1417.16 82.7558C1414.66 80.2918 1413.37 77.0193 1413.37 72.919C1413.37 68.5685 1414.91 65.0265 1418.03 62.37C1421.16 59.7071 1425.3 58.3724 1430.58 58.3724C1432.32 58.3724 1434.11 58.5264 1436 58.7831C1437.9 59.0398 1439.85 59.4504 1441.89 59.9124V56.1715C1441.89 52.2766 1441.08 49.5623 1439.49 47.9774C1437.85 46.3861 1435.09 45.6225 1431.15 45.6225C1429.35 45.6225 1427.5 45.8214 1425.61 46.2834C1423.72 46.7454 1421.87 47.3101 1420.08 48.0288C1419.5 48.2854 1418.9 48.51 1418.28 48.6961C1418.02 48.7811 1417.74 48.8308 1417.47 48.8437C1416.75 48.8437 1416.39 48.3303 1416.39 47.2587V44.7498C1416.39 43.9285 1416.49 43.3125 1416.75 42.9532C1417.13 42.4873 1417.63 42.1201 1418.18 41.8816C1420.24 40.8627 1422.4 40.0874 1424.63 39.5716C1427.25 38.903 1429.93 38.5773 1432.63 38.6027C1438.72 38.6027 1443.18 39.9887 1446.05 42.7543C1448.87 45.5134 1450.29 49.7163 1450.29 55.3502V71.9437H1450.4ZM1429.61 79.7335C1431.29 79.7335 1433.03 79.4255 1434.88 78.8095C1436.76 78.1604 1438.44 77.0324 1439.74 75.537C1440.57 74.5911 1441.17 73.4667 1441.49 72.2517C1441.79 71.0261 1442 69.5374 1442 67.7985V65.6489C1440.45 65.27 1438.87 64.9786 1437.29 64.7763C1435.69 64.5735 1434.08 64.4706 1432.47 64.4683C1429.04 64.4683 1426.53 65.1356 1424.84 66.5216C1423.15 67.9012 1422.34 69.8454 1422.34 72.4057C1422.34 74.8119 1422.95 76.6086 1424.23 77.8342C1425.45 79.1175 1427.24 79.7335 1429.61 79.7335ZM1470.74 85.2647C1469.81 85.2647 1469.2 85.1107 1468.79 84.7513C1468.38 84.4433 1468.02 83.7247 1467.71 82.7558L1455.68 43.1585C1455.44 42.4946 1455.29 41.8054 1455.22 41.1052C1455.22 40.2838 1455.63 39.8218 1456.44 39.8218H1461.46C1462.43 39.8218 1463.1 39.9822 1463.45 40.3352C1463.87 40.6432 1464.18 41.3618 1464.48 42.3372L1473.09 76.2428L1481.08 42.3372C1481.34 41.3105 1481.65 40.6432 1482.05 40.3352C1482.67 39.9576 1483.38 39.7784 1484.1 39.8218H1488.2C1489.17 39.8218 1489.84 39.9822 1490.25 40.3352C1490.65 40.6432 1491.02 41.3618 1491.22 42.3372L1499.31 76.6535L1508.17 42.3372C1508.48 41.3105 1508.84 40.6432 1509.2 40.3352C1509.79 39.9578 1510.49 39.7781 1511.19 39.8218H1515.96C1516.78 39.8218 1517.25 40.2389 1517.25 41.1052C1517.25 41.3618 1517.19 41.6185 1517.14 41.9265C1517.06 42.3643 1516.94 42.7939 1516.78 43.2098L1504.44 82.8007C1504.13 83.8273 1503.77 84.4883 1503.36 84.7963C1502.78 85.1672 1502.1 85.3468 1501.42 85.3096H1497.01C1496.04 85.3096 1495.37 85.1556 1494.95 84.7963C1494.55 84.4369 1494.19 83.7696 1493.99 82.7429L1486.05 49.7099L1478.16 82.6916C1477.9 83.7183 1477.6 84.3856 1477.2 84.7449C1476.78 85.1043 1476.06 85.2583 1475.15 85.2583L1470.74 85.2647H1470.74ZM1536.55 86.6443C1533.88 86.6443 1531.22 86.3363 1528.66 85.7267C1526.1 85.1107 1524.1 84.4433 1522.77 83.6733C1521.95 83.2178 1521.39 82.7044 1521.18 82.2424C1520.98 81.7895 1520.88 81.3002 1520.88 80.8051V78.1935C1520.88 77.1219 1521.29 76.6086 1522.05 76.6086C1522.36 76.6086 1522.67 76.6599 1522.98 76.7626C1523.28 76.8653 1523.75 77.0706 1524.26 77.2759C1526 78.0459 1527.89 78.6555 1529.89 79.0662C1531.95 79.4768 1533.93 79.6822 1535.99 79.6822C1539.21 79.6822 1541.72 79.1175 1543.46 77.9882C1544.3 77.4845 1544.98 76.7693 1545.45 75.915C1545.92 75.0608 1546.15 74.0979 1546.13 73.1243C1546.15 72.4649 1546.03 71.8083 1545.8 71.1926C1545.56 70.5769 1545.2 70.0143 1544.75 69.5374C1543.82 68.5685 1542.08 67.6958 1539.57 66.8745L1532.14 64.5645C1528.4 63.3903 1525.64 61.6513 1523.95 59.3477C1522.3 57.2218 1521.4 54.6094 1521.38 51.9172C1521.38 49.7677 1521.85 47.8748 1522.77 46.2321C1523.69 44.5958 1524.92 43.1585 1526.46 42.0356C1528 40.8549 1529.73 39.9823 1531.79 39.3727C1533.84 38.7567 1535.99 38.5 1538.24 38.5C1539.36 38.5 1540.55 38.5513 1541.67 38.7053C1542.85 38.8593 1543.92 39.0647 1545 39.27C1546.02 39.5267 1547 39.7833 1547.92 40.0849C1548.84 40.3929 1549.56 40.7009 1550.07 41.0089C1550.68 41.3133 1551.2 41.7524 1551.61 42.2923C1551.94 42.7905 1552.1 43.3828 1552.07 43.9798V46.3861C1552.07 47.4641 1551.66 48.0288 1550.89 48.0288C1550.21 47.9506 1549.55 47.7414 1548.94 47.4128C1545.85 46.0458 1542.5 45.365 1539.11 45.4172C1536.19 45.4172 1533.88 45.8728 1532.3 46.8481C1530.71 47.8234 1529.89 49.3057 1529.89 51.4039C1529.89 52.8412 1530.41 54.0733 1531.43 55.0422C1532.46 56.0175 1534.35 56.9928 1537.06 57.8655L1544.34 60.1627C1548.02 61.3433 1550.69 62.986 1552.27 65.0842C1553.86 67.1825 1554.63 69.5888 1554.63 72.2517C1554.63 74.4526 1554.17 76.4546 1553.3 78.1935C1552.39 79.9469 1551.11 81.485 1549.56 82.7044C1547.97 83.9878 1546.08 84.9053 1543.87 85.5727C1541.56 86.2849 1539.16 86.6443 1536.55 86.6443Z" fill="white"/>
<path fill-rule="evenodd" clip-rule="evenodd" d="M1409.43 99.2977C1431.14 111.894 1457.94 119.529 1485.64 119.529C1504.33 119.529 1524.87 115.635 1543.77 107.646C1546.59 106.362 1548.99 109.487 1546.23 111.541C1529.38 123.989 1504.89 130.592 1483.85 130.592C1454.34 130.592 1427.76 119.683 1407.68 101.55C1406.1 100.119 1407.53 98.1684 1409.43 99.2977ZM1560.42 98.0144C1562.26 100.324 1559.9 116.148 1550.89 123.726C1549.51 124.907 1548.17 124.291 1548.79 122.757L1549.91 119.94C1552.11 114.293 1555.06 105.836 1553.25 103.546C1551.09 100.786 1539 102.217 1533.52 102.885C1531.89 103.09 1531.63 101.653 1533.12 100.575C1542.74 93.8179 1558.57 95.7621 1560.42 98.0144Z" fill="white"/>
</g>
<path fill-rule="evenodd" clip-rule="evenodd" d="M1311.58 112.837C1311.58 109.745 1311.33 107.49 1310.78 105.149H1274.77V119.1H1295.9C1295.48 122.564 1293.18 127.785 1288.06 131.294L1287.99 131.758L1299.38 140.403L1300.16 140.478C1307.41 133.925 1311.58 124.276 1311.58 112.837Z" fill="white"/>
<path fill-rule="evenodd" clip-rule="evenodd" d="M1274.77 149.583C1285.12 149.583 1293.81 146.242 1300.17 140.478L1288.06 131.294C1284.82 133.508 1280.48 135.052 1274.77 135.052C1269.96 135.053 1265.26 133.546 1261.35 130.745C1257.44 127.943 1254.5 123.987 1252.95 119.431L1252.5 119.469L1240.66 128.448L1240.51 128.871C1246.81 141.147 1259.77 149.583 1274.77 149.583Z" fill="white"/>
<path fill-rule="evenodd" clip-rule="evenodd" d="M1252.95 119.431C1252.11 117.043 1251.68 114.531 1251.67 112C1251.67 109.41 1252.14 106.906 1252.9 104.569L1252.88 104.066L1240.89 94.9438L1240.5 95.1283C1237.82 100.349 1236.42 106.132 1236.42 112C1236.42 118.054 1237.91 123.777 1240.51 128.871L1252.95 119.431Z" fill="white"/>
<path fill-rule="evenodd" clip-rule="evenodd" d="M1274.77 88.9476C1281.97 88.9476 1286.83 91.9953 1289.6 94.5441L1300.42 84.1882C1293.77 78.1338 1285.12 74.4165 1274.77 74.4165C1259.77 74.4165 1246.81 82.8523 1240.51 95.1283L1252.91 104.569C1254.47 100.013 1257.42 96.0592 1261.34 93.2589C1265.26 90.4585 1269.95 88.9513 1274.77 88.9476Z" fill="white"/>
<path fill-rule="evenodd" clip-rule="evenodd" d="M1712.79 126.712H1677.05C1676.72 126.713 1676.39 126.814 1676.12 127.001C1675.85 127.189 1675.64 127.454 1675.51 127.763C1675.39 128.071 1675.37 128.41 1675.44 128.733C1675.51 129.057 1675.68 129.351 1675.92 129.578L1698.89 151.012C1699.56 151.636 1700.44 151.981 1701.35 151.981H1721.58L1712.79 126.712Z" fill="white" fill-opacity="0.75"/>
<path fill-rule="evenodd" clip-rule="evenodd" d="M1679.96 79.7852C1678.41 79.7852 1677.03 80.7732 1676.54 82.2422L1654.61 147.216C1654.42 147.759 1654.37 148.338 1654.46 148.905C1654.54 149.472 1654.76 150.011 1655.09 150.476C1655.43 150.942 1655.87 151.322 1656.38 151.583C1656.89 151.845 1657.45 151.981 1658.03 151.981H1675.68C1677.23 151.981 1678.6 150.993 1679.1 149.527L1683.46 136.608L1675.92 129.578C1675.68 129.351 1675.51 129.057 1675.44 128.733C1675.37 128.41 1675.39 128.071 1675.51 127.763C1675.63 127.454 1675.85 127.189 1676.12 127.001C1676.39 126.814 1676.72 126.713 1677.05 126.712H1686.8L1702.63 79.7852H1679.96Z" fill="white" fill-opacity="0.5"/>
<path fill-rule="evenodd" clip-rule="evenodd" d="M1708.88 82.2422C1708.64 81.5262 1708.18 80.904 1707.56 80.4631C1706.95 80.0223 1706.21 79.7852 1705.46 79.7852H1680.08H1680.19C1681.74 79.7852 1683.11 80.7732 1683.61 82.2422L1705.54 147.216C1705.72 147.759 1705.78 148.338 1705.69 148.905C1705.61 149.472 1705.39 150.011 1705.05 150.476C1704.72 150.942 1704.28 151.322 1703.77 151.583C1703.26 151.845 1702.69 151.981 1702.12 151.981H1701.73H1727.39C1727.96 151.981 1728.53 151.845 1729.04 151.583C1729.55 151.322 1729.99 150.942 1730.32 150.476C1730.66 150.011 1730.88 149.472 1730.96 148.905C1731.04 148.338 1730.99 147.759 1730.81 147.216L1708.88 82.2422Z" fill="white"/>
</g>
<defs>
<linearGradient id="paint0_linear_843_3" x1="1286.75" y1="803.267" x2="1465.57" y2="887.318" gradientUnits="userSpaceOnUse">
<stop stop-color="white"/>
<stop offset="1" stop-color="#999999"/>
</linearGradient>
<linearGradient id="paint1_linear_843_3" x1="1683.83" y1="1040.89" x2="1479.75" y2="934.704" gradientUnits="userSpaceOnUse">
<stop stop-color="white"/>
<stop offset="0.972402" stop-color="#999999"/>
</linearGradient>
<clipPath id="clip0_843_3">
<rect width="2967" height="1863" fill="white"/>
</clipPath>
<clipPath id="clip1_843_3">
<rect width="154" height="154" fill="white" transform="translate(1407)"/>
</clipPath>
</defs>
</svg>
