<svg width="1395" height="1395" viewBox="0 0 1395 1395" fill="none" xmlns="http://www.w3.org/2000/svg">
<mask id="path-1-inside-1_635_25" fill="white">
<path d="M846.994 290.828C906.606 312.813 960.651 347.645 1005.29 392.854C1049.94 438.064 1084.09 492.542 1105.32 552.427C1126.55 612.311 1134.35 676.133 1128.15 739.367C1121.96 802.601 1101.92 863.698 1069.47 918.323L697.146 697.145L846.994 290.828Z"/>
</mask>
<path d="M846.994 290.828C906.606 312.813 960.651 347.645 1005.29 392.854C1049.94 438.064 1084.09 492.542 1105.32 552.427C1126.55 612.311 1134.35 676.133 1128.15 739.367C1121.96 802.601 1101.92 863.698 1069.47 918.323L697.146 697.145L846.994 290.828Z" fill="url(#paint0_linear_635_25)" stroke="url(#paint1_linear_635_25)" stroke-width="10" mask="url(#path-1-inside-1_635_25)"/>
<mask id="path-2-inside-2_635_25" fill="white">
<path d="M1104.85 986.581C1066.85 1040.12 1018.66 1085.65 963.057 1120.57C907.452 1155.49 845.513 1179.12 780.777 1190.1L697.145 697.145L1104.85 986.581Z"/>
</mask>
<path d="M1104.85 986.581C1066.85 1040.12 1018.66 1085.65 963.057 1120.57C907.452 1155.49 845.513 1179.12 780.777 1190.1L697.145 697.145L1104.85 986.581Z" fill="url(#paint2_linear_635_25)" stroke="url(#paint3_linear_635_25)" stroke-width="10" mask="url(#path-2-inside-2_635_25)"/>
<mask id="path-3-inside-3_635_25" fill="white">
<path d="M977.546 283.17C1031.91 319.993 1078.49 367.163 1114.62 421.987C1150.76 476.811 1175.74 538.215 1188.14 602.694L697.145 697.145L977.546 283.17Z"/>
</mask>
<path d="M977.546 283.17C1031.91 319.993 1078.49 367.163 1114.62 421.987C1150.76 476.811 1175.74 538.215 1188.14 602.694L697.145 697.145L977.546 283.17Z" fill="url(#paint4_linear_635_25)" stroke="url(#paint5_linear_635_25)" stroke-width="10" mask="url(#path-3-inside-3_635_25)"/>
<mask id="path-4-inside-4_635_25" fill="white">
<path d="M1197.14 694.347C1197.54 765.789 1182.62 836.487 1153.4 901.679C1124.17 966.871 1081.32 1025.04 1027.71 1072.28L697.145 697.145L1197.14 694.347Z"/>
</mask>
<path d="M1197.14 694.347C1197.54 765.789 1182.62 836.487 1153.4 901.679C1124.17 966.871 1081.32 1025.04 1027.71 1072.28L697.145 697.145L1197.14 694.347Z" fill="url(#paint6_linear_635_25)" stroke="url(#paint7_linear_635_25)" stroke-width="10" mask="url(#path-4-inside-4_635_25)"/>
<mask id="path-5-inside-5_635_25" fill="white">
<path d="M231.901 820.056C209.531 735.381 210.694 646.207 235.264 562.145L697.146 697.145L231.901 820.056Z"/>
</mask>
<path d="M231.901 820.056C209.531 735.381 210.694 646.207 235.264 562.145L697.146 697.145L231.901 820.056Z" fill="url(#paint8_linear_635_25)" stroke="url(#paint9_linear_635_25)" stroke-width="10" mask="url(#path-5-inside-5_635_25)"/>
<mask id="path-6-inside-6_635_25" fill="white">
<path d="M347.866 358.828C406.076 298.733 478.807 254.673 559.026 230.909C639.245 207.144 724.238 204.48 805.788 223.172L697.145 697.148L347.866 358.828Z"/>
</mask>
<path d="M347.866 358.828C406.076 298.733 478.807 254.673 559.026 230.909C639.245 207.144 724.238 204.48 805.788 223.172L697.145 697.148L347.866 358.828Z" fill="url(#paint10_linear_635_25)" stroke="url(#paint11_linear_635_25)" stroke-width="10" mask="url(#path-6-inside-6_635_25)"/>
<mask id="path-7-inside-7_635_25" fill="white">
<path d="M633.834 1179.28C550.882 1168.38 472.142 1136.27 405.23 1086.05C338.318 1035.82 285.497 969.18 251.874 892.568L697.146 697.148L633.834 1179.28Z"/>
</mask>
<path d="M633.834 1179.28C550.882 1168.38 472.142 1136.27 405.23 1086.05C338.318 1035.82 285.497 969.18 251.874 892.568L697.146 697.148L633.834 1179.28Z" fill="url(#paint12_linear_635_25)" stroke="url(#paint13_linear_635_25)" stroke-width="10" mask="url(#path-7-inside-7_635_25)"/>
<mask id="path-8-inside-8_635_25" fill="white">
<path d="M578.802 1078.06C508.603 1056.25 445.795 1015.47 397.315 960.212C348.834 904.956 316.565 837.377 304.072 764.937C291.578 692.497 299.346 618.014 326.517 549.71C353.688 481.407 399.206 421.94 458.044 377.876C516.883 333.811 586.754 306.864 659.943 300.007C733.132 293.151 806.792 306.653 872.791 339.023C938.79 371.393 994.56 421.371 1033.94 483.44C1073.33 545.509 1094.79 617.254 1095.97 690.754L697.146 697.146L578.802 1078.06Z"/>
</mask>
<path d="M578.802 1078.06C508.603 1056.25 445.795 1015.47 397.315 960.212C348.834 904.956 316.565 837.377 304.072 764.937C291.578 692.497 299.346 618.014 326.517 549.71C353.688 481.407 399.206 421.94 458.044 377.876C516.883 333.811 586.754 306.864 659.943 300.007C733.132 293.151 806.792 306.653 872.791 339.023C938.79 371.393 994.56 421.371 1033.94 483.44C1073.33 545.509 1094.79 617.254 1095.97 690.754L697.146 697.146L578.802 1078.06Z" fill="url(#paint14_linear_635_25)" stroke="url(#paint15_linear_635_25)" stroke-width="10" mask="url(#path-8-inside-8_635_25)"/>
<path d="M702.122 374.041C734.592 362.676 770.634 368.983 797.317 390.697L981.504 540.59C1009.47 563.353 1022.85 599.524 1016.43 635.01L971.788 881.634C965.209 917.981 938.94 947.644 903.655 958.57L690.782 1024.49C660.661 1033.81 627.899 1028.24 602.563 1009.47L413.389 869.313C383.113 846.883 368.195 809.209 374.906 772.131L419.434 526.143C425.784 491.066 450.501 462.111 484.146 450.335L702.122 374.041Z" fill="url(#paint16_linear_635_25)" stroke="url(#paint17_linear_635_25)" stroke-width="2"/>
<path d="M418.146 593.751C418.146 557.733 437.516 524.498 468.854 506.744L643.698 407.69C673.913 390.573 710.845 390.357 741.258 407.118L922.414 506.96C954.327 524.548 974.146 558.102 974.146 594.539V812.731C974.146 850.053 953.362 884.27 920.241 901.474L748.252 990.809C720.007 1005.48 686.464 1005.83 657.919 991.749L473.908 900.98C439.764 884.138 418.146 849.369 418.146 811.298V593.751Z" fill="url(#paint18_linear_635_25)" fill-opacity="0.44"/>
<path d="M644.191 408.56C674.104 391.614 710.666 391.4 740.775 407.995L921.931 507.835C953.524 525.247 973.146 558.466 973.146 594.54V812.731C973.146 849.68 952.57 883.555 919.78 900.586L747.792 989.921C719.829 1004.45 686.62 1004.79 658.361 990.852L474.35 900.083C440.548 883.41 419.146 848.988 419.146 811.297V593.751C419.146 558.093 438.322 525.19 469.347 507.614L644.191 408.56Z" stroke="white" stroke-opacity="0.22" stroke-width="2"/>
<path d="M793.269 793.009C798.939 803.243 809.772 824.439 813.688 843.424C815.134 850.437 809.355 856.287 802.194 856.314L595.557 857.084C587.175 857.115 580.959 849.317 582.614 841.1C607.632 716.861 590.149 596.352 582.359 553.991C580.849 545.78 587.104 537.992 595.453 537.961L796.7 537.213C805.689 537.18 811.999 546.063 809.007 554.54L792.766 600.557C790.932 605.755 786.019 609.231 780.507 609.231L679.001 609.231C671.821 609.231 666.001 615.051 666.001 622.231V648.978C666.001 656.158 671.821 661.978 679.001 661.978H746.547C752.762 661.978 758.107 666.377 759.304 672.475L763.641 694.576C763.974 696.272 763.965 698.017 763.616 699.709L759.387 720.18C758.139 726.219 752.821 730.55 746.655 730.55H678.124C670.944 730.55 665.124 736.371 665.124 743.551L665.125 772.236C665.125 779.344 670.834 785.134 677.941 785.234L782.534 786.71C786.998 786.773 791.106 789.103 793.269 793.009Z" fill="url(#paint19_linear_635_25)"/>
<path d="M793.269 793.009C798.939 803.243 809.772 824.439 813.688 843.424C815.134 850.437 809.355 856.287 802.194 856.314L595.557 857.084C587.175 857.115 580.959 849.317 582.614 841.1C607.632 716.861 590.149 596.352 582.359 553.991C580.849 545.78 587.104 537.992 595.453 537.961L796.7 537.213C805.689 537.18 811.999 546.063 809.007 554.54L792.766 600.557C790.932 605.755 786.019 609.231 780.507 609.231L679.001 609.231C671.821 609.231 666.001 615.051 666.001 622.231V648.978C666.001 656.158 671.821 661.978 679.001 661.978H746.547C752.762 661.978 758.107 666.377 759.304 672.475L763.641 694.576C763.974 696.272 763.965 698.017 763.616 699.709L759.387 720.18C758.139 726.219 752.821 730.55 746.655 730.55H678.124C670.944 730.55 665.124 736.371 665.124 743.551L665.125 772.236C665.125 779.344 670.834 785.134 677.941 785.234L782.534 786.71C786.998 786.773 791.106 789.103 793.269 793.009Z" stroke="url(#paint20_linear_635_25)" stroke-width="2"/>
<defs>
<linearGradient id="paint0_linear_635_25" x1="832.348" y1="795.478" x2="1051.42" y2="959.055" gradientUnits="userSpaceOnUse">
<stop stop-color="#141212" stop-opacity="0"/>
<stop offset="1" stop-color="#4C5250"/>
</linearGradient>
<linearGradient id="paint1_linear_635_25" x1="726.368" y1="711.324" x2="1067.39" y2="966.806" gradientUnits="userSpaceOnUse">
<stop offset="0.673077" stop-color="#999191" stop-opacity="0"/>
<stop offset="1" stop-color="#FFF2F2"/>
</linearGradient>
<linearGradient id="paint2_linear_635_25" x1="832.393" y1="834.855" x2="1050.73" y2="1062.82" gradientUnits="userSpaceOnUse">
<stop stop-color="#141212" stop-opacity="0"/>
<stop offset="1" stop-color="#4C5250"/>
</linearGradient>
<linearGradient id="paint3_linear_635_25" x1="727.723" y1="718.853" x2="1067.45" y2="1074.69" gradientUnits="userSpaceOnUse">
<stop offset="0.673077" stop-color="#999191" stop-opacity="0"/>
<stop offset="1" stop-color="#FFF2F2"/>
</linearGradient>
<linearGradient id="paint4_linear_635_25" x1="831.848" y1="558.902" x2="1054.96" y2="335.605" gradientUnits="userSpaceOnUse">
<stop stop-color="#141212" stop-opacity="0"/>
<stop offset="1" stop-color="#4C5250"/>
</linearGradient>
<linearGradient id="paint5_linear_635_25" x1="718.175" y1="666.097" x2="1066.46" y2="318.632" gradientUnits="userSpaceOnUse">
<stop offset="0.673077" stop-color="#999191" stop-opacity="0"/>
<stop offset="1" stop-color="#FFF2F2"/>
</linearGradient>
<linearGradient id="paint6_linear_635_25" x1="890.161" y1="696.197" x2="1205.81" y2="698.61" gradientUnits="userSpaceOnUse">
<stop stop-color="#141212" stop-opacity="0"/>
<stop offset="1" stop-color="#4C5250"/>
</linearGradient>
<linearGradient id="paint7_linear_635_25" x1="734.026" y1="690.358" x2="1225.97" y2="694.899" gradientUnits="userSpaceOnUse">
<stop offset="0.673077" stop-color="#999191" stop-opacity="0"/>
<stop offset="1" stop-color="#FFF2F2"/>
</linearGradient>
<linearGradient id="paint8_linear_635_25" x1="522.038" y1="635.134" x2="236.967" y2="530.134" gradientUnits="userSpaceOnUse">
<stop stop-color="#141212" stop-opacity="0"/>
<stop offset="1" stop-color="#4C5250"/>
</linearGradient>
<linearGradient id="paint9_linear_635_25" x1="661.535" y1="691.279" x2="217.5" y2="526.927" gradientUnits="userSpaceOnUse">
<stop offset="0.673077" stop-color="#999191" stop-opacity="0"/>
<stop offset="1" stop-color="#FFF2F2"/>
</linearGradient>
<linearGradient id="paint10_linear_635_25" x1="587.425" y1="544.836" x2="411.132" y2="293.513" gradientUnits="userSpaceOnUse">
<stop stop-color="#141212" stop-opacity="0"/>
<stop offset="1" stop-color="#4C5250"/>
</linearGradient>
<linearGradient id="paint11_linear_635_25" x1="670.949" y1="671.774" x2="396.811" y2="279.642" gradientUnits="userSpaceOnUse">
<stop offset="0.673077" stop-color="#999191" stop-opacity="0"/>
<stop offset="1" stop-color="#FFF2F2"/>
</linearGradient>
<linearGradient id="paint12_linear_635_25" x1="640.303" y1="876.051" x2="543.677" y2="1167.44" gradientUnits="userSpaceOnUse">
<stop stop-color="#141212" stop-opacity="0"/>
<stop offset="1" stop-color="#4C5250"/>
</linearGradient>
<linearGradient id="paint13_linear_635_25" x1="692.397" y1="733.307" x2="541.081" y2="1187.2" gradientUnits="userSpaceOnUse">
<stop offset="0.673077" stop-color="#999191" stop-opacity="0"/>
<stop offset="1" stop-color="#FFF2F2"/>
</linearGradient>
<linearGradient id="paint14_linear_635_25" x1="688.833" y1="850.902" x2="672.082" y2="1102.16" gradientUnits="userSpaceOnUse">
<stop stop-color="#141212" stop-opacity="0"/>
<stop offset="1" stop-color="#4C5250"/>
</linearGradient>
<linearGradient id="paint15_linear_635_25" x1="700.818" y1="726.835" x2="674.089" y2="1118.39" gradientUnits="userSpaceOnUse">
<stop offset="0.673077" stop-color="#999191" stop-opacity="0"/>
<stop offset="1" stop-color="#FFF2F2"/>
</linearGradient>
<linearGradient id="paint16_linear_635_25" x1="758.699" y1="355.37" x2="634.945" y2="1039.03" gradientUnits="userSpaceOnUse">
<stop stop-color="#AEC4BB" stop-opacity="0"/>
<stop offset="1" stop-color="#AEC4BB" stop-opacity="0.1"/>
</linearGradient>
<linearGradient id="paint17_linear_635_25" x1="758.699" y1="355.37" x2="634.945" y2="1039.03" gradientUnits="userSpaceOnUse">
<stop stop-color="#AEC4BB" stop-opacity="0.15"/>
<stop offset="1" stop-color="#AEC4BB" stop-opacity="0.5"/>
</linearGradient>
<linearGradient id="paint18_linear_635_25" x1="696.146" y1="380.146" x2="696.146" y2="1014.15" gradientUnits="userSpaceOnUse">
<stop offset="0.0288462" stop-color="#98ABA4"/>
<stop offset="1" stop-opacity="0.1"/>
</linearGradient>
<linearGradient id="paint19_linear_635_25" x1="697.146" y1="537.145" x2="697.146" y2="763.145" gradientUnits="userSpaceOnUse">
<stop stop-color="#B1C7BE"/>
<stop offset="1" stop-color="#56615D" stop-opacity="0.2"/>
</linearGradient>
<linearGradient id="paint20_linear_635_25" x1="697.146" y1="537.145" x2="697.146" y2="857.145" gradientUnits="userSpaceOnUse">
<stop stop-color="#90A29B"/>
<stop offset="1" stop-color="#353C39"/>
</linearGradient>
</defs>
</svg>
