<svg width="4110" height="2457" viewBox="0 0 4110 2457" fill="none" xmlns="http://www.w3.org/2000/svg">
<g clip-path="url(#clip0_762_2)">
<rect x="411.5" y="0.5" width="410" height="350" fill="#121212" stroke="white" stroke-dasharray="12 12"/>
<rect x="822.5" y="0.5" width="410" height="350" stroke="white" stroke-dasharray="12 12"/>
<rect x="1233.5" y="0.5" width="410" height="350" fill="#121212" stroke="white" stroke-dasharray="12 12"/>
<rect x="1644.5" y="0.5" width="410" height="350" stroke="white" stroke-dasharray="12 12"/>
<rect x="2055.5" y="0.5" width="410" height="350" fill="#121212" stroke="white" stroke-dasharray="12 12"/>
<rect x="2466.5" y="0.5" width="410" height="350" stroke="white" stroke-dasharray="12 12"/>
<rect x="2877.5" y="0.5" width="410" height="350" fill="#121212" stroke="white" stroke-dasharray="12 12"/>
<rect x="3288.5" y="0.5" width="410" height="350" stroke="white" stroke-dasharray="12 12"/>
<rect x="411.5" y="702.5" width="410" height="350" fill="#202020" stroke="#989797" stroke-dasharray="12 12"/>
<rect x="822.5" y="702.5" width="410" height="350" stroke="#989797" stroke-dasharray="12 12"/>
<rect x="1233.5" y="702.5" width="410" height="350" fill="#202020" stroke="#989797" stroke-dasharray="12 12"/>
<rect x="1644.5" y="702.5" width="410" height="350" stroke="#989797" stroke-dasharray="12 12"/>
<rect x="2055.5" y="702.5" width="410" height="350" fill="#202020" stroke="#989797" stroke-dasharray="12 12"/>
<rect x="2466.5" y="702.5" width="410" height="350" stroke="#989797" stroke-dasharray="12 12"/>
<rect x="2877.5" y="702.5" width="410" height="350" fill="#202020" stroke="#989797" stroke-dasharray="12 12"/>
<rect x="3288.5" y="702.5" width="410" height="350" stroke="#989797" stroke-dasharray="12 12"/>
<rect x="411.5" y="351.5" width="410" height="350" stroke="white" stroke-dasharray="12 12"/>
<rect x="822.5" y="351.5" width="410" height="350" fill="#383636" fill-opacity="0.24" stroke="white" stroke-dasharray="12 12"/>
<rect x="1233.5" y="351.5" width="410" height="350" stroke="white" stroke-dasharray="12 12"/>
<rect x="1644.5" y="351.5" width="410" height="350" fill="#383636" fill-opacity="0.24" stroke="white" stroke-dasharray="12 12"/>
<rect x="2055.5" y="351.5" width="410" height="350" stroke="white" stroke-dasharray="12 12"/>
<rect x="2466.5" y="351.5" width="410" height="350" fill="#383636" fill-opacity="0.24" stroke="white" stroke-dasharray="12 12"/>
<rect x="2877.5" y="351.5" width="410" height="350" stroke="white" stroke-dasharray="12 12"/>
<rect x="3288.5" y="351.5" width="410" height="350" fill="#383636" fill-opacity="0.24" stroke="white" stroke-dasharray="12 12"/>
<rect x="411.5" y="1404.5" width="410" height="350" fill="#0F0F0F" fill-opacity="0.33" stroke="#656565" stroke-dasharray="12 12"/>
<rect x="822.5" y="1404.5" width="410" height="350" stroke="#656565" stroke-dasharray="12 12"/>
<rect x="1233.5" y="1404.5" width="410" height="350" fill="#0F0F0F" fill-opacity="0.33" stroke="#656565" stroke-dasharray="12 12"/>
<rect x="1644.5" y="1404.5" width="410" height="350" stroke="#656565" stroke-dasharray="12 12"/>
<rect x="2055.5" y="1404.5" width="410" height="350" fill="#0F0F0F" fill-opacity="0.33" stroke="#656565" stroke-dasharray="12 12"/>
<rect x="2466.5" y="1404.5" width="410" height="350" stroke="#656565" stroke-dasharray="12 12"/>
<rect x="2877.5" y="1404.5" width="410" height="350" fill="#0F0F0F" fill-opacity="0.33" stroke="#656565" stroke-dasharray="12 12"/>
<rect x="3288.5" y="1404.5" width="410" height="350" stroke="#656565" stroke-dasharray="12 12"/>
<rect x="411.5" y="2106.5" width="410" height="350" fill="#020202" fill-opacity="0.36" stroke="#756969" stroke-dasharray="12 12"/>
<rect x="822.5" y="2106.5" width="410" height="350" stroke="#756969" stroke-dasharray="12 12"/>
<rect x="1233.5" y="2106.5" width="410" height="350" fill="#020202" fill-opacity="0.36" stroke="#756969" stroke-dasharray="12 12"/>
<rect x="1644.5" y="2106.5" width="410" height="350" stroke="#756969" stroke-dasharray="12 12"/>
<rect x="2055.5" y="2106.5" width="410" height="350" fill="#020202" fill-opacity="0.36" stroke="#756969" stroke-dasharray="12 12"/>
<rect x="2466.5" y="2106.5" width="410" height="350" stroke="#756969" stroke-dasharray="12 12"/>
<rect x="2877.5" y="2106.5" width="410" height="350" fill="#020202" fill-opacity="0.36" stroke="#756969" stroke-dasharray="12 12"/>
<rect x="3288.5" y="2106.5" width="410" height="350" stroke="#756969" stroke-dasharray="12 12"/>
<rect x="411.5" y="1755.5" width="410" height="350" stroke="#474747" stroke-dasharray="12 12"/>
<rect x="822.5" y="1755.5" width="410" height="350" fill="#0E0E0E" fill-opacity="0.73" stroke="#474747" stroke-dasharray="12 12"/>
<rect x="1233.5" y="1755.5" width="410" height="350" stroke="#474747" stroke-dasharray="12 12"/>
<rect x="1644.5" y="1755.5" width="410" height="350" fill="#0E0E0E" fill-opacity="0.73" stroke="#474747" stroke-dasharray="12 12"/>
<rect x="2055.5" y="1755.5" width="410" height="350" stroke="#474747" stroke-dasharray="12 12"/>
<rect x="2466.5" y="1755.5" width="410" height="350" fill="#0E0E0E" fill-opacity="0.73" stroke="#474747" stroke-dasharray="12 12"/>
<rect x="2877.5" y="1755.5" width="410" height="350" stroke="#474747" stroke-dasharray="12 12"/>
<rect x="3288.5" y="1755.5" width="410" height="350" fill="#0E0E0E" fill-opacity="0.73" stroke="#474747" stroke-dasharray="12 12"/>
<rect x="411.5" y="1053.5" width="410" height="350" stroke="#555252" stroke-dasharray="12 12"/>
<rect x="822.5" y="1053.5" width="410" height="350" fill="#141414" stroke="#555252" stroke-dasharray="12 12"/>
<rect x="1233.5" y="1053.5" width="410" height="350" stroke="#555252" stroke-dasharray="12 12"/>
<rect x="1644.5" y="1053.5" width="410" height="350" fill="#141414" stroke="#555252" stroke-dasharray="12 12"/>
<rect x="2055.5" y="1053.5" width="410" height="350" stroke="#555252" stroke-dasharray="12 12"/>
<rect x="2466.5" y="1053.5" width="410" height="350" fill="#141414" stroke="#555252" stroke-dasharray="12 12"/>
<rect x="2877.5" y="1053.5" width="410" height="350" stroke="#555252" stroke-dasharray="12 12"/>
<rect x="3288.5" y="1053.5" width="410" height="350" fill="#141414" stroke="#555252" stroke-dasharray="12 12"/>
<rect x="3699.5" y="0.5" width="410" height="350" fill="#121212" stroke="white" stroke-dasharray="12 12"/>
<rect x="3699.5" y="702.5" width="410" height="350" fill="#202020" stroke="#989797" stroke-dasharray="12 12"/>
<rect x="3699.5" y="351.5" width="410" height="350" stroke="white" stroke-dasharray="12 12"/>
<rect x="3699.5" y="1404.5" width="410" height="350" fill="#0F0F0F" fill-opacity="0.33" stroke="#656565" stroke-dasharray="12 12"/>
<rect x="3699.5" y="2106.5" width="410" height="350" fill="#020202" fill-opacity="0.36" stroke="#756969" stroke-dasharray="12 12"/>
<rect x="3699.5" y="1755.5" width="410" height="350" stroke="#474747" stroke-dasharray="12 12"/>
<rect x="3699.5" y="1053.5" width="410" height="350" stroke="#555252" stroke-dasharray="12 12"/>
<rect x="0.5" y="0.5" width="410" height="350" stroke="white" stroke-dasharray="12 12"/>
<rect x="0.5" y="702.5" width="410" height="350" stroke="#989797" stroke-dasharray="12 12"/>
<rect x="0.5" y="351.5" width="410" height="350" fill="#383636" fill-opacity="0.24" stroke="white" stroke-dasharray="12 12"/>
<rect x="0.5" y="1404.5" width="410" height="350" stroke="#656565" stroke-dasharray="12 12"/>
<rect x="0.5" y="2106.5" width="410" height="350" stroke="#756969" stroke-dasharray="12 12"/>
<rect x="0.5" y="1755.5" width="410" height="350" fill="#0E0E0E" fill-opacity="0.73" stroke="#474747" stroke-dasharray="12 12"/>
<rect x="0.5" y="1053.5" width="410" height="350" fill="#141414" stroke="#555252" stroke-dasharray="12 12"/>
</g>
<defs>
<clipPath id="clip0_762_2">
<rect width="4110" height="2457" fill="white"/>
</clipPath>
</defs>
</svg>
